<svg width="100" height="64" viewBox="0 0 100 64" fill="none" xmlns="http://www.w3.org/2000/svg">
<path d="M38.6622 53.2891C38.6775 53.2891 38.6926 53.2921 38.7066 53.2981C38.7207 53.304 38.7334 53.3127 38.7441 53.3237C38.7547 53.3346 38.7631 53.3476 38.7686 53.3619C38.7742 53.3761 38.7768 53.3913 38.7764 53.4066V58.3418C38.7764 60.6841 37.3161 61.8351 35.3804 61.8351C33.4447 61.8351 31.9844 60.6841 31.9844 58.3418V53.4066C31.9844 53.3755 31.9967 53.3455 32.0187 53.3235C32.0407 53.3014 32.0706 53.2891 32.1017 53.2891H33.2687C33.2993 53.2899 33.3283 53.3026 33.3497 53.3246C33.371 53.3465 33.3829 53.376 33.3829 53.4066V58.2644C33.3829 59.8981 34.235 60.5448 35.3958 60.5448C36.5567 60.5448 37.4057 59.8981 37.4057 58.2644V53.4066C37.4057 53.3755 37.418 53.3455 37.44 53.3235C37.462 53.3014 37.4919 53.2891 37.523 53.2891H38.6622Z" fill="white"/>
<path d="M58.7265 57.4917C58.7314 58.3544 58.4806 59.1991 58.0059 59.9188C57.5313 60.6384 56.8541 61.2007 56.0602 61.5342C55.2664 61.8677 54.3916 61.9576 53.5468 61.7923C52.7019 61.627 51.9251 61.214 51.3147 60.6057C50.7043 59.9975 50.2878 59.2212 50.1181 58.3755C49.9483 57.5297 50.033 56.6525 50.3612 55.855C50.6895 55.0575 51.2466 54.3757 51.962 53.8958C52.6774 53.416 53.5188 53.1599 54.3796 53.1599C54.9512 53.1495 55.5191 53.2542 56.0495 53.4679C56.58 53.6816 57.0622 53.9999 57.4676 54.4039C57.873 54.8079 58.1934 55.2894 58.4096 55.8198C58.6258 56.3502 58.7336 56.9187 58.7265 57.4917ZM51.3972 57.4917C51.41 58.0784 51.5952 58.6483 51.9296 59.1301C52.264 59.6119 52.7328 59.984 53.2772 60.2C53.8217 60.4161 54.4177 60.4663 54.9905 60.3445C55.5633 60.2227 56.0875 59.9342 56.4975 59.5152C56.9075 59.0962 57.1851 58.5653 57.2955 57.9889C57.4059 57.4126 57.3441 56.8164 57.118 56.275C56.8919 55.7337 56.5115 55.2712 56.0244 54.9455C55.5373 54.6198 54.9651 54.4453 54.3796 54.444C53.9811 54.4374 53.5855 54.5122 53.2169 54.6638C52.8482 54.8154 52.5142 55.0406 52.2352 55.3258C51.9561 55.6109 51.738 55.95 51.5939 56.3223C51.4498 56.6947 51.3829 57.0926 51.3972 57.4917Z" fill="white"/>
<path d="M70.625 61.6931H69.4395C69.4204 61.693 69.4017 61.6881 69.3849 61.6791C69.3681 61.67 69.3538 61.657 69.3432 61.6412C69.3325 61.6254 69.3259 61.6072 69.3239 61.5882C69.3218 61.5692 69.3244 61.55 69.3314 61.5322L72.4774 53.4132C72.4896 53.3798 72.512 53.3511 72.5414 53.3312C72.5707 53.3112 72.6056 53.3009 72.641 53.3018H74.1229C74.1582 53.3018 74.1927 53.3124 74.2218 53.3323C74.251 53.3521 74.2736 53.3803 74.2865 53.4132L77.4171 61.5322C77.4241 61.55 77.4267 61.5692 77.4246 61.5882C77.4226 61.6072 77.416 61.6254 77.4053 61.6412C77.3947 61.657 77.3804 61.67 77.3636 61.6791C77.3468 61.6881 77.3281 61.693 77.309 61.6931H76.1235C76.0999 61.6923 76.0771 61.6845 76.0579 61.6707C76.0387 61.657 76.0239 61.6379 76.0154 61.6158L73.4869 54.9324C73.4792 54.9098 73.4647 54.8903 73.4453 54.8764C73.4259 54.8625 73.4027 54.8551 73.3789 54.8551C73.3551 54.8551 73.3319 54.8625 73.3125 54.8764C73.2931 54.8903 73.2786 54.9098 73.2708 54.9324L70.7392 61.6158C70.7312 61.6394 70.7157 61.6597 70.6951 61.6737C70.6745 61.6876 70.6499 61.6945 70.625 61.6931Z" fill="white"/>
<path d="M23.1485 61.6931H21.963C21.9439 61.693 21.9252 61.6881 21.9084 61.6791C21.8916 61.6701 21.8773 61.657 21.8667 61.6412C21.856 61.6254 21.8494 61.6072 21.8474 61.5882C21.8453 61.5692 21.8479 61.55 21.8549 61.5322L24.9885 53.4132C25.0015 53.3803 25.0241 53.3521 25.0533 53.3323C25.0824 53.3124 25.1169 53.3018 25.1522 53.3018H26.6341C26.6695 53.3009 26.7044 53.3112 26.7337 53.3312C26.7631 53.3511 26.7855 53.3798 26.7977 53.4132L29.9344 61.5322C29.9414 61.55 29.944 61.5692 29.942 61.5882C29.9399 61.6072 29.9333 61.6254 29.9227 61.6412C29.912 61.657 29.8977 61.6701 29.8809 61.6791C29.8641 61.6881 29.8454 61.693 29.8263 61.6931H28.6377C28.6139 61.6931 28.5907 61.6857 28.5713 61.6718C28.552 61.6579 28.5374 61.6383 28.5297 61.6158L26.0012 54.9324C25.9927 54.9102 25.9777 54.891 25.9581 54.8775C25.9385 54.864 25.9153 54.8568 25.8916 54.8568C25.8678 54.8568 25.8446 54.864 25.825 54.8775C25.8055 54.891 25.7905 54.9102 25.782 54.9324L23.2535 61.6158C23.2452 61.6374 23.2309 61.6562 23.2123 61.6699C23.1937 61.6836 23.1716 61.6917 23.1485 61.6931Z" fill="white"/>
<path d="M67.1362 61.5043L64.7837 58.4906C66.1112 58.24 66.8892 57.3396 66.8892 55.9627C66.8892 54.3816 65.8611 53.3018 64.0427 53.3018H60.7609C60.7143 53.3018 60.6695 53.3203 60.6365 53.3534C60.6035 53.3865 60.585 53.4313 60.585 53.4781C60.5858 53.7746 60.7039 54.0588 60.9134 54.2681C61.1229 54.4775 61.4067 54.5951 61.7026 54.5951H63.8976C64.9998 54.5951 65.5246 55.1613 65.5246 55.9751C65.5246 56.7889 65.0121 57.3644 63.8976 57.3644H60.7609C60.7145 57.3652 60.6702 57.384 60.6374 57.4169C60.6046 57.4498 60.5858 57.4942 60.585 57.5407V61.5631C60.585 61.5943 60.5973 61.6242 60.6193 61.6463C60.6413 61.6683 60.6712 61.6807 60.7023 61.6807H61.823C61.8535 61.6799 61.8826 61.6672 61.9039 61.6452C61.9253 61.6232 61.9372 61.5938 61.9372 61.5631V58.5742H63.2153L65.2591 61.2444C65.3679 61.387 65.5081 61.5026 65.6688 61.582C65.8294 61.6614 66.0062 61.7026 66.1853 61.7024H67.0343C67.0586 61.706 67.0834 61.702 67.1053 61.6908C67.1271 61.6796 67.1449 61.6619 67.1562 61.64C67.1674 61.6181 67.1716 61.5933 67.168 61.5689C67.1644 61.5446 67.1533 61.522 67.1362 61.5043Z" fill="white"/>
<path d="M48.146 61.5043L45.7935 58.4906C47.121 58.24 47.899 57.3396 47.899 55.9627C47.899 54.3816 46.8709 53.3018 45.0525 53.3018H41.7707C41.724 53.3018 41.6793 53.3203 41.6463 53.3534C41.6133 53.3865 41.5947 53.4313 41.5947 53.4781C41.5955 53.7746 41.7136 54.0588 41.9232 54.2681C42.1327 54.4775 42.4165 54.5951 42.7123 54.5951H44.9074C46.0096 54.5951 46.5344 55.1613 46.5344 55.9751C46.5344 56.7889 46.0219 57.3644 44.9074 57.3644H41.7707C41.7243 57.3652 41.68 57.384 41.6471 57.4169C41.6143 57.4498 41.5955 57.4942 41.5947 57.5407V61.5631C41.5947 61.5943 41.6071 61.6242 41.6291 61.6463C41.6511 61.6683 41.6809 61.6807 41.712 61.6807H42.8389C42.8695 61.6799 42.8985 61.6671 42.9199 61.6452C42.9412 61.6232 42.9531 61.5938 42.9531 61.5631V58.5742H44.2467L46.2874 61.2444C46.3962 61.387 46.5364 61.5025 46.6971 61.582C46.8577 61.6614 47.0345 61.7026 47.2136 61.7023H48.0626C48.0853 61.7019 48.1074 61.6949 48.1262 61.6822C48.145 61.6694 48.1597 61.6515 48.1685 61.6305C48.1774 61.6095 48.1799 61.5865 48.1759 61.5641C48.1719 61.5417 48.1615 61.5209 48.146 61.5043Z" fill="white"/>
<path d="M49.6314 3.80797C50.5492 3.80503 51.4494 4.05968 52.2302 4.54309C53.011 5.0265 53.6412 5.71935 54.0493 6.54319L67.9422 34.3905C68.3191 35.1453 68.4971 35.9841 68.4594 36.8273C68.4218 37.6705 68.1696 38.4901 67.7269 39.2081C67.2843 39.9261 66.6658 40.5188 65.9302 40.9298C65.1946 41.3408 64.3664 41.5566 63.5243 41.5565H35.7386C34.8964 41.5566 34.0682 41.3408 33.3326 40.9298C32.597 40.5188 31.9785 39.9261 31.5359 39.2081C31.0932 38.4901 30.841 37.6705 30.8034 36.8273C30.7657 35.9841 30.9438 35.1453 31.3206 34.3905L45.2135 6.54319C45.6216 5.71935 46.2518 5.0265 47.0326 4.54309C47.8134 4.05968 48.7136 3.80503 49.6314 3.80797ZM49.6314 0.404419C48.0835 0.404242 46.5661 0.836022 45.2493 1.65138C43.9324 2.46675 42.8681 3.63348 42.1756 5.02088L28.2827 32.8681C27.6469 34.1419 27.3466 35.5574 27.4103 36.9803C27.474 38.4031 27.8996 39.786 28.6466 40.9976C29.3937 42.2091 30.4374 43.2092 31.6786 43.9027C32.9199 44.5962 34.3175 44.9602 35.7386 44.96H63.5243C64.9454 44.9602 66.3429 44.5962 67.5842 43.9027C68.8254 43.2092 69.8692 42.2091 70.6162 40.9976C71.3633 39.786 71.7889 38.4031 71.8525 36.9803C71.9162 35.5574 71.6159 34.1419 70.9801 32.8681L57.0872 5.02088C56.3947 3.63348 55.3304 2.46675 54.0135 1.65138C52.6967 0.836022 51.1793 0.404242 49.6314 0.404419Z" fill="white"/>
</svg>
