<svg width="227" height="136" viewBox="0 0 227 136" fill="none" xmlns="http://www.w3.org/2000/svg">
<path d="M14.7209 64.3124C14.594 61.5315 16.7455 59.1744 19.5264 59.0475L199.287 50.8483C202.067 50.7214 204.425 52.8729 204.551 55.6538L207.076 110.993C207.202 113.774 205.051 116.131 202.27 116.258L22.5099 124.457C19.729 124.584 17.3719 122.433 17.245 119.652L14.7209 64.3124Z" fill="#6038D0"/>
<path fill-rule="evenodd" clip-rule="evenodd" d="M189.838 88.887L33.6088 96.5314L33.416 92.5914L189.645 84.9471L189.838 88.887Z" fill="#292929"/>
<path fill-rule="evenodd" clip-rule="evenodd" d="M132.988 104.092L34.2979 108.593L34.1182 104.653L132.808 100.151L132.988 104.092Z" fill="#292929"/>
<path d="M88.0916 42.415C88.3445 47.9601 84.0543 52.6604 78.5091 52.9134C72.9639 53.1663 68.2636 48.8761 68.0107 43.3309C67.7578 37.7857 72.048 33.0854 77.5932 32.8325C83.1384 32.5796 87.8387 36.8698 88.0916 42.415Z" fill="#CFF9EA"/>
<path d="M82.9731 40.5133L74.6924 40.891L72.7054 47.0185L81.2051 46.6308C81.374 46.6231 82.9731 40.5133 82.9731 40.5133Z" fill="#0C422A"/>
<path fill-rule="evenodd" clip-rule="evenodd" d="M76.2721 40.8189L77.0682 38.0794C77.2362 37.5014 77.9379 37.2801 78.4071 37.6571C79.1129 38.2242 79.5419 39.0663 79.5858 39.9706L79.6195 40.6662L84.4787 40.4446C84.4787 40.4446 82.6377 46.5653 82.7106 46.562L74.211 46.9497L76.1979 40.8223L76.2721 40.8189Z" fill="#19D992"/>
<path d="M119.395 55.9443C119.542 59.158 117.055 61.882 113.842 62.0286C110.628 62.1751 107.904 59.6888 107.758 56.4751C107.611 53.2615 110.097 50.5375 113.311 50.3909C116.525 50.2443 119.249 52.7307 119.395 55.9443Z" fill="#FFF3EC"/>
<path d="M111.051 58.3657L115.85 58.1468L117.002 54.5957L112.076 54.8204C111.978 54.8249 111.051 58.3657 111.051 58.3657Z" fill="#401700"/>
<path fill-rule="evenodd" clip-rule="evenodd" d="M114.957 58.1875L114.561 59.5518C114.463 59.8868 114.057 60.0151 113.785 59.7966C113.376 59.4679 113.127 58.9799 113.102 58.4558L113.093 58.2725L110.179 58.4054C110.179 58.4054 111.246 54.8582 111.204 54.8601L116.13 54.6354L114.978 58.1865L114.957 58.1875Z" fill="#FF8743"/>
<path d="M150.379 20.0079C150.688 26.794 145.438 32.5462 138.652 32.8558C131.865 33.1653 126.113 27.915 125.804 21.1288C125.494 14.3426 130.744 8.5904 137.531 8.28087C144.317 7.97133 150.069 13.2217 150.379 20.0079Z" fill="#CFF9EA"/>
<path d="M144.115 17.6807L133.981 18.143L131.549 25.6417L141.951 25.1672C142.158 25.1578 144.115 17.6807 144.115 17.6807Z" fill="#0C422A"/>
<path fill-rule="evenodd" clip-rule="evenodd" d="M135.916 18.0546L136.89 14.7021C137.096 13.9947 137.954 13.7238 138.529 14.1852C139.392 14.8792 139.917 15.9098 139.971 17.0165L140.012 17.8678L145.958 17.5966C145.958 17.5966 143.705 25.0872 143.795 25.0831L133.393 25.5575L135.824 18.0588L135.916 18.0546Z" fill="#19D992"/>
<path d="M179.977 44.4932C180.207 49.5523 176.293 53.8405 171.234 54.0713C166.175 54.302 161.887 50.3879 161.656 45.3289C161.425 40.2698 165.339 35.9816 170.398 35.7508C175.458 35.5201 179.746 39.4342 179.977 44.4932Z" fill="#FFF3EC"/>
<path d="M166.841 48.3051L174.396 47.9605L176.208 42.3703L168.454 42.724C168.3 42.731 166.841 48.3051 166.841 48.3051Z" fill="#401700"/>
<path fill-rule="evenodd" clip-rule="evenodd" d="M172.988 48.0244L172.364 50.1721C172.211 50.6995 171.57 50.9014 171.142 50.5575C170.498 50.0401 170.107 49.2718 170.067 48.4468L170.053 48.1583L165.467 48.3675C165.467 48.3675 167.146 42.7833 167.08 42.7863L174.834 42.4326L173.021 48.0229L172.988 48.0244Z" fill="#FF8743"/>
<mask id="mask0_10680_204068" style="mask-type:alpha" maskUnits="userSpaceOnUse" x="33" y="66" width="16" height="20">
<path fill-rule="evenodd" clip-rule="evenodd" d="M48.5048 66.9254L36.4996 71.8433L36.6099 74.2627L33.4176 75.5704L33.8538 85.1376L45.859 80.2198L45.7487 77.8003L48.9409 76.4926L48.5048 66.9254Z" fill="#ADD5E5"/>
</mask>
<g mask="url(#mask0_10680_204068)">
<path fill-rule="evenodd" clip-rule="evenodd" d="M48.5048 66.9254L36.4996 71.8433L36.6099 74.2627L33.4176 75.5704L33.8538 85.1376L45.859 80.2198L45.7487 77.8003L48.9409 76.4926L48.5048 66.9254Z" fill="#292929"/>
</g>
</svg>
