<svg width="209" height="136" viewBox="0 0 209 136" fill="none" xmlns="http://www.w3.org/2000/svg">
<path d="M119.5 75.8306C119.5 82.9827 113.702 88.7806 106.55 88.7806C99.3975 88.7806 93.5996 82.9827 93.5996 75.8306C93.5996 68.6785 99.3975 62.8806 106.55 62.8806C113.702 62.8806 119.5 68.6785 119.5 75.8306Z" fill="#E1FC31"/>
<path fill-rule="evenodd" clip-rule="evenodd" d="M100.862 81.5442C104.01 84.6926 109.115 84.6926 112.263 81.5442C115.411 78.3959 115.411 73.2914 112.263 70.143L113.026 69.3799C116.596 72.9497 116.596 78.7375 113.026 82.3073C109.456 85.8771 103.668 85.8771 100.099 82.3073L100.862 81.5442Z" fill="#201F1F"/>
<path fill-rule="evenodd" clip-rule="evenodd" d="M154.588 49.6303C150.32 52.8403 145.732 54.4791 140.366 52.9816C115.866 46.1444 97.6208 46.6623 81.3909 54.0861C65.1351 61.5218 50.8292 75.9158 34.2801 97.0031C34.1096 97.2203 33.7953 97.2582 33.5781 97.0877C33.3608 96.9172 33.3229 96.6029 33.4934 96.3857C50.0581 75.2786 64.4878 60.7183 80.9749 53.1768C97.4879 45.6234 115.992 45.1413 140.635 52.0184C145.605 53.4054 149.875 51.9239 153.987 48.8311C157.871 45.9095 161.556 41.5936 165.491 36.9857C165.745 36.6878 166 36.3886 166.257 36.0885C174.652 26.2709 184.251 15.5001 199.001 15.5C199.277 15.5 199.501 15.7239 199.501 16C199.501 16.2761 199.277 16.5 199.001 16.5C184.776 16.5001 175.461 26.8637 167.017 36.7384C166.752 37.0479 166.488 37.357 166.225 37.6653C162.318 42.2421 158.564 46.6394 154.588 49.6303Z" fill="#19D992"/>
<path d="M51.7539 115.276H90.803V122.799H51.7539V115.276Z" fill="#E8E0FF"/>
<path d="M51.7539 95.2143H90.803V102.738H51.7539V95.2143Z" fill="#E8E0FF"/>
<path d="M23.0938 117.426H51.7536V122.799H23.0938V117.426Z" fill="#E8E0FF"/>
<path d="M51.7539 105.245H90.803V112.769H51.7539V105.245Z" fill="#E8E0FF"/>
<path d="M23.0938 109.903H51.7536V115.276H23.0938V109.903Z" fill="#E8E0FF"/>
<path d="M23.0938 102.379H51.7536V108.111H23.0938V102.379Z" fill="#E8E0FF"/>
<path d="M51.7539 85.1833H90.803V92.7066H51.7539V85.1833Z" fill="#E8E0FF"/>
<path d="M23.0938 95.2143H51.7536V100.588H23.0938V95.2143Z" fill="#E8E0FF"/>
<path d="M90.8027 117.426H119.463V122.8H90.8027V117.426Z" fill="#E8E0FF"/>
<path d="M90.8027 109.903H119.463V115.276H90.8027V109.903Z" fill="#E8E0FF"/>
<path d="M90.8027 102.379H119.463V108.111H90.8027V102.379Z" fill="#E8E0FF"/>
<path d="M136.049 24.7487V17.262H136.528V24.7487H136.049ZM137.321 19.7332C137.298 19.4973 137.197 19.314 137.02 19.1834C136.842 19.0528 136.602 18.9875 136.297 18.9875C136.091 18.9875 135.916 19.0167 135.774 19.0752C135.632 19.1317 135.522 19.2107 135.446 19.3121C135.372 19.4135 135.335 19.5285 135.335 19.6572C135.331 19.7644 135.354 19.858 135.403 19.9379C135.453 20.0178 135.522 20.0871 135.61 20.1455C135.698 20.2021 135.799 20.2518 135.914 20.2947C136.029 20.3356 136.152 20.3707 136.283 20.4L136.821 20.5287C137.082 20.5871 137.322 20.6651 137.54 20.7626C137.759 20.8601 137.948 20.98 138.108 21.1223C138.268 21.2646 138.391 21.4323 138.479 21.6253C138.569 21.8183 138.615 22.0396 138.617 22.2892C138.615 22.6557 138.521 22.9735 138.336 23.2426C138.153 23.5097 137.887 23.7173 137.54 23.8655C137.195 24.0117 136.779 24.0848 136.292 24.0848C135.808 24.0848 135.387 24.0107 135.028 23.8625C134.671 23.7144 134.393 23.495 134.192 23.2045C133.993 22.9121 133.889 22.5504 133.879 22.1196H135.104C135.118 22.3204 135.175 22.488 135.277 22.6226C135.38 22.7551 135.518 22.8556 135.689 22.9238C135.863 22.9901 136.059 23.0232 136.277 23.0232C136.491 23.0232 136.678 22.992 136.836 22.9296C136.995 22.8672 137.119 22.7805 137.207 22.6694C137.295 22.5582 137.339 22.4305 137.339 22.2863C137.339 22.1517 137.299 22.0387 137.219 21.947C137.141 21.8554 137.026 21.7774 136.874 21.7131C136.723 21.6487 136.539 21.5902 136.321 21.5376L135.669 21.3738C135.164 21.251 134.765 21.059 134.473 20.7977C134.18 20.5365 134.035 20.1845 134.037 19.742C134.035 19.3793 134.131 19.0625 134.326 18.7915C134.523 18.5205 134.793 18.309 135.136 18.1569C135.48 18.0048 135.869 17.9288 136.306 17.9288C136.751 17.9288 137.139 18.0048 137.47 18.1569C137.804 18.309 138.063 18.5205 138.248 18.7915C138.433 19.0625 138.529 19.3764 138.535 19.7332H137.321Z" fill="#19D992"/>
<path d="M142.204 18.0107V24H140.937V19.2126H140.902L139.531 20.0724V18.9494L141.013 18.0107H142.204Z" fill="#19D992"/>
<path d="M145.979 24.0819C145.566 24.0819 145.197 24.0058 144.874 23.8538C144.552 23.7017 144.297 23.4921 144.108 23.225C143.919 22.9579 143.82 22.6518 143.812 22.3067H145.041C145.054 22.5387 145.152 22.7269 145.333 22.8711C145.514 23.0154 145.73 23.0876 145.979 23.0876C146.178 23.0876 146.354 23.0437 146.506 22.956C146.66 22.8663 146.78 22.7425 146.865 22.5846C146.953 22.4247 146.997 22.2414 146.997 22.0348C146.997 21.8242 146.952 21.639 146.862 21.4791C146.775 21.3192 146.653 21.1945 146.497 21.1048C146.341 21.0151 146.163 20.9693 145.962 20.9673C145.786 20.9673 145.616 21.0034 145.45 21.0755C145.286 21.1477 145.158 21.2461 145.067 21.3709L143.941 21.1691L144.225 18.0107H147.886V19.0459H145.269L145.114 20.5462H145.149C145.254 20.398 145.413 20.2752 145.625 20.1777C145.838 20.0802 146.076 20.0315 146.339 20.0315C146.7 20.0315 147.021 20.1163 147.304 20.2859C147.587 20.4555 147.81 20.6885 147.974 20.9849C148.138 21.2793 148.218 21.6185 148.217 22.0026C148.218 22.4062 148.125 22.7649 147.936 23.0788C147.749 23.3907 147.486 23.6364 147.149 23.8158C146.814 23.9932 146.424 24.0819 145.979 24.0819Z" fill="#19D992"/>
<path d="M150.437 23.1811L150.405 23.5028C150.38 23.7602 150.331 24.0166 150.259 24.272C150.189 24.5293 150.114 24.7623 150.036 24.9709C149.96 25.1795 149.899 25.3433 149.852 25.4622H149.045C149.074 25.3472 149.114 25.1864 149.165 24.9797C149.216 24.775 149.263 24.5449 149.308 24.2895C149.353 24.0341 149.381 23.7738 149.393 23.5087L149.408 23.1811H150.437Z" fill="#19D992"/>
<path d="M153.75 24.0819C153.313 24.0819 152.924 24.0068 152.583 23.8567C152.244 23.7046 151.976 23.496 151.779 23.2309C151.584 22.9638 151.484 22.6557 151.478 22.3067H152.753C152.761 22.453 152.808 22.5816 152.896 22.6928C152.986 22.8019 153.105 22.8867 153.253 22.9472C153.401 23.0076 153.568 23.0378 153.753 23.0378C153.946 23.0378 154.117 23.0037 154.265 22.9355C154.413 22.8672 154.529 22.7727 154.613 22.6518C154.697 22.5309 154.738 22.3915 154.738 22.2336C154.738 22.0737 154.694 21.9324 154.604 21.8096C154.516 21.6848 154.389 21.5873 154.224 21.5171C154.06 21.4469 153.865 21.4118 153.639 21.4118H153.08V20.4819H153.639C153.83 20.4819 153.999 20.4487 154.145 20.3824C154.293 20.3161 154.408 20.2245 154.49 20.1075C154.572 19.9886 154.613 19.8502 154.613 19.6923C154.613 19.5421 154.577 19.4105 154.505 19.2975C154.434 19.1824 154.335 19.0927 154.206 19.0284C154.079 18.9641 153.931 18.9319 153.762 18.9319C153.59 18.9319 153.433 18.9631 153.291 19.0255C153.149 19.0859 153.034 19.1727 152.949 19.2858C152.863 19.3988 152.817 19.5314 152.811 19.6835H151.598C151.603 19.3384 151.702 19.0343 151.893 18.771C152.084 18.5078 152.341 18.3022 152.665 18.154C152.991 18.0039 153.358 17.9288 153.768 17.9288C154.181 17.9288 154.543 18.0039 154.853 18.154C155.163 18.3041 155.403 18.5069 155.575 18.7623C155.748 19.0157 155.834 19.3004 155.832 19.6162C155.834 19.9516 155.73 20.2313 155.519 20.4555C155.311 20.6797 155.039 20.8221 154.703 20.8825V20.9293C155.144 20.9858 155.479 21.1389 155.709 21.3884C155.941 21.636 156.056 21.946 156.054 22.3184C156.056 22.6596 155.958 22.9628 155.759 23.2279C155.562 23.4931 155.29 23.7017 154.943 23.8538C154.596 24.0058 154.198 24.0819 153.75 24.0819Z" fill="#19D992"/>
<path d="M157.129 24V23.0876L159.261 21.1135C159.443 20.9381 159.595 20.7802 159.718 20.6398C159.842 20.4994 159.937 20.362 160.001 20.2274C160.066 20.091 160.098 19.9438 160.098 19.7858C160.098 19.6104 160.058 19.4593 159.978 19.3325C159.898 19.2039 159.789 19.1054 159.65 19.0372C159.512 18.967 159.355 18.9319 159.179 18.9319C158.996 18.9319 158.836 18.9689 158.7 19.043C158.563 19.1171 158.458 19.2234 158.384 19.3618C158.31 19.5002 158.273 19.665 158.273 19.856H157.071C157.071 19.4641 157.16 19.1239 157.337 18.8354C157.514 18.5468 157.763 18.3236 158.083 18.1657C158.403 18.0078 158.771 17.9288 159.188 17.9288C159.617 17.9288 159.991 18.0048 160.308 18.1569C160.628 18.307 160.877 18.5156 161.054 18.7827C161.231 19.0498 161.32 19.3559 161.32 19.701C161.32 19.9272 161.275 20.1504 161.186 20.3707C161.098 20.591 160.941 20.8357 160.715 21.1048C160.489 21.3719 160.17 21.6926 159.759 22.0669L158.884 22.9238V22.9647H161.399V24H157.129Z" fill="#19D992"/>
<path d="M162.262 22.9472V21.9499L164.762 18.0107H165.622V19.391H165.113L163.537 21.8856V21.9324H167.09V22.9472H162.262ZM165.137 24V22.643L165.16 22.2014V18.0107H166.348V24H165.137Z" fill="#19D992"/>
<path d="M84.2477 48.8514C84.2477 55.8048 78.4497 61.4417 71.2977 61.4417C64.1456 61.4417 58.3477 55.8048 58.3477 48.8514C58.3477 41.898 64.1456 36.2611 71.2977 36.2611C78.4497 36.2611 84.2477 41.898 84.2477 48.8514Z" fill="#6038D0"/>
<path d="M74.9181 44.0036L72.6629 47.3526C72.6264 47.4009 72.6095 47.4613 72.6156 47.5216C72.6218 47.5819 72.6505 47.6376 72.696 47.6776C72.7416 47.7175 72.8006 47.7388 72.8611 47.737C72.9217 47.7352 72.9793 47.7105 73.0224 47.6679L75.2416 45.7494C75.2544 45.7377 75.2703 45.7299 75.2875 45.7272C75.3046 45.7244 75.3222 45.7268 75.338 45.7339C75.3538 45.7411 75.3672 45.7527 75.3765 45.7674C75.3858 45.7821 75.3905 45.7992 75.3902 45.8166V51.8467C75.39 51.865 75.3842 51.8828 75.3737 51.8978C75.3631 51.9127 75.3482 51.9241 75.331 51.9303C75.3138 51.9366 75.2951 51.9374 75.2774 51.9328C75.2597 51.9281 75.2439 51.9182 75.232 51.9042L68.5217 43.8705C68.4145 43.7415 68.2805 43.6375 68.129 43.5659C67.9775 43.4942 67.8121 43.4566 67.6445 43.4556H67.4109C67.1061 43.4556 66.8138 43.5767 66.5983 43.7924C66.3828 44.008 66.2617 44.3005 66.2617 44.6055V53.0973C66.2617 53.4023 66.3828 53.6948 66.5983 53.9104C66.8138 54.1261 67.1061 54.2472 67.4109 54.2472C67.6072 54.2472 67.8003 54.1968 67.9717 54.1009C68.1431 54.005 68.2871 53.8667 68.3899 53.6993L70.645 50.3503C70.6816 50.3019 70.6984 50.2415 70.6923 50.1812C70.6862 50.1209 70.6574 50.0652 70.6119 50.0252C70.5663 49.9853 70.5073 49.9641 70.4468 49.9659C70.3863 49.9677 70.3286 49.9923 70.2855 50.0349L68.0663 51.9534C68.0535 51.9652 68.0376 51.9729 68.0204 51.9756C68.0033 51.9784 67.9857 51.976 67.9699 51.9689C67.9541 51.9617 67.9407 51.9501 67.9314 51.9354C67.9222 51.9207 67.9174 51.9036 67.9177 51.8863V45.8621C67.9179 45.8438 67.9237 45.826 67.9342 45.8111C67.9448 45.7961 67.9597 45.7848 67.9769 45.7785C67.9941 45.7722 68.0128 45.7714 68.0305 45.776C68.0482 45.7807 68.064 45.7907 68.0759 45.8046L74.7862 53.8383C74.8942 53.9662 75.0287 54.0689 75.1804 54.1393C75.3321 54.2097 75.4974 54.2461 75.6646 54.246H75.9042C76.0551 54.246 76.2046 54.2163 76.344 54.1585C76.4834 54.1007 76.6101 54.016 76.7168 53.9092C76.8235 53.8025 76.9082 53.6757 76.9659 53.5362C77.0237 53.3967 77.0534 53.2471 77.0534 53.0961V44.6055C77.0534 44.4539 77.0234 44.3038 76.9652 44.1638C76.907 44.0238 76.8217 43.8967 76.7143 43.7898C76.6068 43.683 76.4793 43.5984 76.339 43.541C76.1988 43.4837 76.0486 43.4546 75.8971 43.4556C75.7007 43.4556 75.5076 43.506 75.3362 43.6019C75.1648 43.6979 75.0209 43.8361 74.9181 44.0036Z" fill="white"/>
<path d="M48.9937 67.557C48.9937 74.5104 43.1958 80.1472 36.0437 80.1472C28.8917 80.1472 23.0938 74.5104 23.0938 67.557C23.0938 60.6035 28.8917 54.9667 36.0437 54.9667C43.1958 54.9667 48.9937 60.6035 48.9937 67.557Z" fill="#FF8743"/>
<path fill-rule="evenodd" clip-rule="evenodd" d="M30.4516 73.3251C33.5999 76.4735 38.7044 76.4735 41.8528 73.3251C45.0012 70.1767 45.0012 65.0722 41.8528 61.9239L42.6159 61.1608C46.1857 64.7306 46.1857 70.5184 42.6159 74.0882C39.0461 77.658 33.2583 77.658 29.6885 74.0882L30.4516 73.3251Z" fill="#201F1F"/>
</svg>
