<svg width="161" height="136" viewBox="0 0 161 136" fill="none" xmlns="http://www.w3.org/2000/svg">
<circle cx="92.0518" cy="70.1229" r="6.97364" fill="white"/>
<path fill-rule="evenodd" clip-rule="evenodd" d="M154.798 98.5938L154.066 98.1657C154.236 97.8757 154.388 97.5762 154.521 97.2671C154.655 96.958 154.769 96.6423 154.865 96.32L155.677 96.5601C155.573 96.915 155.447 97.263 155.299 97.6037C155.152 97.9444 154.984 98.2744 154.798 98.5938ZM156.054 94.3812L155.208 94.3304C155.247 93.6709 155.221 92.9853 155.128 92.2746L155.968 92.1647C156.068 92.9242 156.097 93.6638 156.054 94.3812ZM155.512 89.9991L154.697 90.2322C154.511 89.579 154.275 88.9092 153.989 88.224L154.772 87.8985C155.069 88.6111 155.316 89.3118 155.512 89.9991ZM153.829 85.9L153.079 86.2945C152.756 85.6807 152.398 85.0573 152.005 84.4253L152.724 83.9776C153.127 84.6257 153.496 85.2668 153.829 85.9ZM151.495 82.1292L150.803 82.6188C150.395 82.0425 149.96 81.4604 149.499 80.8734L150.166 80.3499C150.635 80.9474 151.078 81.5407 151.495 82.1292ZM148.757 78.6342L148.113 79.1855C147.65 78.6439 147.165 78.0989 146.659 77.5509L147.282 76.9762C147.795 77.5315 148.286 78.0843 148.757 78.6342ZM145.751 75.3706L145.147 75.9653C144.644 75.4535 144.123 74.9398 143.585 74.4245L144.171 73.8125C144.715 74.3333 145.242 74.8528 145.751 75.3706ZM142.548 72.2978L141.978 72.9249C141.443 72.4387 140.894 71.9514 140.331 71.4635L140.886 70.8229C141.454 71.3151 142.008 71.8069 142.548 72.2978ZM139.188 69.3847L138.647 70.0374C138.09 69.5757 137.52 69.1137 136.939 68.6518L137.466 67.9882C138.052 68.4537 138.626 68.9192 139.188 69.3847ZM135.719 66.6268L135.205 67.3003C134.627 66.8592 134.039 66.4183 133.441 65.9778L133.944 65.2953C134.546 65.7386 135.138 66.1826 135.719 66.6268ZM132.141 63.9919C131.543 63.5674 130.937 63.1437 130.321 62.7209L129.841 63.4197C130.453 63.8399 131.056 64.2611 131.65 64.6829L132.141 63.9919ZM128.485 61.4816L128.016 62.1876C127.408 61.7837 126.792 61.3808 126.168 60.9792L126.626 60.2663C127.254 60.6702 127.874 61.0753 128.485 61.4816ZM124.745 59.0749L124.297 59.7941C123.679 59.4089 123.054 59.025 122.421 58.6425L122.86 57.9173C123.496 58.3017 124.124 58.6876 124.745 59.0749ZM120.953 56.7812L120.524 57.5122C119.892 57.1408 119.252 56.771 118.606 56.403L119.026 55.6666C119.675 56.0364 120.318 56.408 120.953 56.7812ZM117.096 54.5827L116.686 55.3243C116.045 54.9697 115.399 54.6169 114.746 54.2661L115.148 53.5196C115.803 53.872 116.453 54.2264 117.096 54.5827ZM113.182 52.4775L112.789 53.2288C112.142 52.8903 111.488 52.5539 110.83 52.2197L111.214 51.4639C111.875 51.7996 112.531 52.1376 113.182 52.4775ZM109.227 50.4697L108.852 51.2298C108.194 50.9052 107.531 50.5828 106.864 50.2627L107.23 49.4984C107.901 49.8198 108.566 50.1436 109.227 50.4697ZM105.226 48.5515L104.868 49.3199C104.202 49.0096 103.531 48.7017 102.856 48.3963L103.205 47.624C103.883 47.9307 104.557 48.2399 105.226 48.5515ZM101.18 46.7217L100.84 47.4978C100.501 47.3493 100.162 47.2015 99.8221 47.0543C99.482 46.9071 99.142 46.7612 98.8023 46.6164L99.1346 45.8366C99.4758 45.982 99.8171 46.1286 100.159 46.2764C100.5 46.4241 100.841 46.5726 101.18 46.7217ZM97.0908 44.9788L96.7671 45.7621C96.0822 45.479 95.3985 45.2009 94.7161 44.9277L95.0311 44.1408C95.7164 44.4152 96.4031 44.6945 97.0908 44.9788ZM92.9688 43.3283L92.6626 44.1187C91.9721 43.8511 91.2833 43.5887 90.5961 43.3313L90.8934 42.5376C91.5835 42.796 92.2754 43.0596 92.9688 43.3283ZM88.8087 41.7704L88.5206 42.5675C87.8262 42.3165 87.1338 42.0708 86.4436 41.8304L86.7225 41.0299C87.4158 41.2715 88.1112 41.5183 88.8087 41.7704ZM84.617 40.3105L84.3477 41.1142C83.6454 40.8789 82.9455 40.6492 82.2485 40.4251L82.5079 39.6181C83.2083 39.8433 83.9114 40.0741 84.617 40.3105ZM80.3968 38.9537L80.1473 39.7638C79.437 39.545 78.7297 39.3322 78.0259 39.1254L78.2649 38.3122C78.9722 38.5201 79.6829 38.7339 80.3968 38.9537ZM76.1314 37.7003L75.9031 38.5166C75.1915 38.3176 74.4837 38.1248 73.7798 37.9382L73.997 37.1189C74.7046 37.3065 75.4161 37.5003 76.1314 37.7003ZM71.8406 36.5634L71.635 37.3857C70.9148 37.2057 70.1992 37.0323 69.4885 36.8657L69.6821 36.0405C70.3968 36.2081 71.1164 36.3824 71.8406 36.5634ZM67.5221 35.5512L67.3413 36.3793C66.6158 36.2209 65.896 36.0696 65.1819 35.9256L65.3495 35.0948C66.068 35.2397 66.7923 35.3918 67.5221 35.5512ZM63.1654 34.6733L63.0119 35.5069C62.2813 35.3724 61.5574 35.2458 60.8406 35.127L60.9791 34.2908C61.7011 34.4104 62.4299 34.5379 63.1654 34.6733ZM58.7906 33.9493L58.668 34.788C57.9333 34.6806 57.2067 34.5819 56.4887 34.4918L56.5942 33.6508C57.3181 33.7416 58.0504 33.8411 58.7906 33.9493ZM54.3834 33.3979L54.2965 34.241C53.5553 34.1646 52.8241 34.0979 52.1036 34.0411L52.1703 33.1961C52.8978 33.2535 53.6357 33.3208 54.3834 33.3979ZM49.9548 33.05L49.9104 33.8964C49.1666 33.8574 48.4355 33.8294 47.7176 33.8126L47.7375 32.9652C48.4639 32.9822 49.2032 33.0105 49.9548 33.05ZM45.519 32.9486L45.5267 33.7961C44.7812 33.8029 44.052 33.8227 43.3398 33.8555L43.3008 33.0088C44.0239 32.9755 44.7636 32.9554 45.519 32.9486ZM41.0859 33.1568L41.1608 34.0011C40.4173 34.0671 39.6955 34.1487 38.9962 34.2461L38.8793 33.4066C39.5933 33.3072 40.3292 33.224 41.0859 33.1568ZM36.6901 33.7757L36.8566 34.6068C36.1268 34.753 35.4271 34.9187 34.7587 35.1037L34.5326 34.2868C35.2221 34.0959 35.9417 33.9256 36.6901 33.7757ZM32.4303 34.9677L32.7289 35.761C32.0343 36.0224 31.3844 36.3088 30.7805 36.6199L30.3924 35.8663C31.0279 35.539 31.708 35.2395 32.4303 34.9677ZM28.5018 37.0167L28.9971 37.7045C28.4155 38.1233 27.8975 38.5733 27.444 39.0537L26.8276 38.4718C27.321 37.9493 27.8802 37.4643 28.5018 37.0167ZM25.4973 40.2381C25.3104 40.5575 25.143 40.8875 24.9956 41.2282C24.8482 41.5689 24.7222 41.9169 24.6174 42.2718L25.4303 42.5119C25.5255 42.1896 25.6398 41.8738 25.7735 41.5648C25.9072 41.2557 26.0591 40.9562 26.2288 40.6662L25.4973 40.2381ZM24.2409 44.4507L25.087 44.5015C25.0474 45.161 25.074 45.8466 25.167 46.5573L24.3265 46.6672C24.2272 45.9077 24.1978 45.1681 24.2409 44.4507ZM24.7825 48.8328L25.5974 48.5997C25.7842 49.2529 26.0204 49.9227 26.3054 50.6079L25.5228 50.9334C25.2263 50.2208 24.9791 49.5201 24.7825 48.8328ZM26.4659 52.9319L27.2161 52.5374C27.5388 53.1512 27.8971 53.7746 28.2902 54.4066L27.5705 54.8543C27.1674 54.2062 26.7988 53.5651 26.4659 52.9319ZM28.8003 56.7027L29.4922 56.2131C29.9 56.7894 30.3347 57.3714 30.7957 57.9585L30.129 58.482C29.6599 57.8845 29.2167 57.2912 28.8003 56.7027ZM31.5376 60.1977L32.1814 59.6464C32.6452 60.188 33.13 60.733 33.6354 61.281L33.0124 61.8557C32.5002 61.3004 32.0084 60.7476 31.5376 60.1977ZM34.5434 63.4613L35.1475 62.8666C35.6512 63.3784 36.1722 63.8921 36.7099 64.4074L36.1234 65.0194C35.58 64.4986 35.0532 63.9791 34.5434 63.4613ZM37.7467 66.5341L38.3169 65.9069C38.8517 66.3932 39.4008 66.8805 39.964 67.3684L39.409 68.009C38.8408 67.5168 38.2866 67.025 37.7467 66.5341ZM41.107 69.4472L41.6477 68.7945C42.205 69.2562 42.7744 69.7181 43.3557 70.1801L42.8284 70.8437C42.2427 70.3782 41.6688 69.9127 41.107 69.4472ZM44.5757 72.205L45.0903 71.5316C45.6676 71.9727 46.2555 72.4136 46.8538 72.854L46.3513 73.5366C45.7491 73.0933 45.1571 72.6493 44.5757 72.205ZM48.1538 74.84L48.6447 74.149C49.2385 74.5708 49.8416 74.992 50.4538 75.4122L49.9741 76.111C49.3582 75.6882 48.7514 75.2645 48.1538 74.84ZM51.8094 77.3503L52.2784 76.6443C52.8865 77.0482 53.5028 77.4511 54.1271 77.8527L53.6685 78.5655C53.0407 78.1617 52.421 77.7566 51.8094 77.3503ZM55.5498 79.757L55.9982 79.0378C56.6161 79.423 57.2413 79.8069 57.8735 80.1894L57.4349 80.9146C56.7993 80.5302 56.1709 80.1443 55.5498 79.757ZM59.3415 82.0507L59.7706 81.3197C60.4033 81.6911 61.0426 82.0609 61.6884 82.4289L61.2687 83.1653C60.6198 82.7955 59.9773 82.4239 59.3415 82.0507ZM63.1985 84.2492L63.6089 83.5076C64.2496 83.8622 64.8961 84.215 65.5485 84.5658L65.1471 85.3123C64.4917 84.9599 63.8421 84.6054 63.1985 84.2492ZM67.113 86.3544L67.5055 85.6031C68.1533 85.9416 68.8064 86.278 69.4648 86.6122L69.081 87.368C68.4198 87.0323 67.7637 86.6943 67.113 86.3544ZM71.0675 88.3622L71.4425 87.6021C72.1006 87.9267 72.7635 88.2491 73.4312 88.5692L73.0648 89.3335C72.3943 89.0121 71.7284 88.6883 71.0675 88.3622ZM75.069 90.2804L75.4268 89.512C76.0932 89.8223 76.764 90.1302 77.4392 90.4356L77.09 91.2079C76.4119 90.9012 75.7382 90.592 75.069 90.2804ZM79.1145 92.1102L79.4554 91.3341C79.7935 91.4826 80.1326 91.6304 80.4727 91.7776C80.8129 91.9248 81.1528 92.0707 81.4925 92.2155L81.1602 92.9953C80.8191 92.8499 80.4777 92.7033 80.1362 92.5555C79.7946 92.4077 79.4541 92.2593 79.1145 92.1102ZM83.204 93.8531L83.5278 93.0698C84.2127 93.3528 84.8964 93.631 85.5788 93.9042L85.2637 94.6911C84.5784 94.4167 83.8918 94.1374 83.204 93.8531ZM87.326 95.5036L87.6323 94.7132C88.3227 94.9808 89.0116 95.2432 89.6987 95.5006L89.4015 96.2943C88.7113 96.0359 88.0195 95.7723 87.326 95.5036ZM91.4862 97.0615L91.7743 96.2644C92.4687 96.5154 93.1611 96.7611 93.8512 97.0015L93.5724 97.8019C92.8791 97.5604 92.1836 97.3136 91.4862 97.0615ZM95.6779 98.5214L95.9471 97.7177C96.6495 97.953 97.3493 98.1827 98.0464 98.4068L97.7869 99.2138C97.0866 98.9886 96.3835 98.7578 95.6779 98.5214ZM99.8981 99.8782L100.148 99.0681C100.858 99.2869 101.565 99.4996 102.269 99.7065L102.03 100.52C101.323 100.312 100.612 100.098 99.8981 99.8782ZM104.163 101.132C104.879 101.332 105.59 101.525 106.298 101.713L106.515 100.894C105.811 100.707 105.103 100.514 104.392 100.315L104.163 101.132ZM108.454 102.268L108.66 101.446C109.38 101.626 110.096 101.8 110.806 101.966L110.613 102.791C109.898 102.624 109.178 102.449 108.454 102.268ZM112.773 103.281L112.954 102.453C113.679 102.611 114.399 102.762 115.113 102.906L114.945 103.737C114.227 103.592 113.503 103.44 112.773 103.281ZM117.129 104.159L117.283 103.325C118.014 103.459 118.737 103.586 119.454 103.705L119.316 104.541C118.594 104.422 117.865 104.294 117.129 104.159ZM121.504 104.883L121.627 104.044C122.362 104.151 123.088 104.25 123.806 104.34L123.701 105.181C122.977 105.09 122.245 104.991 121.504 104.883ZM125.911 105.434C126.659 105.511 127.397 105.578 128.125 105.636L128.191 104.791C127.471 104.734 126.74 104.667 125.998 104.591L125.911 105.434ZM130.34 105.782L130.385 104.935C131.128 104.975 131.859 105.002 132.577 105.019L132.557 105.867C131.831 105.85 131.092 105.821 130.34 105.782ZM134.776 105.883L134.768 105.036C135.514 105.029 136.243 105.009 136.955 104.976L136.994 105.823C136.271 105.856 135.531 105.876 134.776 105.883ZM139.209 105.675L139.134 104.831C139.878 104.765 140.599 104.683 141.299 104.586L141.416 105.425C140.702 105.525 139.966 105.608 139.209 105.675ZM143.605 105.056C144.353 104.906 145.073 104.736 145.762 104.545L145.536 103.728C144.868 103.913 144.168 104.079 143.438 104.225L143.605 105.056ZM147.865 103.864C148.587 103.592 149.267 103.293 149.902 102.966L149.514 102.212C148.91 102.523 148.261 102.81 147.566 103.071L147.865 103.864ZM151.793 101.815L151.298 101.127C151.879 100.709 152.397 100.259 152.851 99.7782L153.467 100.36C152.974 100.883 152.415 101.368 151.793 101.815Z" fill="#595959"/>
<path d="M128.415 95.4086C127.28 97.0812 125.211 98.0752 122.334 98.3696C119.459 98.6637 115.839 98.2509 111.705 97.1723C103.443 95.0163 93.2256 90.2248 83.0251 83.2983C72.8246 76.3717 64.6024 68.6422 59.5508 61.7574C57.0238 58.3135 55.3046 55.1002 54.5177 52.3198C53.73 49.5366 53.8912 47.2477 55.0269 45.5752C56.1626 43.9026 58.2307 42.9086 61.1081 42.6142C63.9828 42.3201 67.6036 42.7329 71.7368 43.8115C79.9994 45.9675 90.2166 50.759 100.417 57.6856C110.618 64.6121 118.84 72.3416 123.891 79.2264C126.418 82.6704 128.138 85.8836 128.924 88.664C129.712 91.4472 129.551 93.7361 128.415 95.4086Z" stroke="#595959" stroke-width="0.847608"/>
<path d="M128.503 32.5069C130.437 34.4415 131.295 37.3368 131.121 40.9932C130.947 44.6497 129.74 49.0198 127.603 53.8254C123.331 63.4337 115.38 74.6985 104.752 85.3263C94.1239 95.9541 82.8592 103.906 73.2508 108.178C68.4452 110.314 64.0751 111.521 60.4186 111.696C56.7623 111.87 53.8669 111.012 51.9323 109.077C49.9977 107.143 49.1397 104.247 49.3142 100.591C49.4886 96.9346 50.6954 92.5645 52.8321 87.7589C57.1042 78.1506 65.0557 66.8858 75.6835 56.258C86.3113 45.6302 97.576 37.6787 107.184 33.4066C111.99 31.27 116.36 30.0632 120.017 29.8887C123.673 29.7143 126.568 30.5723 128.503 32.5069Z" stroke="#595959" stroke-width="0.847608"/>
<circle cx="109.607" cy="32.2194" r="2.95892" fill="#19D992"/>
<circle cx="45.3847" cy="32.5482" r="2.95892" fill="#E8E0FF"/>
<circle cx="49.8232" cy="94.6855" r="2.95892" fill="#FF8743"/>
<rect x="103.825" y="6.65759" width="56.5072" height="13.5617" rx="6.78086" fill="#19D992"/>
<path d="M118.168 12.4526H117.113C117.094 12.3161 117.055 12.1949 116.995 12.089C116.936 11.9814 116.859 11.8899 116.766 11.8145C116.673 11.739 116.566 11.6812 116.444 11.6411C116.323 11.601 116.192 11.5809 116.051 11.5809C115.796 11.5809 115.574 11.6443 115.384 11.7711C115.195 11.8963 115.048 12.0793 114.944 12.3201C114.839 12.5593 114.787 12.8499 114.787 13.1918C114.787 13.5434 114.839 13.8388 114.944 14.078C115.049 14.3172 115.197 14.4978 115.387 14.6198C115.576 14.7418 115.795 14.8028 116.044 14.8028C116.184 14.8028 116.313 14.7843 116.432 14.7474C116.552 14.7105 116.659 14.6567 116.752 14.586C116.845 14.5138 116.922 14.4263 116.983 14.3236C117.046 14.2208 117.089 14.1036 117.113 13.972L118.168 13.9768C118.141 14.2032 118.072 14.4215 117.963 14.6318C117.856 14.8405 117.71 15.0275 117.527 15.1929C117.346 15.3566 117.129 15.4866 116.877 15.5829C116.627 15.6777 116.343 15.725 116.027 15.725C115.587 15.725 115.194 15.6255 114.847 15.4264C114.502 15.2274 114.229 14.9392 114.028 14.562C113.829 14.1847 113.73 13.728 113.73 13.1918C113.73 12.654 113.831 12.1965 114.033 11.8193C114.236 11.442 114.51 11.1547 114.857 10.9572C115.204 10.7582 115.594 10.6586 116.027 10.6586C116.313 10.6586 116.578 10.6988 116.822 10.779C117.067 10.8593 117.285 10.9765 117.474 11.1306C117.664 11.2831 117.818 11.4701 117.937 11.6917C118.057 11.9132 118.134 12.1668 118.168 12.4526ZM120.703 15.7298C120.329 15.7298 120.005 15.6504 119.733 15.4914C119.461 15.3309 119.252 15.1078 119.104 14.822C118.956 14.5347 118.883 14.2016 118.883 13.8227C118.883 13.4406 118.956 13.1067 119.104 12.821C119.252 12.5336 119.461 12.3105 119.733 12.1516C120.005 11.991 120.329 11.9108 120.703 11.9108C121.077 11.9108 121.4 11.991 121.671 12.1516C121.944 12.3105 122.154 12.5336 122.302 12.821C122.45 13.1067 122.523 13.4406 122.523 13.8227C122.523 14.2016 122.45 14.5347 122.302 14.822C122.154 15.1078 121.944 15.3309 121.671 15.4914C121.4 15.6504 121.077 15.7298 120.703 15.7298ZM120.708 14.9352C120.878 14.9352 121.02 14.887 121.134 14.7907C121.248 14.6928 121.334 14.5596 121.392 14.391C121.451 14.2224 121.481 14.0306 121.481 13.8155C121.481 13.6004 121.451 13.4085 121.392 13.24C121.334 13.0714 121.248 12.9382 121.134 12.8403C121.02 12.7423 120.878 12.6934 120.708 12.6934C120.536 12.6934 120.392 12.7423 120.274 12.8403C120.159 12.9382 120.071 13.0714 120.012 13.24C119.954 13.4085 119.925 13.6004 119.925 13.8155C119.925 14.0306 119.954 14.2224 120.012 14.391C120.071 14.5596 120.159 14.6928 120.274 14.7907C120.392 14.887 120.536 14.9352 120.708 14.9352ZM123.326 15.6576V11.9589H124.304V12.6115H124.347C124.424 12.3948 124.552 12.2238 124.732 12.0986C124.912 11.9734 125.127 11.9108 125.378 11.9108C125.631 11.9108 125.847 11.9742 126.025 12.101C126.204 12.2262 126.322 12.3964 126.382 12.6115H126.42C126.496 12.3996 126.632 12.2302 126.83 12.1034C127.029 11.975 127.264 11.9108 127.535 11.9108C127.88 11.9108 128.16 12.0207 128.376 12.2407C128.592 12.459 128.701 12.7688 128.701 13.1702V15.6576H127.677V13.3724C127.677 13.1669 127.623 13.0128 127.514 12.9101C127.404 12.8074 127.268 12.756 127.104 12.756C126.918 12.756 126.773 12.8154 126.668 12.9342C126.564 13.0514 126.512 13.2063 126.512 13.3989V15.6576H125.517V13.3508C125.517 13.1693 125.465 13.0249 125.361 12.9173C125.258 12.8098 125.122 12.756 124.954 12.756C124.84 12.756 124.737 12.7849 124.646 12.8427C124.556 12.8989 124.484 12.9783 124.431 13.0811C124.378 13.1822 124.352 13.301 124.352 13.4374V15.6576H123.326ZM129.647 15.6576V11.9589H130.624V12.6115H130.668C130.745 12.3948 130.873 12.2238 131.053 12.0986C131.233 11.9734 131.448 11.9108 131.698 11.9108C131.952 11.9108 132.168 11.9742 132.346 12.101C132.524 12.2262 132.643 12.3964 132.702 12.6115H132.741C132.816 12.3996 132.953 12.2302 133.15 12.1034C133.349 11.975 133.584 11.9108 133.856 11.9108C134.201 11.9108 134.481 12.0207 134.696 12.2407C134.913 12.459 135.021 12.7688 135.021 13.1702V15.6576H133.998V13.3724C133.998 13.1669 133.943 13.0128 133.834 12.9101C133.725 12.8074 133.588 12.756 133.425 12.756C133.238 12.756 133.093 12.8154 132.989 12.9342C132.884 13.0514 132.832 13.2063 132.832 13.3989V15.6576H131.838V13.3508C131.838 13.1693 131.786 13.0249 131.681 12.9173C131.579 12.8098 131.443 12.756 131.274 12.756C131.16 12.756 131.058 12.7849 130.966 12.8427C130.876 12.8989 130.805 12.9783 130.752 13.0811C130.699 13.1822 130.672 13.301 130.672 13.4374V15.6576H129.647ZM135.967 15.6576V11.9589H136.993V15.6576H135.967ZM136.482 11.4822C136.33 11.4822 136.199 11.4316 136.09 11.3305C135.982 11.2277 135.929 11.1049 135.929 10.962C135.929 10.8208 135.982 10.6996 136.09 10.5984C136.199 10.4957 136.33 10.4443 136.482 10.4443C136.635 10.4443 136.765 10.4957 136.872 10.5984C136.982 10.6996 137.036 10.8208 137.036 10.962C137.036 11.1049 136.982 11.2277 136.872 11.3305C136.765 11.4316 136.635 11.4822 136.482 11.4822ZM139.917 11.9589V12.7295H137.69V11.9589H139.917ZM138.196 11.0728H139.222V14.521C139.222 14.6157 139.236 14.6896 139.265 14.7426C139.294 14.7939 139.334 14.8301 139.385 14.8509C139.438 14.8718 139.499 14.8822 139.568 14.8822C139.616 14.8822 139.665 14.8782 139.713 14.8702C139.761 14.8606 139.798 14.8533 139.824 14.8485L139.985 15.6118C139.934 15.6279 139.861 15.6464 139.768 15.6672C139.675 15.6897 139.562 15.7033 139.429 15.7082C139.181 15.7178 138.965 15.6849 138.779 15.6094C138.594 15.534 138.45 15.4168 138.347 15.2579C138.245 15.0989 138.194 14.8983 138.196 14.6559V11.0728ZM142.689 11.9589V12.7295H140.461V11.9589H142.689ZM140.967 11.0728H141.993V14.521C141.993 14.6157 142.007 14.6896 142.036 14.7426C142.065 14.7939 142.105 14.8301 142.156 14.8509C142.209 14.8718 142.27 14.8822 142.339 14.8822C142.388 14.8822 142.436 14.8782 142.484 14.8702C142.532 14.8606 142.569 14.8533 142.595 14.8485L142.756 15.6118C142.705 15.6279 142.632 15.6464 142.539 15.6672C142.446 15.6897 142.333 15.7033 142.2 15.7082C141.953 15.7178 141.736 15.6849 141.55 15.6094C141.365 15.534 141.221 15.4168 141.119 15.2579C141.016 15.0989 140.965 14.8983 140.967 14.6559V11.0728ZM145.138 15.7298C144.758 15.7298 144.43 15.6528 144.156 15.4987C143.883 15.343 143.673 15.123 143.525 14.8389C143.377 14.5531 143.303 14.2152 143.303 13.8251C143.303 13.4447 143.377 13.1108 143.525 12.8234C143.673 12.5361 143.881 12.3121 144.149 12.1516C144.418 11.991 144.735 11.9108 145.097 11.9108C145.341 11.9108 145.569 11.9501 145.779 12.0288C145.991 12.1058 146.175 12.2222 146.333 12.3779C146.492 12.5336 146.615 12.7295 146.704 12.9655C146.792 13.1999 146.836 13.4744 146.836 13.789V14.0707H143.713V13.435H145.87C145.87 13.2873 145.838 13.1565 145.774 13.0425C145.71 12.9286 145.621 12.8395 145.507 12.7752C145.394 12.7094 145.264 12.6765 145.114 12.6765C144.959 12.6765 144.82 12.7126 144.7 12.7849C144.581 12.8555 144.488 12.951 144.421 13.0714C144.353 13.1902 144.319 13.3227 144.317 13.4687V14.0731C144.317 14.2561 144.351 14.4143 144.418 14.5475C144.487 14.6808 144.584 14.7835 144.71 14.8557C144.835 14.928 144.983 14.9641 145.155 14.9641C145.269 14.9641 145.374 14.948 145.468 14.9159C145.563 14.8838 145.644 14.8357 145.711 14.7715C145.779 14.7072 145.83 14.6286 145.866 14.5355L146.814 14.5981C146.766 14.826 146.667 15.0251 146.518 15.1953C146.37 15.3638 146.179 15.4955 145.945 15.5902C145.712 15.6833 145.443 15.7298 145.138 15.7298ZM149.327 15.7298C148.946 15.7298 148.619 15.6528 148.344 15.4987C148.071 15.343 147.861 15.123 147.713 14.8389C147.566 14.5531 147.492 14.2152 147.492 13.8251C147.492 13.4447 147.566 13.1108 147.713 12.8234C147.861 12.5361 148.069 12.3121 148.337 12.1516C148.607 11.991 148.923 11.9108 149.286 11.9108C149.53 11.9108 149.757 11.9501 149.967 12.0288C150.179 12.1058 150.364 12.2222 150.521 12.3779C150.68 12.5336 150.803 12.7295 150.892 12.9655C150.98 13.1999 151.024 13.4744 151.024 13.789V14.0707H147.901V13.435H150.059C150.059 13.2873 150.026 13.1565 149.962 13.0425C149.898 12.9286 149.809 12.8395 149.695 12.7752C149.583 12.7094 149.452 12.6765 149.302 12.6765C149.147 12.6765 149.009 12.7126 148.888 12.7849C148.77 12.8555 148.676 12.951 148.609 13.0714C148.542 13.1902 148.507 13.3227 148.505 13.4687V14.0731C148.505 14.2561 148.539 14.4143 148.607 14.5475C148.676 14.6808 148.773 14.7835 148.898 14.8557C149.023 14.928 149.172 14.9641 149.343 14.9641C149.457 14.9641 149.562 14.948 149.656 14.9159C149.751 14.8838 149.832 14.8357 149.9 14.7715C149.967 14.7072 150.018 14.6286 150.054 14.5355L151.003 14.5981C150.954 14.826 150.856 15.0251 150.706 15.1953C150.559 15.3638 150.368 15.4955 150.133 15.5902C149.9 15.6833 149.632 15.7298 149.327 15.7298Z" fill="#201F1F"/>
<rect x="26.2861" y="107.22" width="65.5484" height="13.5617" rx="6.78086" fill="#FF8743"/>
<path d="M39.6562 116.22H38.5389L40.2413 111.288H41.585L43.285 116.22H42.1677L40.9324 112.415H40.8939L39.6562 116.22ZM39.5864 114.281H42.2255V115.095H39.5864V114.281ZM45.0207 111.288V116.22H43.9949V111.288H45.0207ZM47.0039 111.288V116.22H45.9781V111.288H47.0039ZM49.6662 116.22V112.521H50.6439V113.174H50.6872C50.7643 112.957 50.8927 112.786 51.0725 112.661C51.2523 112.536 51.4674 112.473 51.7178 112.473C51.9715 112.473 52.1874 112.536 52.3656 112.663C52.5438 112.788 52.6626 112.959 52.722 113.174H52.7605C52.8359 112.962 52.9724 112.792 53.1698 112.666C53.3689 112.537 53.6041 112.473 53.8754 112.473C54.2205 112.473 54.5007 112.583 54.7158 112.803C54.9325 113.021 55.0408 113.331 55.0408 113.732V116.22H54.0175V113.935C54.0175 113.729 53.9629 113.575 53.8537 113.472C53.7445 113.37 53.6081 113.318 53.4444 113.318C53.2581 113.318 53.1129 113.378 53.0085 113.496C52.9042 113.614 52.852 113.769 52.852 113.961V116.22H51.8575V113.913C51.8575 113.732 51.8053 113.587 51.701 113.48C51.5982 113.372 51.4626 113.318 51.294 113.318C51.1801 113.318 51.0773 113.347 50.9858 113.405C50.8959 113.461 50.8245 113.541 50.7715 113.643C50.7185 113.744 50.692 113.863 50.692 114V116.22H49.6662ZM57.6723 116.292C57.2919 116.292 56.9644 116.215 56.6899 116.061C56.417 115.905 56.2067 115.685 56.059 115.401C55.9113 115.115 55.8375 114.777 55.8375 114.387C55.8375 114.007 55.9113 113.673 56.059 113.386C56.2067 113.098 56.4146 112.874 56.6827 112.714C56.9523 112.553 57.2686 112.473 57.6314 112.473C57.8754 112.473 58.1026 112.512 58.3129 112.591C58.5248 112.668 58.7094 112.784 58.8667 112.94C59.0256 113.096 59.1492 113.292 59.2375 113.528C59.3258 113.762 59.37 114.037 59.37 114.351V114.633H56.2468V113.997H58.4044C58.4044 113.85 58.3722 113.719 58.308 113.605C58.2438 113.491 58.1547 113.402 58.0407 113.337C57.9284 113.272 57.7975 113.239 57.6482 113.239C57.4925 113.239 57.3545 113.275 57.2341 113.347C57.1153 113.418 57.0222 113.513 56.9548 113.634C56.8873 113.752 56.8528 113.885 56.8512 114.031V114.635C56.8512 114.818 56.8849 114.977 56.9523 115.11C57.0214 115.243 57.1185 115.346 57.2437 115.418C57.3689 115.49 57.5174 115.526 57.6892 115.526C57.8032 115.526 57.9075 115.51 58.0022 115.478C58.0969 115.446 58.178 115.398 58.2454 115.334C58.3129 115.27 58.3642 115.191 58.3995 115.098L59.3483 115.16C59.3001 115.388 59.2014 115.587 59.0521 115.758C58.9044 115.926 58.7134 116.058 58.479 116.152C58.2462 116.246 57.9773 116.292 57.6723 116.292ZM60.175 116.22V112.521H61.1526V113.174H61.196C61.273 112.957 61.4015 112.786 61.5812 112.661C61.761 112.536 61.9762 112.473 62.2266 112.473C62.4802 112.473 62.6961 112.536 62.8743 112.663C63.0525 112.788 63.1713 112.959 63.2307 113.174H63.2692C63.3447 112.962 63.4811 112.792 63.6786 112.666C63.8777 112.537 64.1128 112.473 64.3841 112.473C64.7293 112.473 65.0094 112.583 65.2245 112.803C65.4412 113.021 65.5496 113.331 65.5496 113.732V116.22H64.5262V113.935C64.5262 113.729 64.4716 113.575 64.3625 113.472C64.2533 113.37 64.1168 113.318 63.9531 113.318C63.7669 113.318 63.6216 113.378 63.5173 113.496C63.4129 113.614 63.3607 113.769 63.3607 113.961V116.22H62.3662V113.913C62.3662 113.732 62.3141 113.587 62.2097 113.48C62.107 113.372 61.9713 113.318 61.8028 113.318C61.6888 113.318 61.5861 113.347 61.4946 113.405C61.4047 113.461 61.3332 113.541 61.2803 113.643C61.2273 113.744 61.2008 113.863 61.2008 114V116.22H60.175ZM66.5148 116.22V111.288H67.5406V113.142H67.5719C67.6168 113.043 67.6818 112.942 67.7669 112.839C67.8536 112.735 67.966 112.648 68.104 112.579C68.2437 112.508 68.4171 112.473 68.6241 112.473C68.8938 112.473 69.1427 112.544 69.3706 112.685C69.5986 112.825 69.7808 113.036 69.9172 113.318C70.0537 113.599 70.1219 113.952 70.1219 114.375C70.1219 114.788 70.0553 115.136 69.922 115.42C69.7904 115.703 69.6106 115.917 69.3827 116.063C69.1563 116.208 68.9027 116.28 68.6217 116.28C68.4227 116.28 68.2533 116.247 68.1137 116.181C67.9756 116.116 67.8624 116.033 67.7741 115.933C67.6858 115.832 67.6184 115.73 67.5719 115.627H67.5261V116.22H66.5148ZM67.5189 114.371C67.5189 114.59 67.5494 114.782 67.6104 114.946C67.6714 115.11 67.7597 115.237 67.8753 115.329C67.9908 115.419 68.1313 115.464 68.2967 115.464C68.4636 115.464 68.6049 115.418 68.7205 115.326C68.836 115.233 68.9235 115.105 68.9829 114.941C69.0439 114.776 69.0744 114.586 69.0744 114.371C69.0744 114.157 69.0447 113.969 68.9853 113.807C68.9259 113.645 68.8385 113.518 68.7229 113.427C68.6073 113.335 68.4652 113.289 68.2967 113.289C68.1297 113.289 67.9884 113.333 67.8729 113.422C67.7589 113.51 67.6714 113.635 67.6104 113.797C67.5494 113.96 67.5189 114.151 67.5189 114.371ZM72.6276 116.292C72.2471 116.292 71.9196 116.215 71.6451 116.061C71.3722 115.905 71.1619 115.685 71.0142 115.401C70.8665 115.115 70.7927 114.777 70.7927 114.387C70.7927 114.007 70.8665 113.673 71.0142 113.386C71.1619 113.098 71.3698 112.874 71.6379 112.714C71.9076 112.553 72.2238 112.473 72.5866 112.473C72.8307 112.473 73.0578 112.512 73.2681 112.591C73.48 112.668 73.6646 112.784 73.8219 112.94C73.9809 113.096 74.1045 113.292 74.1928 113.528C74.2811 113.762 74.3252 114.037 74.3252 114.351V114.633H71.2021V113.997H73.3596C73.3596 113.85 73.3275 113.719 73.2633 113.605C73.1991 113.491 73.11 113.402 72.996 113.337C72.8836 113.272 72.7528 113.239 72.6035 113.239C72.4478 113.239 72.3097 113.275 72.1893 113.347C72.0705 113.418 71.9774 113.513 71.91 113.634C71.8426 113.752 71.8081 113.885 71.8065 114.031V114.635C71.8065 114.818 71.8402 114.977 71.9076 115.11C71.9766 115.243 72.0737 115.346 72.199 115.418C72.3242 115.49 72.4727 115.526 72.6444 115.526C72.7584 115.526 72.8628 115.51 72.9575 115.478C73.0522 115.446 73.1333 115.398 73.2007 115.334C73.2681 115.27 73.3195 115.191 73.3548 115.098L74.3035 115.16C74.2554 115.388 74.1566 115.587 74.0073 115.758C73.8597 115.926 73.6686 116.058 73.4343 116.152C73.2015 116.246 72.9326 116.292 72.6276 116.292ZM75.1302 116.22V112.521H76.1247V113.167H76.1633C76.2307 112.937 76.3439 112.764 76.5028 112.646C76.6617 112.528 76.8447 112.468 77.0518 112.468C77.1032 112.468 77.1586 112.471 77.218 112.478C77.2773 112.484 77.3295 112.493 77.3745 112.504V113.415C77.3263 113.4 77.2597 113.387 77.1746 113.376C77.0895 113.365 77.0117 113.359 76.941 113.359C76.7901 113.359 76.6553 113.392 76.5365 113.458C76.4193 113.522 76.3262 113.612 76.2572 113.728C76.1897 113.843 76.156 113.976 76.156 114.127V116.22H75.1302ZM81.1178 113.576L80.1787 113.634C80.1627 113.553 80.1282 113.481 80.0752 113.417C80.0222 113.351 79.9524 113.299 79.8657 113.26C79.7806 113.22 79.6787 113.2 79.5599 113.2C79.401 113.2 79.2669 113.234 79.1577 113.301C79.0486 113.367 78.994 113.455 78.994 113.566C78.994 113.655 79.0293 113.729 79.1 113.79C79.1706 113.851 79.2918 113.9 79.4636 113.937L80.133 114.072C80.4926 114.146 80.7607 114.265 80.9372 114.428C81.1138 114.592 81.2021 114.807 81.2021 115.074C81.2021 115.316 81.1307 115.529 80.9878 115.712C80.8465 115.895 80.6523 116.038 80.4051 116.14C80.1595 116.242 79.8761 116.292 79.5551 116.292C79.0654 116.292 78.6753 116.19 78.3848 115.986C78.0958 115.781 77.9265 115.501 77.8767 115.148L78.8856 115.095C78.9161 115.245 78.99 115.359 79.1072 115.437C79.2244 115.514 79.3745 115.553 79.5575 115.553C79.7373 115.553 79.8817 115.518 79.9909 115.449C80.1017 115.379 80.1579 115.288 80.1595 115.177C80.1579 115.084 80.1185 115.008 80.0415 114.948C79.9644 114.887 79.8456 114.841 79.6851 114.809L79.0446 114.681C78.6834 114.609 78.4145 114.484 78.2379 114.306C78.0629 114.127 77.9754 113.9 77.9754 113.624C77.9754 113.386 78.0396 113.182 78.1681 113.01C78.2981 112.838 78.4803 112.706 78.7147 112.613C78.9507 112.52 79.2268 112.473 79.543 112.473C80.0102 112.473 80.3778 112.572 80.6459 112.769C80.9156 112.967 81.0729 113.236 81.1178 113.576Z" fill="#201F1F"/>
<rect x="0.855469" y="44.4969" width="58.7675" height="13.5617" rx="6.78086" fill="#E8E0FF"/>
<path d="M11.4846 48.5653H12.7704L14.1285 51.8787H14.1863L15.5444 48.5653H16.8303V53.4969H15.8189V50.287H15.778L14.5018 53.4728H13.8131L12.5368 50.275H12.4959V53.4969H11.4846V48.5653ZM19.4768 53.5691C19.1028 53.5691 18.7793 53.4896 18.5064 53.3307C18.2351 53.1702 18.0256 52.947 17.8779 52.6613C17.7302 52.3739 17.6564 52.0408 17.6564 51.662C17.6564 51.2799 17.7302 50.946 17.8779 50.6603C18.0256 50.3729 18.2351 50.1498 18.5064 49.9908C18.7793 49.8303 19.1028 49.75 19.4768 49.75C19.8508 49.75 20.1735 49.8303 20.4448 49.9908C20.7177 50.1498 20.928 50.3729 21.0757 50.6603C21.2234 50.946 21.2972 51.2799 21.2972 51.662C21.2972 52.0408 21.2234 52.3739 21.0757 52.6613C20.928 52.947 20.7177 53.1702 20.4448 53.3307C20.1735 53.4896 19.8508 53.5691 19.4768 53.5691ZM19.4816 52.7745C19.6518 52.7745 19.7939 52.7263 19.9078 52.63C20.0218 52.5321 20.1077 52.3988 20.1655 52.2303C20.2249 52.0617 20.2546 51.8699 20.2546 51.6548C20.2546 51.4396 20.2249 51.2478 20.1655 51.0792C20.1077 50.9107 20.0218 50.7774 19.9078 50.6795C19.7939 50.5816 19.6518 50.5326 19.4816 50.5326C19.3099 50.5326 19.1654 50.5816 19.0482 50.6795C18.9326 50.7774 18.8451 50.9107 18.7857 51.0792C18.7279 51.2478 18.699 51.4396 18.699 51.6548C18.699 51.8699 18.7279 52.0617 18.7857 52.2303C18.8451 52.3988 18.9326 52.5321 19.0482 52.63C19.1654 52.7263 19.3099 52.7745 19.4816 52.7745ZM23.4628 53.5571C23.1818 53.5571 22.9274 53.4848 22.6994 53.3403C22.4731 53.1943 22.2933 52.9799 22.1601 52.6974C22.0284 52.4133 21.9626 52.0649 21.9626 51.6523C21.9626 51.2285 22.0308 50.8762 22.1673 50.5952C22.3037 50.3127 22.4851 50.1016 22.7115 49.9619C22.9394 49.8207 23.1891 49.75 23.4604 49.75C23.6675 49.75 23.84 49.7854 23.9781 49.856C24.1177 49.925 24.2301 50.0117 24.3152 50.1161C24.4019 50.2188 24.4677 50.3199 24.5127 50.4195H24.544V48.5653H25.5673V53.4969H24.556V52.9045H24.5127C24.4645 53.0072 24.3963 53.1092 24.308 53.2103C24.2213 53.3098 24.1081 53.3925 23.9685 53.4583C23.8304 53.5241 23.6618 53.5571 23.4628 53.5571ZM23.7879 52.7408C23.9532 52.7408 24.0929 52.6958 24.2068 52.6059C24.3224 52.5144 24.4107 52.3868 24.4717 52.223C24.5343 52.0593 24.5656 51.8675 24.5656 51.6475C24.5656 51.4276 24.5351 51.2366 24.4741 51.0744C24.4131 50.9123 24.3248 50.7871 24.2092 50.6988C24.0937 50.6105 23.9532 50.5663 23.7879 50.5663C23.6193 50.5663 23.4772 50.6121 23.3616 50.7036C23.2461 50.7951 23.1586 50.9219 23.0992 51.0841C23.0398 51.2462 23.0101 51.434 23.0101 51.6475C23.0101 51.8626 23.0398 52.0529 23.0992 52.2182C23.1602 52.382 23.2477 52.5104 23.3616 52.6035C23.4772 52.695 23.6193 52.7408 23.7879 52.7408ZM28.2319 53.5691C27.8515 53.5691 27.524 53.492 27.2495 53.3379C26.9766 53.1822 26.7663 52.9623 26.6186 52.6781C26.4709 52.3924 26.3971 52.0545 26.3971 51.6644C26.3971 51.2839 26.4709 50.95 26.6186 50.6627C26.7663 50.3753 26.9742 50.1514 27.2423 49.9908C27.512 49.8303 27.8282 49.75 28.191 49.75C28.435 49.75 28.6622 49.7894 28.8725 49.868C29.0844 49.9451 29.269 50.0615 29.4263 50.2172C29.5852 50.3729 29.7088 50.5688 29.7971 50.8047C29.8854 51.0391 29.9296 51.3136 29.9296 51.6283V51.91H26.8064V51.2743H28.964C28.964 51.1266 28.9319 50.9958 28.8677 50.8818C28.8034 50.7678 28.7143 50.6787 28.6004 50.6145C28.488 50.5487 28.3572 50.5158 28.2079 50.5158C28.0521 50.5158 27.9141 50.5519 27.7937 50.6241C27.6749 50.6948 27.5818 50.7903 27.5144 50.9107C27.4469 51.0295 27.4124 51.1619 27.4108 51.308V51.9124C27.4108 52.0954 27.4445 52.2535 27.512 52.3868C27.581 52.52 27.6781 52.6228 27.8033 52.695C27.9285 52.7672 28.077 52.8034 28.2488 52.8034C28.3628 52.8034 28.4671 52.7873 28.5618 52.7552C28.6566 52.7231 28.7376 52.6749 28.805 52.6107C28.8725 52.5465 28.9238 52.4678 28.9592 52.3747L29.9079 52.4373C29.8597 52.6653 29.761 52.8644 29.6117 53.0345C29.464 53.2031 29.273 53.3347 29.0386 53.4294C28.8058 53.5225 28.537 53.5691 28.2319 53.5691ZM30.7346 53.4969V49.7982H31.7291V50.4435H31.7676C31.835 50.214 31.9482 50.0406 32.1071 49.9234C32.2661 49.8046 32.4491 49.7452 32.6562 49.7452C32.7075 49.7452 32.7629 49.7484 32.8223 49.7549C32.8817 49.7613 32.9339 49.7701 32.9788 49.7813V50.6916C32.9307 50.6771 32.8641 50.6643 32.779 50.653C32.6939 50.6418 32.616 50.6362 32.5454 50.6362C32.3945 50.6362 32.2597 50.6691 32.1409 50.7349C32.0237 50.7991 31.9306 50.889 31.8615 51.0046C31.7941 51.1202 31.7604 51.2534 31.7604 51.4043V53.4969H30.7346ZM34.5936 53.5667C34.3576 53.5667 34.1473 53.5258 33.9627 53.4439C33.7781 53.3604 33.632 53.2376 33.5244 53.0755C33.4185 52.9117 33.3655 52.7078 33.3655 52.4638C33.3655 52.2584 33.4032 52.0858 33.4787 51.9461C33.5541 51.8065 33.6569 51.6941 33.7869 51.609C33.9169 51.5239 34.0646 51.4597 34.23 51.4164C34.3969 51.373 34.5719 51.3425 34.7549 51.3249C34.97 51.3024 35.1434 51.2815 35.275 51.2623C35.4066 51.2414 35.5022 51.2109 35.5616 51.1708C35.621 51.1306 35.6507 51.0712 35.6507 50.9926V50.9781C35.6507 50.8256 35.6025 50.7076 35.5062 50.6241C35.4115 50.5407 35.2766 50.4989 35.1016 50.4989C34.917 50.4989 34.7701 50.5399 34.661 50.6217C34.5518 50.702 34.4796 50.8031 34.4443 50.9251L33.4955 50.8481C33.5437 50.6233 33.6384 50.4291 33.7797 50.2654C33.9209 50.1 34.1031 49.9732 34.3263 49.8849C34.551 49.795 34.8111 49.75 35.1065 49.75C35.3119 49.75 35.5086 49.7741 35.6964 49.8223C35.8858 49.8704 36.0536 49.9451 36.1997 50.0462C36.3474 50.1474 36.4638 50.2774 36.5488 50.4363C36.6339 50.5936 36.6765 50.7823 36.6765 51.0022V53.4969H35.7036V52.984H35.6747C35.6153 53.0995 35.5359 53.2015 35.4363 53.2898C35.3368 53.3765 35.2172 53.4447 35.0776 53.4944C34.9379 53.5426 34.7766 53.5667 34.5936 53.5667ZM34.8873 52.8587C35.0382 52.8587 35.1715 52.829 35.2871 52.7696C35.4026 52.7086 35.4933 52.6268 35.5592 52.524C35.625 52.4213 35.6579 52.3049 35.6579 52.1749V51.7824C35.6258 51.8032 35.5816 51.8225 35.5254 51.8402C35.4709 51.8562 35.4091 51.8715 35.34 51.8859C35.271 51.8988 35.202 51.9108 35.1329 51.922C35.0639 51.9317 35.0013 51.9405 34.9451 51.9485C34.8247 51.9662 34.7196 51.9943 34.6297 52.0328C34.5398 52.0713 34.4699 52.1235 34.4202 52.1893C34.3704 52.2535 34.3455 52.3338 34.3455 52.4301C34.3455 52.5698 34.3961 52.6765 34.4972 52.7504C34.6 52.8226 34.73 52.8587 34.8873 52.8587ZM39.5752 49.7982V50.5688H37.3478V49.7982H39.5752ZM37.8535 48.9121H38.8793V52.3603C38.8793 52.455 38.8938 52.5288 38.9227 52.5818C38.9516 52.6332 38.9917 52.6693 39.0431 52.6902C39.096 52.7111 39.157 52.7215 39.2261 52.7215C39.2742 52.7215 39.3224 52.7175 39.3705 52.7094C39.4187 52.6998 39.4556 52.6926 39.4813 52.6878L39.6426 53.4511C39.5913 53.4672 39.519 53.4856 39.4259 53.5065C39.3328 53.529 39.2196 53.5426 39.0864 53.5474C38.8392 53.5571 38.6225 53.5241 38.4363 53.4487C38.2516 53.3732 38.108 53.2561 38.0052 53.0971C37.9025 52.9382 37.8519 52.7375 37.8535 52.4951V48.9121ZM42.0105 53.5691C41.6364 53.5691 41.313 53.4896 41.04 53.3307C40.7687 53.1702 40.5593 52.947 40.4116 52.6613C40.2639 52.3739 40.19 52.0408 40.19 51.662C40.19 51.2799 40.2639 50.946 40.4116 50.6603C40.5593 50.3729 40.7687 50.1498 41.04 49.9908C41.313 49.8303 41.6364 49.75 42.0105 49.75C42.3845 49.75 42.7072 49.8303 42.9785 49.9908C43.2514 50.1498 43.4617 50.3729 43.6094 50.6603C43.757 50.946 43.8309 51.2799 43.8309 51.662C43.8309 52.0408 43.757 52.3739 43.6094 52.6613C43.4617 52.947 43.2514 53.1702 42.9785 53.3307C42.7072 53.4896 42.3845 53.5691 42.0105 53.5691ZM42.0153 52.7745C42.1854 52.7745 42.3275 52.7263 42.4415 52.63C42.5555 52.5321 42.6414 52.3988 42.6991 52.2303C42.7585 52.0617 42.7882 51.8699 42.7882 51.6548C42.7882 51.4396 42.7585 51.2478 42.6991 51.0792C42.6414 50.9107 42.5555 50.7774 42.4415 50.6795C42.3275 50.5816 42.1854 50.5326 42.0153 50.5326C41.8435 50.5326 41.699 50.5816 41.5818 50.6795C41.4663 50.7774 41.3788 50.9107 41.3194 51.0792C41.2616 51.2478 41.2327 51.4396 41.2327 51.6548C41.2327 51.8699 41.2616 52.0617 41.3194 52.2303C41.3788 52.3988 41.4663 52.5321 41.5818 52.63C41.699 52.7263 41.8435 52.7745 42.0153 52.7745ZM44.6335 53.4969V49.7982H45.628V50.4435H45.6665C45.734 50.214 45.8471 50.0406 46.0061 49.9234C46.165 49.8046 46.348 49.7452 46.5551 49.7452C46.6065 49.7452 46.6618 49.7484 46.7212 49.7549C46.7806 49.7613 46.8328 49.7701 46.8778 49.7813V50.6916C46.8296 50.6771 46.763 50.6643 46.6779 50.653C46.5928 50.6418 46.515 50.6362 46.4443 50.6362C46.2934 50.6362 46.1586 50.6691 46.0398 50.7349C45.9226 50.7991 45.8295 50.889 45.7605 51.0046C45.693 51.1202 45.6593 51.2534 45.6593 51.4043V53.4969H44.6335ZM50.6211 50.8529L49.682 50.9107C49.666 50.8304 49.6314 50.7582 49.5785 50.694C49.5255 50.6282 49.4557 50.576 49.369 50.5375C49.2839 50.4973 49.182 50.4773 49.0632 50.4773C48.9042 50.4773 48.7702 50.511 48.661 50.5784C48.5519 50.6442 48.4973 50.7325 48.4973 50.8433C48.4973 50.9316 48.5326 51.0062 48.6032 51.0672C48.6739 51.1282 48.7951 51.1772 48.9668 51.2141L49.6363 51.3489C49.9959 51.4228 50.2639 51.5416 50.4405 51.7053C50.6171 51.8691 50.7054 52.0842 50.7054 52.3507C50.7054 52.5931 50.634 52.8058 50.4911 52.9888C50.3498 53.1718 50.1556 53.3147 49.9084 53.4174C49.6627 53.5185 49.3794 53.5691 49.0583 53.5691C48.5687 53.5691 48.1786 53.4672 47.8881 53.2633C47.5991 53.0578 47.4298 52.7785 47.38 52.4253L48.3889 52.3723C48.4194 52.5216 48.4933 52.6356 48.6105 52.7143C48.7277 52.7913 48.8777 52.8298 49.0608 52.8298C49.2406 52.8298 49.385 52.7953 49.4942 52.7263C49.605 52.6557 49.6611 52.565 49.6627 52.4542C49.6611 52.3611 49.6218 52.2848 49.5448 52.2254C49.4677 52.1644 49.3489 52.1179 49.1884 52.0858L48.5479 51.9582C48.1867 51.8859 47.9178 51.7607 47.7412 51.5825C47.5662 51.4043 47.4787 51.1772 47.4787 50.9011C47.4787 50.6635 47.5429 50.4588 47.6714 50.287C47.8014 50.1153 47.9836 49.9828 48.218 49.8897C48.4539 49.7966 48.7301 49.75 49.0463 49.75C49.5135 49.75 49.8811 49.8488 50.1492 50.0462C50.4189 50.2437 50.5762 50.5126 50.6211 50.8529Z" fill="#201F1F"/>
</svg>
