<svg width="20" height="20" viewBox="0 0 20 20" fill="none" xmlns="http://www.w3.org/2000/svg">
<path d="M15 6.51243V12.8349C14.5234 12.5598 13.9693 12.4495 13.4237 12.5214C12.878 12.5932 12.3714 12.8431 11.9822 13.2322C11.5931 13.6214 11.3432 14.1281 11.2714 14.6737C11.1996 15.2193 11.3098 15.7734 11.585 16.25C11.8601 16.7266 12.2849 17.0991 12.7933 17.3097C13.3018 17.5203 13.8655 17.5572 14.3971 17.4148C14.9287 17.2723 15.3984 16.9585 15.7334 16.5218C16.0684 16.0852 16.25 15.5503 16.25 14.9999V2.40743C16.2502 2.24697 16.2118 2.08883 16.138 1.94635C16.0642 1.80387 15.9572 1.68124 15.826 1.58882C15.6949 1.49639 15.5434 1.43688 15.3844 1.41532C15.2254 1.39376 15.0635 1.41077 14.9125 1.46493L6.9125 4.32243C6.71856 4.39196 6.55084 4.5197 6.43225 4.68818C6.31367 4.85665 6.25002 5.05765 6.25 5.26368V14.0837C5.77344 13.8085 5.21942 13.6983 4.67383 13.7701C4.12825 13.8419 3.6216 14.0917 3.23245 14.4808C2.84329 14.8698 2.59337 15.3764 2.52145 15.922C2.44953 16.4675 2.55961 17.0216 2.83464 17.4982C3.10967 17.9749 3.53428 18.3474 4.04261 18.5582C4.55094 18.7689 5.11461 18.806 5.64619 18.6638C6.17778 18.5215 6.64758 18.2079 6.98275 17.7715C7.31793 17.335 7.49974 16.8002 7.5 16.2499V9.19118L15 6.51368V6.51243Z" fill="#0C6D49"/>
</svg>
