<svg width="20" height="20" viewBox="0 0 20 20" fill="none" xmlns="http://www.w3.org/2000/svg">
<path d="M14.2857 11.7646H17.6897C17.6525 11.8093 17.6153 11.8484 17.5781 11.8818C17.5409 11.9153 17.5074 11.9432 17.4777 11.9655L17.4442 12.0102L10.4911 18.7066C10.3571 18.8405 10.1934 18.9075 10 18.9075C9.80655 18.9075 9.64285 18.8405 9.50893 18.7066L2.54464 11.9879C2.50744 11.973 2.42931 11.8986 2.31027 11.7646H6.42857C6.59226 11.7646 6.73921 11.7144 6.86942 11.614C6.99963 11.5135 7.08333 11.3852 7.12053 11.2289L7.90178 8.09277L10.0223 15.537C10.067 15.6858 10.1525 15.8085 10.279 15.9053C10.4055 16.002 10.5506 16.0504 10.7143 16.0504C10.8705 16.0504 11.0119 16.002 11.1384 15.9053C11.2649 15.8085 11.3504 15.6858 11.3951 15.537L13.0246 10.124L13.6496 11.374C13.7835 11.6344 13.9955 11.7646 14.2857 11.7646ZM20 6.98786C20 8.06673 19.6168 9.1828 18.8504 10.3361H14.7321L13.4933 7.86956C13.4338 7.74307 13.3389 7.64262 13.2087 7.56822C13.0785 7.49381 12.9427 7.46405 12.8013 7.47893C12.4665 7.51614 12.2582 7.68727 12.1763 7.99233L10.7366 12.7914L8.54911 5.13518C8.50446 4.98637 8.41704 4.86361 8.28683 4.76688C8.15662 4.67015 8.00967 4.62179 7.84598 4.62179C7.68229 4.62179 7.5372 4.67201 7.41071 4.77246C7.28422 4.87291 7.20238 5.00126 7.16518 5.15751L5.87053 10.3361H1.14955C0.383184 9.1828 0 8.06673 0 6.98786C0 5.35096 0.47247 4.0712 1.41741 3.14858C2.36235 2.22596 3.66815 1.76465 5.33482 1.76465C5.79613 1.76465 6.26674 1.84463 6.74665 2.0046C7.22656 2.16457 7.67299 2.38035 8.08594 2.65193C8.49888 2.9235 8.85417 3.17834 9.15178 3.41643C9.4494 3.65453 9.73214 3.90751 10 4.17536C10.2679 3.90751 10.5506 3.65453 10.8482 3.41643C11.1458 3.17834 11.5011 2.9235 11.9141 2.65193C12.327 2.38035 12.7734 2.16457 13.2533 2.0046C13.7333 1.84463 14.2039 1.76465 14.6652 1.76465C16.3318 1.76465 17.6376 2.22596 18.5826 3.14858C19.5275 4.0712 20 5.35096 20 6.98786Z" fill="#0C6D49"/>
</svg>
