<svg width="20" height="20" viewBox="0 0 20 20" fill="none" xmlns="http://www.w3.org/2000/svg">
<path d="M5 13.75L2.5 16.2V10.1667C2.5 9.61438 2.94772 9.16667 3.5 9.16667H4C4.55228 9.16667 5 9.61438 5 10.1667V13.75ZM9.16667 12.2167L7.85833 11.1L6.66667 12.2V6.83333C6.66667 6.28105 7.11438 5.83333 7.66667 5.83333H8.16667C8.71895 5.83333 9.16667 6.28105 9.16667 6.83333V12.2167ZM13.3333 10.8333L10.8333 13.3333V3.5C10.8333 2.94771 11.281 2.5 11.8333 2.5H12.3333C12.8856 2.5 13.3333 2.94772 13.3333 3.5V10.8333ZM15.675 10.675C15.1184 10.1184 15.5126 9.16667 16.2998 9.16667H17.3333C17.8856 9.16667 18.3333 9.61438 18.3333 10.1667V11.2238C18.3333 12.0023 17.3921 12.3921 16.8417 11.8417L10.8333 17.8L7.94167 15.2833L4.79167 18.3333C3.95351 18.3333 3.53816 17.316 4.13681 16.7294L7.89167 13.05L10.8333 15.5333" fill="#0C6D49"/>
</svg>
