<svg width="20" height="20" viewBox="0 0 20 20" fill="none" xmlns="http://www.w3.org/2000/svg">
<g clip-path="url(#clip0_12694_101662)">
<path d="M16.5233 5.50991L11.9233 0.897414C11.6798 0.64642 11.3883 0.446875 11.0663 0.310608C10.7442 0.174341 10.398 0.104126 10.0483 0.104126C9.69858 0.104126 9.35242 0.174341 9.03034 0.310608C8.70826 0.446875 8.41682 0.64642 8.1733 0.897414L3.5608 5.50991L10.0233 8.73491L16.5233 5.50991ZM18.2883 7.37241L19.2008 8.28491C19.4534 8.52754 19.6543 8.81868 19.7916 9.14088C19.9288 9.46308 19.9996 9.80969 19.9996 10.1599C19.9996 10.5101 19.9288 10.8567 19.7916 11.1789C19.6543 11.5011 19.4534 11.7923 19.2008 12.0349L11.85 19.4582C11.6757 19.6365 11.4729 19.7844 11.25 19.8957V10.8974L18.2883 7.37241ZM1.7108 7.37241L0.798297 8.28491C0.545735 8.52754 0.344793 8.81868 0.207529 9.14088C0.0702663 9.46308 -0.000488281 9.80969 -0.000488281 10.1599C-0.000488281 10.5101 0.0702663 10.8567 0.207529 11.1789C0.344793 11.5011 0.545735 11.7923 0.798297 12.0349L8.14996 19.4582C8.32496 19.6366 8.52746 19.7849 8.74996 19.8957V10.8974L1.7108 7.37241Z" fill="#0C6D49"/>
</g>
<defs>
<clipPath id="clip0_12694_101662">
<rect width="20" height="20" fill="white"/>
</clipPath>
</defs>
</svg>
