<svg width="20" height="20" viewBox="0 0 20 20" fill="none" xmlns="http://www.w3.org/2000/svg">
<path d="M3 2C1.89543 2 1 2.89543 1 4V15C1 16.1046 1.89543 17 3 17H5C6.85398 17.0386 8.63082 17.7494 10 19C11.3692 17.7494 13.146 17.0386 15 17H17C18.1046 17 19 16.1046 19 15V4C19 2.89543 18.1046 2 17 2H15C13.146 2.03862 11.3692 2.74936 10 4C8.63082 2.74936 6.85398 2.03862 5 2H3ZM2.5 3.5H5C8 3.5 9 5 9 5V16.5C8.15942 15.8047 7.08964 15.4481 6 15.5H2.5V3.5Z" fill="#0C6D49"/>
<path d="M9 3.5H11V4.5H9V3.5Z" fill="#0C6D49"/>
</svg>
