<svg width="168" height="100" viewBox="0 0 168 100" fill="none" xmlns="http://www.w3.org/2000/svg">
<path d="M36.001 33H69.7602V66H36.001V33Z" fill="white"/>
<path d="M92.0972 37.4845V50.0002H90.6125V40.8034C90.6125 40.6811 90.6154 40.5501 90.6212 40.4103C90.6328 40.2706 90.6445 40.1279 90.6561 39.9824L86.359 47.808C86.2251 48.07 86.0213 48.201 85.7477 48.201H85.5031C85.2294 48.201 85.0257 48.07 84.8917 47.808L80.5073 39.9474C80.5422 40.256 80.5597 40.5413 80.5597 40.8034V50.0002H79.075V37.4845H80.3239C80.4753 37.4845 80.5917 37.499 80.6733 37.5281C80.7548 37.5573 80.8334 37.6388 80.9091 37.7727L85.2324 45.476C85.3022 45.6157 85.3692 45.7613 85.4332 45.9127C85.5031 46.0641 85.5672 46.2184 85.6254 46.3756C85.6836 46.2184 85.7448 46.0641 85.8088 45.9127C85.8728 45.7555 85.9427 45.607 86.0184 45.4673L90.2631 37.7727C90.333 37.6388 90.4087 37.5573 90.4902 37.5281C90.5775 37.499 90.6969 37.4845 90.8483 37.4845H92.0972Z" fill="white"/>
<path d="M101.245 45.3537L99.2802 40.2619C99.222 40.1105 99.1608 39.9358 99.0968 39.7378C99.0327 39.534 98.9716 39.3186 98.9134 39.0915C98.7911 39.5631 98.6659 39.9562 98.5378 40.2706L96.5727 45.3537H101.245ZM104.774 50.0002H103.464C103.312 50.0002 103.19 49.9623 103.097 49.8866C103.004 49.8109 102.934 49.7149 102.887 49.5984L101.717 46.5765H96.101L94.9307 49.5984C94.8958 49.7032 94.8288 49.7964 94.7298 49.8779C94.6308 49.9594 94.5086 50.0002 94.363 50.0002H93.0529L98.0574 37.4845H99.7693L104.774 50.0002Z" fill="white"/>
<path d="M115.564 43.9825V48.7862C114.935 49.2403 114.262 49.5809 113.546 49.808C112.836 50.0293 112.056 50.1399 111.206 50.1399C110.198 50.1399 109.29 49.9856 108.481 49.677C107.671 49.3626 106.978 48.9259 106.402 48.3669C105.831 47.8021 105.392 47.1267 105.083 46.3407C104.774 45.5546 104.62 44.6899 104.62 43.7467C104.62 42.7918 104.769 41.9213 105.066 41.1352C105.368 40.3492 105.796 39.6767 106.349 39.1177C106.903 38.5529 107.575 38.1162 108.367 37.8076C109.159 37.499 110.044 37.3447 111.022 37.3447C111.517 37.3447 111.977 37.3826 112.402 37.4583C112.827 37.5281 113.22 37.6329 113.581 37.7727C113.942 37.9066 114.277 38.0726 114.586 38.2705C114.894 38.4627 115.182 38.681 115.45 38.9256L114.97 39.6941C114.894 39.8106 114.795 39.8863 114.673 39.9212C114.556 39.9503 114.425 39.9212 114.28 39.8339C114.14 39.7524 113.98 39.6534 113.799 39.5369C113.619 39.4205 113.398 39.3099 113.136 39.2051C112.88 39.0944 112.574 39.0013 112.219 38.9256C111.869 38.8499 111.453 38.812 110.97 38.812C110.265 38.812 109.628 38.9285 109.057 39.1614C108.486 39.3885 108 39.7174 107.598 40.1483C107.197 40.5734 106.888 41.0916 106.673 41.703C106.457 42.3085 106.349 42.9897 106.349 43.7467C106.349 44.5327 106.46 45.2373 106.681 45.8603C106.908 46.4775 107.229 47.0044 107.642 47.4411C108.061 47.872 108.568 48.201 109.162 48.4281C109.756 48.6551 110.422 48.7687 111.162 48.7687C111.744 48.7687 112.259 48.7046 112.708 48.5765C113.162 48.4426 113.604 48.2592 114.035 48.0263V45.2751H112.088C111.977 45.2751 111.887 45.2431 111.817 45.179C111.753 45.115 111.721 45.0364 111.721 44.9432V43.9825H115.564Z" fill="white"/>
<path d="M119.153 50.0002H117.458V37.4845H119.153V50.0002Z" fill="white"/>
<path d="M130.442 47.4149C130.535 47.4149 130.617 47.4528 130.686 47.5285L131.359 48.2534C130.847 48.8473 130.223 49.3102 129.49 49.6421C128.762 49.974 127.88 50.1399 126.843 50.1399C125.947 50.1399 125.132 49.9856 124.398 49.677C123.664 49.3626 123.038 48.9259 122.52 48.3669C122.002 47.8021 121.6 47.1267 121.315 46.3407C121.03 45.5546 120.887 44.6899 120.887 43.7467C120.887 42.8034 121.035 41.9388 121.332 41.1527C121.629 40.3667 122.046 39.6912 122.581 39.1264C123.123 38.5617 123.769 38.125 124.52 37.8164C125.271 37.5019 126.101 37.3447 127.009 37.3447C127.9 37.3447 128.686 37.4874 129.368 37.7727C130.049 38.058 130.649 38.4452 131.167 38.9343L130.608 39.7116C130.573 39.7698 130.526 39.8193 130.468 39.8601C130.416 39.895 130.343 39.9125 130.25 39.9125C130.145 39.9125 130.017 39.8572 129.865 39.7466C129.714 39.6301 129.516 39.502 129.271 39.3623C129.027 39.2225 128.721 39.0973 128.354 38.9867C127.988 38.8703 127.536 38.812 127.001 38.812C126.354 38.812 125.763 38.9256 125.228 39.1526C124.692 39.3739 124.229 39.6971 123.839 40.1221C123.455 40.5472 123.155 41.0654 122.939 41.6767C122.724 42.2881 122.616 42.9781 122.616 43.7467C122.616 44.5269 122.727 45.2227 122.948 45.8341C123.175 46.4455 123.481 46.9637 123.865 47.3887C124.255 47.808 124.712 48.1282 125.236 48.3495C125.766 48.5707 126.337 48.6813 126.948 48.6813C127.321 48.6813 127.656 48.661 127.953 48.6202C128.255 48.5736 128.532 48.5038 128.782 48.4106C129.039 48.3174 129.274 48.201 129.49 48.0612C129.711 47.9157 129.929 47.7439 130.145 47.5459C130.244 47.4586 130.343 47.4149 130.442 47.4149Z" fill="white"/>
<path d="M80.5383 60.2536C80.7777 60.2536 80.9864 60.2245 81.1643 60.1663C81.3422 60.1048 81.4894 60.0191 81.6058 59.9091C81.7255 59.7959 81.8145 59.66 81.8727 59.5015C81.9309 59.3398 81.96 59.1602 81.96 58.9629C81.96 58.7753 81.9309 58.6055 81.8727 58.4534C81.8145 58.3014 81.7271 58.172 81.6107 58.0653C81.4942 57.9585 81.347 57.8777 81.1691 57.8227C80.9912 57.7644 80.7809 57.7353 80.5383 57.7353H79.563V60.2536H80.5383ZM80.5383 56.7261C81.0074 56.7261 81.4133 56.7811 81.7562 56.891C82.0991 57.001 82.3822 57.1547 82.6054 57.352C82.8286 57.5493 82.9935 57.7855 83.1003 58.0604C83.2103 58.3354 83.2653 58.6362 83.2653 58.9629C83.2653 59.3026 83.2086 59.6147 83.0954 59.8994C82.9822 60.1808 82.8124 60.4234 82.586 60.6272C82.3595 60.831 82.0749 60.9895 81.732 61.1027C81.3923 61.216 80.9944 61.2726 80.5383 61.2726H79.563V63.7423H78.2578V56.7261H80.5383Z" fill="white"/>
<path d="M91.9278 60.2342C91.9278 60.7485 91.842 61.2257 91.6706 61.6656C91.5024 62.1023 91.263 62.4808 90.9525 62.801C90.6419 63.1212 90.2683 63.3719 89.8316 63.5531C89.3949 63.731 88.9097 63.82 88.376 63.82C87.8455 63.82 87.3619 63.731 86.9252 63.5531C86.4885 63.3719 86.1132 63.1212 85.7995 62.801C85.4889 62.4808 85.2479 62.1023 85.0765 61.6656C84.905 61.2257 84.8193 60.7485 84.8193 60.2342C84.8193 59.7199 84.905 59.2444 85.0765 58.8077C85.2479 58.3677 85.4889 57.9876 85.7995 57.6674C86.1132 57.3472 86.4885 57.0981 86.9252 56.9202C87.3619 56.739 87.8455 56.6484 88.376 56.6484C88.7318 56.6484 89.0666 56.6905 89.3804 56.7746C89.6941 56.8555 89.982 56.9719 90.244 57.124C90.5061 57.2728 90.7406 57.4555 90.9476 57.6722C91.1579 57.8857 91.3358 58.1251 91.4813 58.3904C91.6269 58.6556 91.7369 58.9435 91.8113 59.2541C91.8889 59.5646 91.9278 59.8913 91.9278 60.2342ZM90.5934 60.2342C90.5934 59.8493 90.5416 59.5048 90.4381 59.2007C90.3346 58.8934 90.1874 58.633 89.9966 58.4195C89.8057 58.206 89.5728 58.0426 89.2979 57.9294C89.0261 57.8162 88.7188 57.7596 88.376 57.7596C88.0331 57.7596 87.7242 57.8162 87.4492 57.9294C87.1775 58.0426 86.9446 58.206 86.7505 58.4195C86.5596 58.633 86.4124 58.8934 86.3089 59.2007C86.2054 59.5048 86.1537 59.8493 86.1537 60.2342C86.1537 60.6191 86.2054 60.9653 86.3089 61.2726C86.4124 61.5766 86.5596 61.8354 86.7505 62.0489C86.9446 62.2592 87.1775 62.4209 87.4492 62.5341C87.7242 62.6473 88.0331 62.704 88.376 62.704C88.7188 62.704 89.0261 62.6473 89.2979 62.5341C89.5728 62.4209 89.8057 62.2592 89.9966 62.0489C90.1874 61.8354 90.3346 61.5766 90.4381 61.2726C90.5416 60.9653 90.5934 60.6191 90.5934 60.2342Z" fill="white"/>
<path d="M103.238 56.7261L101.059 63.7423H99.8802L98.3469 58.9484C98.3048 58.8319 98.266 58.6896 98.2304 58.5214C98.211 58.6022 98.1916 58.6783 98.1722 58.7494C98.1528 58.8206 98.1318 58.8869 98.1091 58.9484L96.5613 63.7423H95.3773L93.2036 56.7261H94.2953C94.4085 56.7261 94.5023 56.7536 94.5767 56.8086C94.6544 56.8603 94.7061 56.9315 94.732 57.0221L95.9256 61.2192C95.9515 61.3227 95.9758 61.4359 95.9984 61.5588C96.0243 61.6785 96.0502 61.8047 96.0761 61.9373C96.1019 61.8014 96.1294 61.6737 96.1585 61.554C96.1909 61.4343 96.2249 61.3227 96.2604 61.2192L97.6385 57.0221C97.6643 56.9477 97.7145 56.8797 97.7889 56.8183C97.8665 56.7568 97.9603 56.7261 98.0703 56.7261H98.4536C98.5668 56.7261 98.659 56.7536 98.7302 56.8086C98.8014 56.8636 98.8547 56.9347 98.8903 57.0221L100.263 61.2192C100.331 61.4197 100.393 61.651 100.448 61.913C100.49 61.6575 100.537 61.4262 100.589 61.2192L101.782 57.0221C101.802 56.9412 101.85 56.8716 101.928 56.8134C102.009 56.7552 102.104 56.7261 102.214 56.7261H103.238Z" fill="white"/>
<path d="M106.38 57.7644V59.7102H108.835V60.7146H106.38V62.6991H109.495V63.7423H105.07V56.7261H109.495V57.7644H106.38Z" fill="white"/>
<path d="M113.743 60.0644C113.988 60.0644 114.202 60.0336 114.383 59.9722C114.567 59.9107 114.718 59.8266 114.834 59.7199C114.954 59.6099 115.043 59.4805 115.101 59.3317C115.159 59.1829 115.189 59.0195 115.189 58.8416C115.189 58.4858 115.07 58.2125 114.834 58.0216C114.601 57.8308 114.244 57.7353 113.762 57.7353H112.927V60.0644H113.743ZM117.1 63.7423H115.921C115.698 63.7423 115.536 63.655 115.436 63.4803L113.961 61.2337C113.906 61.1496 113.844 61.0898 113.777 61.0542C113.712 61.0186 113.615 61.0008 113.485 61.0008H112.927V63.7423H111.622V56.7261H113.762C114.238 56.7261 114.645 56.7762 114.985 56.8765C115.328 56.9735 115.607 57.111 115.824 57.2889C116.044 57.4668 116.206 57.6803 116.309 57.9294C116.413 58.1753 116.465 58.447 116.465 58.7446C116.465 58.9807 116.429 59.2039 116.358 59.4142C116.29 59.6244 116.19 59.8153 116.057 59.9867C115.928 60.1582 115.766 60.3086 115.572 60.438C115.381 60.5674 115.163 60.6693 114.917 60.7437C115.001 60.7922 115.079 60.8504 115.15 60.9184C115.221 60.983 115.286 61.0607 115.344 61.1513L117.1 63.7423Z" fill="white"/>
<path d="M120.139 57.7644V59.7102H122.594V60.7146H120.139V62.6991H123.254V63.7423H118.828V56.7261H123.254V57.7644H120.139Z" fill="white"/>
<path d="M131.611 60.2342C131.611 60.7485 131.525 61.2208 131.354 61.651C131.182 62.0813 130.941 62.4516 130.631 62.7622C130.32 63.0727 129.947 63.3137 129.51 63.4852C129.073 63.6566 128.588 63.7423 128.054 63.7423H125.381V56.7261H128.054C128.588 56.7261 129.073 56.8134 129.51 56.9881C129.947 57.1595 130.32 57.4005 130.631 57.7111C130.941 58.0184 131.182 58.3871 131.354 58.8174C131.525 59.2476 131.611 59.7199 131.611 60.2342ZM130.272 60.2342C130.272 59.8493 130.22 59.5048 130.116 59.2007C130.016 58.8934 129.869 58.6346 129.675 58.4243C129.484 58.2108 129.251 58.0475 128.976 57.9343C128.704 57.821 128.397 57.7644 128.054 57.7644H126.691V62.704H128.054C128.397 62.704 128.704 62.6473 128.976 62.5341C129.251 62.4209 129.484 62.2592 129.675 62.0489C129.869 61.8354 130.016 61.5766 130.116 61.2726C130.22 60.9653 130.272 60.6191 130.272 60.2342Z" fill="white"/>
</svg>
