<svg width="150" height="67" viewBox="0 0 150 67" fill="none" xmlns="http://www.w3.org/2000/svg">
<path d="M104.781 22.1126C107.904 20.3599 109.384 18.2337 108.735 15.8138C108.108 13.4749 105.495 12.3869 101.965 12.6241C100.176 12.7376 97.5018 13.297 94.7045 14.0466L85.2103 16.5905C85.1384 16.6098 85.074 16.6447 85.031 16.6875C84.9881 16.7304 84.9702 16.7777 84.9812 16.819L86.243 21.528C86.243 21.528 86.9892 24.3129 91.8257 23.0169C91.8257 23.0169 86.9892 24.3129 87.7354 27.0977L89.41 33.3472C89.421 33.3886 89.4602 33.4206 89.5188 33.4363C89.5774 33.4519 89.6507 33.4499 89.7225 33.4306L95.8047 31.8009C95.8765 31.7817 95.941 31.7468 95.9839 31.7039C96.0269 31.6611 96.0448 31.6138 96.0337 31.5724L94.4515 25.6675L98.6462 24.5435L106.242 28.9207C106.272 28.9379 106.311 28.9484 106.356 28.9511C106.4 28.9539 106.449 28.9487 106.496 28.9362L113.168 27.1483C113.216 27.1355 113.26 27.1157 113.297 27.091C113.335 27.0662 113.363 27.0375 113.381 27.0075C113.398 26.9775 113.403 26.9473 113.396 26.9201C113.388 26.8928 113.369 26.8693 113.339 26.852L104.781 22.1126ZM100.741 20.2838C99.875 20.7782 98.4496 21.232 96.4917 21.7566L93.6104 22.5287L92.4406 18.1627L95.2 17.4233C96.7707 17.0025 98.3243 16.6915 99.3951 16.6151C100.917 16.5215 101.844 16.9281 102.093 17.8559C102.355 18.8336 101.957 19.5686 100.741 20.2838Z" fill="white"/>
<path d="M56.3543 24.4894L57.1815 27.5768C57.1926 27.6181 57.2318 27.6501 57.2904 27.6658C57.349 27.6814 57.4223 27.6794 57.4941 27.6601L70.4654 24.1845C65.6289 25.4804 66.3751 28.2653 66.3751 28.2653L69.1886 38.7654C69.1997 38.8067 69.2388 38.8388 69.2975 38.8544C69.3561 38.87 69.4294 38.868 69.5012 38.8487L75.5427 37.2299C75.6145 37.2107 75.679 37.1758 75.722 37.133C75.7649 37.0901 75.7828 37.0428 75.7717 37.0014L72.2116 23.7149L80.6064 21.4656C80.6782 21.4463 80.7427 21.4114 80.7856 21.3686C80.8286 21.3257 80.8465 21.2784 80.8354 21.2371L80.0086 18.1513C79.9975 18.1099 79.9583 18.0779 79.8997 18.0623C79.8411 18.0466 79.7678 18.0487 79.696 18.0679L56.5833 24.2609C56.5115 24.2802 56.447 24.3151 56.4041 24.3579C56.3611 24.4008 56.3432 24.4481 56.3543 24.4894Z" fill="white"/>
<path d="M47.1101 34.1025L43.034 34.456C40.0342 34.7316 39.3533 34.4111 39.162 33.6969C38.9242 32.8097 39.5886 31.8662 43.0657 30.9346C46.0201 30.1429 50.2199 29.7312 52.8094 30.3292L52.98 30.2835L51.9702 26.5147C51.9645 26.4919 51.9501 26.4715 51.9282 26.4552C51.9063 26.4388 51.8773 26.4268 51.8432 26.4201C49.9852 26.0823 45.7482 26.626 42.8533 27.4017C35.0246 29.4994 31.6969 32.8193 32.4824 35.7507C33.1425 38.2144 35.8212 39.3183 41.1339 38.7922L44.979 38.422C48.0561 38.0989 49.4954 38.1628 49.7461 39.0983C50.0895 40.3801 48.4704 41.1832 45.5593 41.9633C42.7647 42.7121 38.6596 43.2388 35.3378 42.7568C35.2854 42.75 35.226 42.755 35.1682 42.771C35.1104 42.7871 35.0573 42.8133 35.0166 42.8459C34.976 42.8785 34.95 42.9157 34.9424 42.9521C34.9348 42.9885 34.9461 43.0221 34.9746 43.048L39.0705 46.6032C39.0907 46.6208 39.1185 46.6342 39.1518 46.6423C39.1851 46.6505 39.2231 46.6531 39.2631 46.6502C41.5367 46.4817 43.8564 46.0858 46.1352 45.4773C54.6924 43.1844 57.1583 39.7244 56.4258 36.991C55.762 34.5567 53.4772 33.5579 47.1101 34.1025Z" fill="white"/>
<path d="M33.5154 48.2661L17.9217 34.7295C17.8938 34.7059 17.8524 34.6903 17.8028 34.6849C17.7532 34.6794 17.6977 34.6842 17.6435 34.6988L11.602 36.3176C11.5477 36.3321 11.4972 36.3557 11.457 36.3852C11.4168 36.4148 11.3888 36.4489 11.3765 36.4833L4.64015 56.0032C4.63119 56.0308 4.63279 56.0575 4.6448 56.081C4.65681 56.1044 4.67888 56.124 4.70914 56.138C4.7394 56.1521 4.77694 56.1602 4.8186 56.1616C4.86025 56.163 4.90478 56.1578 4.9484 56.1463L11.3338 54.4353C11.3878 54.4204 11.4378 54.3966 11.4775 54.3669C11.5171 54.3372 11.5445 54.303 11.5562 54.2687L12.9839 50.0106L12.9814 50.0013L15.7747 40.4087L20.3428 44.556C14.2065 46.2002 13.0525 49.7683 12.9814 50.0013L12.9839 50.0106L23.0874 47.3034L26.4529 50.2772C26.4801 50.301 26.521 50.3169 26.5701 50.3228C26.6193 50.3287 26.6745 50.3243 26.7287 50.3102L33.3254 48.5427C33.3683 48.5304 33.4088 48.5126 33.4434 48.4905C33.478 48.4684 33.5057 48.4428 33.5243 48.4157C33.5429 48.3886 33.5518 48.361 33.5503 48.3349C33.5487 48.3089 33.5368 48.2853 33.5154 48.2661Z" fill="white"/>
<path d="M125.961 5.16972C122.908 5.98773 120.063 7.30863 117.787 8.96539C115.51 10.6222 113.904 12.5404 113.17 14.4774C112.437 16.4145 112.611 18.2835 113.668 19.8479C114.726 21.4124 116.62 22.6022 119.112 23.2667C121.604 23.9313 124.581 24.0408 127.667 23.5815C130.753 23.1221 133.809 22.1145 136.45 20.6861C139.09 19.2576 141.195 17.4725 142.5 15.5564C143.804 13.6404 144.249 11.6794 143.778 9.9216C143.146 7.56441 140.914 5.7395 137.573 4.84835C134.232 3.9572 130.055 4.0728 125.961 5.16972ZM130.327 21.4625C129.8 19.4986 127.941 17.9782 125.157 17.2357C122.373 16.4932 118.893 16.5895 115.482 17.5034C118.893 16.5895 121.955 14.9329 123.995 12.898C126.034 10.863 126.885 8.6165 126.358 6.65258C126.885 8.6165 128.744 10.1369 131.528 10.8794C134.312 11.6219 137.792 11.5256 141.203 10.6117C137.792 11.5256 134.73 13.1822 132.69 15.2171C130.651 17.2521 129.8 19.4986 130.327 21.4625Z" fill="white"/>
<path d="M90.0563 39.0424L91.127 43.0383C91.1307 43.0535 91.124 43.0707 91.1082 43.0863C91.0925 43.102 91.0691 43.1148 91.0429 43.122L90.3191 43.3159C90.153 43.3605 89.9831 43.3805 89.825 43.374C89.6669 43.3675 89.5256 43.3347 89.414 43.2787L85.3482 41.2437L85.851 42.6695L86.2966 44.3326C86.3003 44.3478 86.2936 44.365 86.2778 44.3806C86.2621 44.3963 86.2387 44.4091 86.2125 44.4163L85.2554 44.6728C85.2291 44.6796 85.2024 44.6802 85.1809 44.6746C85.1595 44.6689 85.1451 44.6573 85.1407 44.6423L84.07 40.6464C84.0663 40.6313 84.073 40.614 84.0887 40.5984C84.1044 40.5827 84.1279 40.57 84.1541 40.5627L84.8739 40.3699C85.0398 40.3254 85.2095 40.3055 85.3675 40.3119C85.5255 40.3183 85.6669 40.3508 85.7788 40.4064L89.8434 42.4368L89.3526 41.0134L88.907 39.3504C88.903 39.3352 88.9095 39.3179 88.9253 39.3022C88.9411 39.2865 88.9648 39.2737 88.9911 39.2666L89.9482 39.0102C89.9736 39.0046 89.9988 39.0048 90.0188 39.0108C90.0388 39.0167 90.0522 39.028 90.0563 39.0424Z" fill="white"/>
<path d="M100.923 40.4749L99.9107 40.7463C99.8949 40.7505 99.8787 40.7524 99.8636 40.7519C99.8484 40.7514 99.8348 40.7485 99.8237 40.7435C99.8126 40.7385 99.8045 40.7315 99.7999 40.7231C99.7954 40.7146 99.7945 40.705 99.7975 40.6951L101.414 35.997C101.421 35.9773 101.438 35.9577 101.461 35.9409C101.485 35.9241 101.514 35.9109 101.545 35.9032L102.814 35.5632C102.844 35.5553 102.875 35.5528 102.902 35.5559C102.93 35.559 102.952 35.5677 102.968 35.5807L106.709 38.8431C106.717 38.8503 106.721 38.859 106.721 38.8686C106.721 38.8781 106.718 38.8883 106.711 38.8982C106.704 38.908 106.693 38.9174 106.68 38.9254C106.667 38.9333 106.652 38.9398 106.637 38.9441L105.624 39.2155C105.604 39.2209 105.583 39.2228 105.564 39.2208C105.546 39.2188 105.53 39.213 105.52 39.2041L102.481 36.5106C102.471 36.5015 102.456 36.4954 102.437 36.4931C102.419 36.4909 102.398 36.4926 102.378 36.4981C102.357 36.5035 102.338 36.5125 102.323 36.5237C102.308 36.5349 102.298 36.5478 102.294 36.5607L101.009 40.4128C101.004 40.4258 100.994 40.4387 100.979 40.4498C100.963 40.4609 100.944 40.4697 100.923 40.4749Z" fill="white"/>
<path d="M113.734 36.9436L111.326 36.0069C112.429 35.5792 112.975 34.9613 112.794 34.2862C112.587 33.5106 111.566 33.2179 110.011 33.6346L107.205 34.3865C107.166 34.397 107.13 34.4161 107.107 34.4396C107.083 34.463 107.073 34.4889 107.079 34.5115C107.099 34.5835 107.143 34.6481 107.208 34.7018C107.274 34.7554 107.361 34.797 107.463 34.8241C107.565 34.8513 107.681 34.8634 107.804 34.8599C107.927 34.8565 108.055 34.8374 108.181 34.8038L110.064 34.2991C111.004 34.0472 111.529 34.2028 111.636 34.6016C111.743 35.0004 111.379 35.4045 110.429 35.6592L107.739 36.3799C107.7 36.3906 107.664 36.4099 107.641 36.4335C107.617 36.457 107.608 36.483 107.614 36.5056L108.144 38.4846C108.148 38.4997 108.162 38.5114 108.184 38.5171C108.206 38.5228 108.232 38.5221 108.259 38.515L109.216 38.2586C109.242 38.2513 109.266 38.2385 109.281 38.2229C109.297 38.2073 109.304 38.19 109.3 38.1748L108.903 36.6945L110.008 36.3986L112.104 37.2392C112.216 37.2841 112.352 37.3085 112.5 37.3103C112.649 37.3122 112.806 37.2915 112.959 37.2498L113.686 37.0552C113.704 37.0498 113.72 37.0416 113.734 37.0317C113.747 37.0218 113.757 37.0105 113.762 36.999C113.767 36.9875 113.767 36.9763 113.762 36.9665C113.757 36.9567 113.747 36.9488 113.734 36.9436Z" fill="white"/>
<path d="M96.794 37.1765L92.3533 38.3663C92.3181 38.3758 92.2865 38.3928 92.2655 38.4137C92.2445 38.4347 92.2357 38.4578 92.2411 38.478C92.2807 38.6259 92.4211 38.7404 92.6314 38.7962C92.8416 38.852 93.1045 38.8446 93.3622 38.7755L96.9638 37.8105C96.977 37.8071 96.9896 37.8022 97.001 37.7961C97.0124 37.79 97.0223 37.7828 97.0301 37.775C97.038 37.7672 97.0436 37.7589 97.0466 37.7506C97.0497 37.7423 97.0502 37.7342 97.048 37.7267L96.9087 37.2069C96.9046 37.1918 96.8902 37.1801 96.8687 37.1743C96.8472 37.1686 96.8203 37.1694 96.794 37.1765ZM97.7254 40.6525L94.4114 41.5405C94.3851 41.5473 94.3584 41.5479 94.3369 41.5423C94.3155 41.5366 94.3011 41.525 94.2967 41.51L94.0206 40.4795C94.0165 40.4643 94.0231 40.447 94.0389 40.4313C94.0546 40.4156 94.0783 40.4028 94.1047 40.3957L97.1681 39.5749C97.1945 39.5678 97.2181 39.555 97.2339 39.5393C97.2497 39.5236 97.2563 39.5063 97.2522 39.4912L97.1119 38.9675C97.1078 38.9524 97.0935 38.9407 97.072 38.935C97.0505 38.9293 97.0236 38.93 96.9972 38.9371L92.8229 40.0556C92.7835 40.0664 92.7482 40.0856 92.7247 40.1092C92.7012 40.1327 92.6914 40.1587 92.6975 40.1814L93.2983 42.4236C93.3044 42.4462 93.3258 42.4637 93.358 42.4722C93.3901 42.4808 93.4303 42.4796 93.4696 42.4691L97.8944 41.2835C97.9208 41.2764 97.9445 41.2636 97.9602 41.2479C97.976 41.2322 97.9826 41.2149 97.9785 41.1997L97.8392 40.6799C97.8343 40.6655 97.8196 40.6546 97.7983 40.6495C97.777 40.6443 97.7509 40.6454 97.7254 40.6525Z" fill="white"/>
<path d="M76.6457 41.4792L74.7206 44.2735C74.6884 44.315 74.68 44.3584 74.697 44.3948C74.7141 44.4313 74.7554 44.4581 74.8126 44.47C74.8697 44.4819 74.9386 44.4778 75.0053 44.4588C75.0719 44.4397 75.1315 44.4069 75.1719 44.3671L77.3006 42.4915C77.3127 42.4803 77.3291 42.4707 77.3476 42.4638C77.3661 42.457 77.3859 42.4533 77.4046 42.4531C77.4233 42.453 77.4401 42.4564 77.4529 42.463C77.4656 42.4695 77.4738 42.479 77.4764 42.4901L78.502 46.3178C78.5049 46.3295 78.5016 46.3425 78.4924 46.3551C78.4833 46.3677 78.4687 46.3793 78.4508 46.3884C78.4328 46.3975 78.4123 46.4036 78.3919 46.4058C78.3716 46.4081 78.3523 46.4065 78.3368 46.4012L69.5472 43.2907C69.4067 43.2406 69.2408 43.2144 69.061 43.2138C68.8812 43.2132 68.6918 43.2383 68.5063 43.2874L68.2478 43.3567C67.9106 43.447 67.6079 43.6105 67.4062 43.8113C67.2045 44.0121 67.1203 44.2336 67.1721 44.4272L68.6165 49.8174C68.6683 50.011 68.852 50.1608 69.1271 50.2338C69.4022 50.3068 69.7461 50.2971 70.0833 50.2067C70.3005 50.1485 70.5055 50.0593 70.6788 49.9476C70.8521 49.8359 70.9878 49.7055 71.0731 49.5687L72.9982 46.7744C73.0304 46.7329 73.0388 46.6896 73.0218 46.6531C73.0047 46.6167 72.9634 46.5898 72.9062 46.578C72.8491 46.5661 72.7802 46.5701 72.7135 46.5892C72.6469 46.6083 72.5873 46.641 72.5469 46.6808L70.4182 48.5564C70.4061 48.5677 70.3897 48.5773 70.3712 48.5841C70.3527 48.591 70.3329 48.5947 70.3142 48.5948C70.2955 48.595 70.2787 48.5916 70.2659 48.585C70.2532 48.5784 70.245 48.569 70.2424 48.5578L69.2178 44.734C69.2149 44.7223 69.2183 44.7093 69.2274 44.6967C69.2366 44.6841 69.2511 44.6724 69.269 44.6634C69.287 44.6543 69.3075 44.6482 69.3279 44.6459C69.3483 44.6436 69.3675 44.6453 69.383 44.6506L78.1726 47.761C78.3138 47.8102 78.4801 47.8355 78.6599 47.8352C78.8397 47.8349 79.0287 47.8091 79.2136 47.7594L79.4788 47.6884C79.6457 47.6437 79.8059 47.5805 79.9503 47.5025C80.0947 47.4245 80.2205 47.3332 80.3204 47.2338C80.4202 47.1344 80.4923 47.0288 80.5325 46.9231C80.5726 46.8175 80.5801 46.7137 80.5544 46.6179L79.1103 41.2284C79.0845 41.1321 79.0258 41.0457 78.9376 40.9741C78.8494 40.9025 78.7335 40.8471 78.5964 40.8111C78.4594 40.7752 78.3039 40.7593 78.139 40.7645C77.9741 40.7696 77.803 40.7957 77.6355 40.8412C77.4183 40.8994 77.2133 40.9887 77.04 41.1004C76.8667 41.212 76.731 41.3425 76.6457 41.4792Z" fill="white"/>
<path d="M8.21397 66.5176L7.11268 62.4075L7.87568 62.2031L8.00291 62.6779L8.09661 62.6528C8.14071 62.5854 8.2033 62.4977 8.28437 62.3897C8.36733 62.2799 8.49733 62.1672 8.6744 62.0516C8.85334 61.9342 9.11014 61.8306 9.44478 61.7409C9.87759 61.6249 10.276 61.5856 10.6399 61.623C11.0038 61.6604 11.3092 61.7697 11.5563 61.951C11.8033 62.1324 11.9689 62.38 12.0531 62.694C12.1379 63.0105 12.1188 63.3097 11.9959 63.5916C11.8726 63.8721 11.664 64.1199 11.3701 64.3349C11.0759 64.5486 10.7146 64.7129 10.2862 64.8277C9.95604 64.9161 9.68315 64.9552 9.46756 64.9448C9.25162 64.9331 9.07915 64.9008 8.95017 64.8478C8.82083 64.7934 8.71986 64.7468 8.64725 64.7078L8.58033 64.7258L9.00374 66.306L8.21397 66.5176ZM8.28953 63.694C8.35002 63.9198 8.46027 64.1037 8.62028 64.2458C8.77995 64.3865 8.98214 64.4763 9.22685 64.515C9.47121 64.5524 9.75179 64.5287 10.0686 64.4438C10.3988 64.3553 10.6607 64.2309 10.8545 64.0705C11.0501 63.9082 11.1806 63.7259 11.2459 63.5234C11.3131 63.3191 11.3182 63.1106 11.2612 62.8978C11.2049 62.6876 11.0984 62.5131 10.9416 62.3744C10.7868 62.2337 10.5846 62.144 10.3351 62.1052C10.0874 62.0644 9.79628 62.0889 9.46163 62.1786C9.14037 62.2647 8.88311 62.3843 8.68985 62.5376C8.49624 62.6896 8.36626 62.8649 8.2999 63.0635C8.2332 63.2607 8.22974 63.4709 8.28953 63.694Z" fill="white"/>
<path d="M15.761 63.3607C15.297 63.485 14.8726 63.5299 14.488 63.4953C14.1055 63.4601 13.7852 63.3534 13.527 63.175C13.271 62.9961 13.1017 62.7523 13.0189 62.4435C12.9355 62.1321 12.9597 61.8343 13.0916 61.5501C13.2257 61.2653 13.4495 61.012 13.7632 60.7903C14.079 60.568 14.469 60.3947 14.933 60.2703C15.397 60.146 15.8203 60.1014 16.2027 60.1366C16.5874 60.1712 16.9079 60.2786 17.1642 60.4588C17.4228 60.6384 17.5938 60.8839 17.6772 61.1953C17.7599 61.5041 17.7341 61.8002 17.5996 62.0838C17.4674 62.3667 17.2434 62.6193 16.9275 62.8416C16.6139 63.0633 16.2251 63.2363 15.761 63.3607ZM15.6505 62.9481C16.003 62.8537 16.2789 62.7234 16.4783 62.5573C16.6778 62.3913 16.8092 62.208 16.8726 62.0074C16.936 61.8069 16.941 61.6067 16.8874 61.4069C16.8339 61.2071 16.7294 61.0356 16.5738 60.8924C16.4183 60.7491 16.2125 60.6548 15.9564 60.6093C15.7003 60.5639 15.396 60.5885 15.0435 60.6829C14.691 60.7774 14.4153 60.9083 14.2162 61.0756C14.0172 61.243 13.8861 61.4276 13.823 61.6294C13.7599 61.8313 13.7552 62.0321 13.8087 62.2319C13.8622 62.4317 13.9666 62.6026 14.1218 62.7445C14.277 62.8865 14.4825 62.9795 14.7382 63.0236C14.9939 63.0677 15.298 63.0426 15.6505 62.9481Z" fill="white"/>
<path d="M20.2688 62.0861L17.9017 59.5166L18.7316 59.2942L20.4559 61.2851L20.5094 61.2707L20.9938 58.6881L21.8372 58.4621L23.5325 60.4523L23.5861 60.438L24.086 57.8595L24.9159 57.6371L24.1507 61.0459L23.3743 61.254L21.6346 59.2589L21.5543 59.2804L21.0452 61.8781L20.2688 62.0861Z" fill="white"/>
<path d="M28.7579 59.8782C28.2626 60.0109 27.8184 60.0618 27.4251 60.0309C27.0337 59.9981 26.7102 59.8929 26.4546 59.7153C26.2009 59.5357 26.033 59.2929 25.9509 58.9867C25.8689 58.6805 25.8925 58.385 26.0218 58.1C26.153 57.8132 26.3739 57.558 26.6846 57.3343C26.9972 57.1087 27.3855 56.9337 27.8495 56.8094C28.1173 56.7376 28.3886 56.6927 28.6635 56.6747C28.9384 56.6567 29.1986 56.6773 29.4441 56.7367C29.6892 56.7948 29.9009 56.9021 30.0792 57.0588C30.2574 57.2154 30.3839 57.4332 30.4587 57.7121L30.5108 57.9067L26.5486 58.9684L26.4422 58.5714L29.6013 57.7249C29.5561 57.5563 29.4578 57.4213 29.3063 57.3201C29.1571 57.2182 28.9662 57.1574 28.7338 57.1377C28.5036 57.1173 28.2457 57.1454 27.9601 57.2219C27.6455 57.3062 27.3855 57.4246 27.1801 57.5769C26.9765 57.7274 26.8326 57.8911 26.7485 58.068C26.6644 58.2449 26.6444 58.4157 26.6886 58.5805L26.7595 58.8452C26.82 59.0709 26.9382 59.2443 27.1141 59.3654C27.2919 59.4847 27.5122 59.5529 27.7751 59.57C28.0376 59.5859 28.3283 59.5511 28.6474 59.4656C28.8548 59.41 29.0377 59.3429 29.196 59.2644C29.3562 59.1839 29.4884 59.0929 29.5927 58.9912C29.6966 58.8883 29.7681 58.776 29.8073 58.6542L30.6036 58.5743C30.5636 58.7464 30.4641 58.9149 30.3051 59.0798C30.1457 59.2435 29.9351 59.3945 29.6732 59.5328C29.4111 59.6698 29.1059 59.7849 28.7579 59.8782Z" fill="white"/>
<path d="M32.071 58.9237L31.27 55.9346L32.033 55.7301L32.154 56.1816L32.2075 56.1673C32.2616 55.9943 32.399 55.8288 32.6197 55.6709C32.8405 55.5131 33.1048 55.3929 33.4126 55.3104C33.4706 55.2949 33.5433 55.2761 33.6307 55.2541C33.718 55.232 33.7844 55.2164 33.8297 55.207L33.9548 55.674C33.927 55.6773 33.8641 55.6879 33.7661 55.7058C33.67 55.7219 33.5695 55.7439 33.4646 55.772C33.2147 55.839 32.9998 55.9293 32.8198 56.0428C32.6417 56.1545 32.51 56.2788 32.4248 56.4157C32.3414 56.5506 32.3177 56.6856 32.3539 56.8205L32.8607 58.7121L32.071 58.9237Z" fill="white"/>
<path d="M37.5926 57.5109C37.0973 57.6436 36.6531 57.6945 36.2598 57.6636C35.8684 57.6309 35.5449 57.5256 35.2893 57.348C35.0356 57.1685 34.8677 56.9256 34.7856 56.6195C34.7036 56.3133 34.7272 56.0177 34.8565 55.7328C34.9877 55.446 35.2086 55.1907 35.5193 54.967C35.8319 54.7414 36.2202 54.5665 36.6842 54.4421C36.952 54.3704 37.2233 54.3255 37.4982 54.3075C37.7731 54.2894 38.0333 54.3101 38.2788 54.3694C38.5239 54.4275 38.7356 54.5349 38.9139 54.6915C39.0921 54.8482 39.2186 55.0659 39.2934 55.3449L39.3455 55.5395L35.3833 56.6012L35.2769 56.2042L38.436 55.3577C38.3908 55.189 38.2925 55.0541 38.141 54.9528C37.9918 54.851 37.8009 54.7902 37.5685 54.7704C37.3382 54.7501 37.0803 54.7782 36.7948 54.8547C36.4802 54.939 36.2202 55.0573 36.0147 55.2097C35.8112 55.3602 35.6673 55.5239 35.5832 55.7008C35.4991 55.8777 35.4791 56.0485 35.5233 56.2132L35.5942 56.4779C35.6547 56.7037 35.7729 56.8771 35.9488 56.9982C36.1266 57.1174 36.3469 57.1856 36.6098 57.2028C36.8723 57.2187 37.163 57.1839 37.4821 57.0984C37.6895 57.0428 37.8724 56.9757 38.0307 56.8971C38.1909 56.8167 38.3231 56.7256 38.4274 56.624C38.5313 56.521 38.6028 56.4087 38.642 56.287L39.4383 56.2071C39.3983 56.3791 39.2988 56.5476 39.1398 56.7126C38.9804 56.8763 38.7698 57.0273 38.5079 57.1656C38.2457 57.3026 37.9406 57.4177 37.5926 57.5109Z" fill="white"/>
<path d="M42.8633 56.0987C42.4349 56.2134 42.0399 56.2518 41.6783 56.2139C41.3162 56.1746 41.0117 56.0643 40.7647 55.883C40.5173 55.7004 40.3511 55.4508 40.2663 55.1342C40.1822 54.8203 40.2018 54.523 40.3251 54.2425C40.4484 53.9619 40.6582 53.7145 40.9547 53.5002C41.2512 53.2859 41.6158 53.1207 42.0486 53.0047C42.3833 52.9151 42.6563 52.8767 42.8678 52.8895C43.0812 52.9005 43.2501 52.9331 43.3746 52.9873C43.5011 53.0397 43.6002 53.084 43.6721 53.1204L43.7391 53.1024L43.3448 51.6312L44.1346 51.4196L45.2025 55.4051L44.4395 55.6096L44.3165 55.1503L44.2228 55.1754C44.1794 55.2454 44.1152 55.3363 44.0304 55.448C43.9452 55.5585 43.812 55.6727 43.6309 55.7908C43.4493 55.9076 43.1935 56.0102 42.8633 56.0987ZM42.8598 55.6574C43.1766 55.5725 43.4315 55.4528 43.6244 55.2982C43.817 55.1423 43.9472 54.9635 44.0151 54.7617C44.0826 54.5587 44.0862 54.3443 44.0257 54.1186C43.9659 53.8954 43.8578 53.7151 43.7014 53.5777C43.5447 53.4389 43.3445 53.3521 43.1008 53.3173C42.8568 53.2811 42.5741 53.3061 42.2529 53.3922C41.9182 53.4819 41.6527 53.6065 41.4564 53.7662C41.262 53.924 41.1317 54.1028 41.0657 54.3026C41.0016 54.5006 40.9977 54.7047 41.054 54.9148C41.111 55.1276 41.2186 55.306 41.3767 55.4499C41.5367 55.592 41.7409 55.6847 41.9892 55.728C42.2394 55.7694 42.5296 55.7459 42.8598 55.6574Z" fill="white"/>
<path d="M49.5161 54.2493L48.4482 50.2638L49.238 50.0522L49.6322 51.5234L49.6991 51.5054C49.7432 51.438 49.8058 51.3503 49.8869 51.2424C49.9698 51.1325 50.0998 51.0198 50.2769 50.9043C50.4559 50.7868 50.7126 50.6832 51.0473 50.5936C51.4801 50.4776 51.8785 50.4383 52.2424 50.4757C52.6063 50.513 52.9117 50.6224 53.1588 50.8037C53.4058 50.985 53.5714 51.2326 53.6556 51.5466C53.7404 51.8632 53.7213 52.1624 53.5984 52.4442C53.4751 52.7248 53.2665 52.9725 52.9726 53.1876C52.6784 53.4013 52.3171 53.5655 51.8887 53.6803C51.5585 53.7688 51.2857 53.8078 51.0701 53.7975C50.8541 53.7858 50.6817 53.7534 50.5527 53.7004C50.4233 53.6461 50.3224 53.5994 50.2498 53.5605L50.1561 53.5856L50.2791 54.0448L49.5161 54.2493ZM49.892 52.5467C49.9525 52.7724 50.0628 52.9563 50.2228 53.0984C50.3825 53.2392 50.5846 53.3289 50.8294 53.3676C51.0737 53.405 51.3543 53.3813 51.6711 53.2964C52.0013 53.208 52.2633 53.0835 52.457 52.9232C52.6526 52.7609 52.7831 52.5785 52.8484 52.3761C52.9156 52.1718 52.9207 51.9632 52.8637 51.7504C52.8074 51.5403 52.7009 51.3658 52.5441 51.227C52.3893 51.0864 52.1871 50.9966 51.9376 50.9578C51.6899 50.9171 51.3988 50.9416 51.0641 51.0312C50.7429 51.1173 50.4856 51.237 50.2924 51.3903C50.0988 51.5423 49.9688 51.7175 49.9024 51.9161C49.8357 52.1133 49.8322 52.3235 49.892 52.5467Z" fill="white"/>
<path d="M55.887 53.7436C55.7531 53.7795 55.632 53.805 55.5237 53.8201C55.4157 53.8365 55.3401 53.8443 55.2968 53.8434L55.3891 53.3848C55.5886 53.3619 55.761 53.3269 55.9061 53.2796C56.0513 53.2324 56.1715 53.1591 56.2669 53.0599C56.3648 52.9614 56.4414 52.8233 56.4967 52.6458L56.5814 52.3729L53.8754 49.8775L54.7321 49.6479L56.7893 51.6497L56.8428 51.6353L57.6235 48.8732L58.4802 48.6436L57.216 52.6533C57.1592 52.834 57.0719 52.9944 56.954 53.1344C56.8364 53.2758 56.6883 53.3968 56.5097 53.4975C56.3333 53.5976 56.1257 53.6797 55.887 53.7436Z" fill="white"/>
</svg>
