<svg width="262" height="114" viewBox="0 0 262 114" fill="none" xmlns="http://www.w3.org/2000/svg">
<path d="M0 57C0 25.5198 25.5198 0 57 0H205C236.48 0 262 25.5198 262 57C262 88.4802 236.48 114 205 114H57C25.5198 114 0 88.4802 0 57Z" fill="white"/>
<path d="M166.516 55.7771C169.987 54.2559 171.966 51.3828 171.966 47.0746C171.966 42.9107 169.724 39.9404 166.253 38.7634C164.495 38.1555 161.767 37.8945 158.871 37.8945H149.042C148.968 37.8945 148.896 37.9238 148.844 37.9758C148.791 38.0279 148.762 38.0985 148.762 38.1721V46.5555C148.762 46.5555 148.762 51.5133 153.769 51.5133C153.769 51.5133 148.762 51.5133 148.762 56.4711V67.5971C148.762 67.6707 148.791 67.7413 148.844 67.7934C148.896 67.8454 148.968 67.8747 149.042 67.8747H155.339C155.413 67.8747 155.484 67.8454 155.537 67.7934C155.59 67.7413 155.619 67.6707 155.619 67.5971V57.0846H159.962L166.166 67.7359C166.19 67.7778 166.226 67.8127 166.268 67.8371C166.31 67.8614 166.358 67.8744 166.407 67.8747H173.315C173.364 67.8744 173.412 67.8613 173.455 67.8369C173.497 67.8124 173.532 67.7773 173.556 67.7352C173.581 67.693 173.594 67.6453 173.594 67.5967C173.594 67.5481 173.581 67.5004 173.556 67.4583L166.516 55.7771ZM163.088 50.9414C162.123 51.3773 160.629 51.4966 158.602 51.4966H155.619V43.724H158.476C160.102 43.724 161.683 43.8989 162.737 44.2487C164.232 44.7705 165.022 45.8587 165.022 47.5104C165.022 49.2509 164.447 50.2947 163.088 50.9414Z" fill="#201F1F"/>
<path d="M119.125 38.1721V43.6685C119.125 43.7421 119.155 43.8127 119.207 43.8648C119.26 43.9168 119.331 43.9461 119.405 43.9461H132.834C127.827 43.9461 127.827 48.9039 127.827 48.9039V67.5971C127.827 67.6707 127.857 67.7413 127.909 67.7934C127.962 67.8454 128.033 67.8747 128.107 67.8747H134.362C134.436 67.8747 134.508 67.8454 134.56 67.7934C134.613 67.7413 134.642 67.6707 134.642 67.5971V43.9433H143.333C143.408 43.9433 143.479 43.9141 143.532 43.862C143.584 43.8099 143.614 43.7393 143.614 43.6657V38.1721C143.614 38.0985 143.584 38.0279 143.532 37.9758C143.479 37.9238 143.408 37.8945 143.333 37.8945H119.405C119.331 37.8945 119.26 37.9238 119.207 37.9758C119.155 38.0279 119.125 38.0985 119.125 38.1721Z" fill="#201F1F"/>
<path d="M107.708 50.0247L103.68 48.7977C100.711 47.9205 100.136 47.085 100.136 45.8136C100.136 44.2341 101.022 42.9627 104.622 42.9627C107.68 42.9627 111.843 44.148 114.19 46.2938H114.367V39.5844C114.367 39.5438 114.358 39.5037 114.341 39.4667C114.324 39.4298 114.3 39.397 114.268 39.3707C112.561 37.9827 108.328 37 105.331 37C97.2259 37 93.1523 41.0334 93.1523 46.2522C93.1523 50.6382 95.454 53.664 100.722 55.1546L104.532 56.2511C107.588 57.0839 108.961 57.8306 108.961 59.4962C108.961 61.778 107.19 62.3915 104.176 62.3915C101.283 62.3915 97.181 61.4394 94.0971 59.1603C94.0483 59.1257 93.9896 59.1076 93.9297 59.1085C93.8697 59.1094 93.8115 59.1293 93.7639 59.1654C93.7162 59.2014 93.6814 59.2516 93.6647 59.3087C93.648 59.3658 93.6502 59.4266 93.671 59.4823L96.7072 67.2105C96.7221 67.2489 96.7455 67.2835 96.7755 67.3118C96.8056 67.3401 96.8416 67.3615 96.881 67.3743C99.1208 68.1064 101.464 68.4812 103.823 68.4847C112.682 68.4847 115.959 63.835 115.959 58.9688C115.948 54.63 113.999 51.954 107.708 50.0247Z" fill="#201F1F"/>
<path d="M90.9116 67.5007L79.3527 38.0758C79.332 38.0241 79.296 37.9798 79.2495 37.9486C79.203 37.9175 79.1481 37.9008 79.092 37.9009H72.8374C72.7812 37.9008 72.7263 37.9175 72.6799 37.9486C72.6334 37.9798 72.5974 38.0241 72.5766 38.0758L61.0177 67.5007C61.0019 67.5426 60.9966 67.5876 61.0021 67.6319C61.0076 67.6762 61.0239 67.7186 61.0495 67.7554C61.0751 67.7921 61.1093 67.8223 61.1491 67.8432C61.189 67.8641 61.2334 67.8752 61.2785 67.8755H67.8892C67.9451 67.8748 67.9996 67.8574 68.0456 67.8258C68.0916 67.7941 68.1269 67.7495 68.1471 67.6978L70.6282 61.2604V61.2438L75.8091 46.5535L79.1481 55.4754C72.7953 55.4754 70.7571 60.8884 70.6282 61.2438V61.2604H81.0881L83.5692 67.6978C83.5894 67.7495 83.6247 67.7941 83.6707 67.8258C83.7167 67.8574 83.7711 67.8748 83.8271 67.8755H90.6565C90.7011 67.8743 90.7448 67.8626 90.784 67.8413C90.8231 67.82 90.8566 67.7898 90.8815 67.7531C90.9065 67.7165 90.9222 67.6744 90.9275 67.6305C90.9327 67.5866 90.9273 67.5421 90.9116 67.5007Z" fill="#201F1F"/>
<path d="M191.361 37.0615C188.2 37.0615 185.111 37.9895 182.483 39.7282C179.855 41.4668 177.807 43.938 176.597 46.8292C175.388 49.7205 175.071 52.9019 175.688 55.9713C176.305 59.0406 177.826 61.86 180.061 64.0728C182.296 66.2857 185.144 67.7927 188.243 68.4032C191.343 69.0137 194.556 68.7004 197.476 67.5028C200.396 66.3052 202.892 64.2771 204.648 61.6751C206.404 59.073 207.341 56.0138 207.341 52.8844C207.341 48.6879 205.657 44.6633 202.661 41.6959C199.664 38.7286 195.599 37.0615 191.361 37.0615ZM191.361 66.0673C191.361 62.571 189.958 59.2178 187.461 56.7456C184.965 54.2733 181.578 52.8844 178.047 52.8844C181.578 52.8844 184.965 51.4955 187.461 49.0232C189.958 46.5509 191.361 43.1978 191.361 39.7014C191.361 43.1978 192.764 46.5509 195.26 49.0232C197.757 51.4955 201.144 52.8844 204.675 52.8844C201.144 52.8844 197.757 54.2733 195.26 56.7456C192.764 59.2178 191.361 62.571 191.361 66.0673Z" fill="#201F1F"/>
<path d="M147.912 77.3458V84.4596C147.912 84.4864 147.901 84.5121 147.882 84.531C147.863 84.55 147.837 84.5608 147.809 84.5612H147.06C146.888 84.5613 146.719 84.5188 146.568 84.4377C146.417 84.3565 146.289 84.2391 146.196 84.0964L142.795 78.9067L142.912 81.4989V84.4596C142.911 84.4864 142.9 84.5121 142.881 84.531C142.862 84.55 142.836 84.5608 142.809 84.5612H141.818C141.791 84.5608 141.765 84.55 141.745 84.531C141.726 84.5121 141.715 84.4864 141.715 84.4596V77.3458C141.715 77.3189 141.726 77.2933 141.745 77.2743C141.765 77.2553 141.791 77.2445 141.818 77.2441H142.563C142.735 77.2442 142.904 77.2867 143.055 77.3676C143.206 77.4485 143.334 77.5654 143.428 77.7076L146.828 82.8891L146.723 80.3065V77.3458C146.723 77.3188 146.733 77.293 146.753 77.2739C146.772 77.2548 146.798 77.2441 146.825 77.2441H147.816C147.842 77.2462 147.866 77.2577 147.884 77.2765C147.902 77.2953 147.912 77.32 147.912 77.3458Z" fill="#201F1F"/>
<path d="M158.037 84.5613H156.989C156.972 84.5611 156.956 84.5571 156.942 84.5496C156.927 84.542 156.915 84.5312 156.905 84.5179C156.896 84.5047 156.89 84.4894 156.888 84.4734C156.885 84.4574 156.887 84.441 156.893 84.4258L159.67 77.3418C159.682 77.3121 159.703 77.2868 159.73 77.2694C159.757 77.2519 159.789 77.2431 159.821 77.2442H161.135C161.166 77.2445 161.196 77.2539 161.222 77.2713C161.247 77.2887 161.267 77.3132 161.279 77.3418L164.048 84.4258C164.053 84.441 164.055 84.4574 164.053 84.4734C164.051 84.4894 164.045 84.5047 164.035 84.5179C164.026 84.5312 164.013 84.542 163.999 84.5496C163.984 84.5571 163.968 84.5611 163.952 84.5613H162.903C162.882 84.5614 162.862 84.5552 162.845 84.5436C162.827 84.532 162.814 84.5155 162.806 84.4963L160.568 78.6697C160.561 78.6501 160.547 78.6331 160.53 78.6212C160.513 78.6092 160.492 78.6028 160.471 78.6028C160.45 78.6028 160.429 78.6092 160.412 78.6212C160.395 78.6331 160.381 78.6501 160.374 78.6697L158.136 84.4963C158.128 84.5157 158.114 84.5324 158.097 84.544C158.079 84.5556 158.058 84.5617 158.037 84.5613Z" fill="#201F1F"/>
<path d="M171.325 84.3972L169.242 81.7699C170.418 81.5504 171.106 80.7672 171.106 79.5653C171.106 78.1845 170.196 77.2441 168.586 77.2441H165.681C165.64 77.2441 165.601 77.2601 165.572 77.2886C165.544 77.3171 165.527 77.3557 165.527 77.3959C165.527 77.524 165.553 77.6509 165.603 77.7693C165.652 77.8876 165.725 77.9952 165.817 78.0858C165.908 78.1764 166.017 78.2482 166.137 78.2972C166.257 78.3463 166.386 78.3715 166.515 78.3715H168.466C169.439 78.3715 169.905 78.8634 169.905 79.5734C169.905 80.2834 169.449 80.7929 168.466 80.7929H165.681C165.64 80.7933 165.601 80.8096 165.572 80.8382C165.543 80.8669 165.527 80.9057 165.527 80.946V84.4691C165.527 84.496 165.538 84.5219 165.557 84.5409C165.577 84.56 165.603 84.5707 165.63 84.5707H166.621C166.648 84.5703 166.674 84.5595 166.693 84.5405C166.713 84.5215 166.724 84.4959 166.724 84.4691V81.8336H167.867L169.675 84.1628C169.771 84.2875 169.896 84.3883 170.039 84.4574C170.182 84.5265 170.339 84.562 170.498 84.5612H171.25C171.269 84.5602 171.287 84.5541 171.302 84.5436C171.318 84.5331 171.33 84.5187 171.338 84.5018C171.346 84.4849 171.349 84.4662 171.347 84.4478C171.344 84.4294 171.337 84.4119 171.325 84.3972Z" fill="#201F1F"/>
<path d="M154.903 77.2441H150.305C150.269 77.2441 150.234 77.2584 150.208 77.2838C150.182 77.3092 150.168 77.3437 150.168 77.3796C150.168 77.6431 150.274 77.8957 150.463 78.082C150.651 78.2682 150.907 78.3729 151.174 78.3729H154.903C154.916 78.373 154.93 78.3705 154.942 78.3655C154.955 78.3605 154.966 78.353 154.976 78.3435C154.985 78.334 154.993 78.3228 154.998 78.3103C155.003 78.2979 155.006 78.2846 155.005 78.2712V77.3458C155.005 77.3188 154.995 77.293 154.975 77.2739C154.956 77.2548 154.93 77.2441 154.903 77.2441ZM154.903 83.4325H151.472C151.445 83.4321 151.419 83.4213 151.399 83.4023C151.38 83.3833 151.369 83.3577 151.369 83.3308V81.4962C151.369 81.4692 151.38 81.4434 151.399 81.4243C151.418 81.4052 151.444 81.3945 151.472 81.3945H154.643C154.67 81.3945 154.697 81.3838 154.716 81.3648C154.735 81.3457 154.746 81.3199 154.746 81.2929V80.3607C154.746 80.3337 154.735 80.3079 154.716 80.2888C154.697 80.2697 154.67 80.259 154.643 80.259H150.322C150.281 80.2594 150.242 80.2757 150.213 80.3044C150.184 80.333 150.168 80.3718 150.168 80.4122V84.404C150.168 84.4443 150.184 84.4829 150.213 84.5113C150.242 84.5398 150.281 84.5558 150.322 84.5558H154.903C154.93 84.5558 154.956 84.5451 154.975 84.526C154.995 84.507 155.005 84.4811 155.005 84.4542V83.5287C155.004 83.5026 154.993 83.4779 154.974 83.4599C154.955 83.4419 154.929 83.4321 154.903 83.4325Z" fill="#201F1F"/>
<path d="M134.328 75.4244L131.745 79.209C131.703 79.2636 131.684 79.3319 131.691 79.4C131.698 79.4681 131.731 79.5311 131.783 79.5763C131.835 79.6214 131.903 79.6454 131.972 79.6434C132.041 79.6413 132.107 79.6135 132.157 79.5654L134.698 77.3973C134.713 77.3841 134.731 77.3753 134.751 77.3722C134.771 77.3691 134.791 77.3718 134.809 77.3799C134.827 77.3879 134.842 77.4011 134.853 77.4177C134.863 77.4343 134.869 77.4536 134.869 77.4732V84.2876C134.868 84.3083 134.862 84.3284 134.85 84.3453C134.838 84.3622 134.82 84.375 134.801 84.3821C134.781 84.3891 134.76 84.3901 134.739 84.3848C134.719 84.3796 134.701 84.3683 134.687 84.3526L127.002 75.274C126.88 75.1283 126.726 75.0108 126.553 74.9298C126.379 74.8488 126.19 74.8063 125.998 74.8052H125.73C125.381 74.8052 125.046 74.9421 124.8 75.1858C124.553 75.4295 124.414 75.76 124.414 76.1047V85.7008C124.414 86.0455 124.553 86.376 124.8 86.6197C125.046 86.8634 125.381 87.0003 125.73 87.0003C125.955 87.0003 126.176 86.9433 126.372 86.8349C126.569 86.7265 126.734 86.5703 126.851 86.3811L129.434 82.5965C129.476 82.5419 129.495 82.4736 129.488 82.4055C129.481 82.3374 129.448 82.2744 129.396 82.2292C129.344 82.1841 129.276 82.1601 129.207 82.1621C129.138 82.1642 129.072 82.192 129.022 82.2401L126.481 84.4082C126.466 84.4214 126.448 84.4302 126.428 84.4333C126.409 84.4364 126.388 84.4337 126.37 84.4256C126.352 84.4176 126.337 84.4044 126.326 84.3878C126.316 84.3712 126.31 84.3519 126.311 84.3323V77.5247C126.311 77.504 126.317 77.4839 126.33 77.467C126.342 77.4501 126.359 77.4373 126.378 77.4302C126.398 77.4231 126.419 77.4222 126.44 77.4274C126.46 77.4327 126.478 77.4439 126.492 77.4597L134.177 86.5382C134.3 86.6827 134.455 86.7987 134.628 86.8783C134.802 86.9579 134.991 86.999 135.183 86.9989H135.457C135.63 86.9989 135.801 86.9653 135.961 86.9C136.121 86.8347 136.266 86.739 136.388 86.6183C136.51 86.4977 136.607 86.3544 136.673 86.1968C136.739 86.0391 136.773 85.8701 136.773 85.6995V76.1047C136.773 75.9333 136.739 75.7637 136.672 75.6055C136.606 75.4473 136.508 75.3037 136.385 75.1829C136.262 75.0621 136.116 74.9666 135.955 74.9018C135.795 74.8369 135.623 74.8041 135.449 74.8052C135.224 74.8052 135.003 74.8622 134.807 74.9706C134.61 75.079 134.446 75.2352 134.328 75.4244Z" fill="#201F1F"/>
<path d="M61.748 86.5567V79.2397H62.538V80.085H62.635C62.695 79.9926 62.7782 79.8748 62.8844 79.7316C62.993 79.5861 63.1477 79.4568 63.3487 79.3436C63.5519 79.2281 63.8268 79.1704 64.1732 79.1704C64.6213 79.1704 65.0162 79.2824 65.3581 79.5064C65.6999 79.7305 65.9667 80.048 66.1584 80.4592C66.3501 80.8703 66.4459 81.3553 66.4459 81.9143C66.4459 82.4778 66.3501 82.9663 66.1584 83.3798C65.9667 83.7909 65.7011 84.1096 65.3615 84.336C65.022 84.56 64.6305 84.672 64.1871 84.672C63.8452 84.672 63.5715 84.6154 63.366 84.5023C63.1604 84.3868 63.0022 84.2563 62.8913 84.1108C62.7805 83.963 62.695 83.8405 62.635 83.7435H62.5657V86.5567H61.748ZM62.5518 81.9004C62.5518 82.3023 62.6107 82.6568 62.7285 82.964C62.8463 83.2689 63.0184 83.5079 63.2447 83.6812C63.4711 83.8521 63.7482 83.9376 64.0762 83.9376C64.418 83.9376 64.7033 83.8475 64.9319 83.6673C65.1629 83.4849 65.3361 83.24 65.4516 82.9328C65.5694 82.6233 65.6283 82.2792 65.6283 81.9004C65.6283 81.5262 65.5706 81.189 65.4551 80.8888C65.3419 80.5862 65.1698 80.3471 64.9389 80.1716C64.7102 79.9938 64.4227 79.9048 64.0762 79.9048C63.7436 79.9048 63.4641 79.9891 63.2378 80.1578C63.0114 80.3241 62.8405 80.5573 62.725 80.8576C62.6096 81.1555 62.5518 81.5031 62.5518 81.9004Z" fill="#201F1F"/>
<path d="M69.855 84.672C69.3746 84.672 68.9531 84.5577 68.5905 84.329C68.2302 84.1004 67.9484 83.7805 67.7451 83.3694C67.5442 82.9582 67.4437 82.4778 67.4437 81.9281C67.4437 81.3738 67.5442 80.8899 67.7451 80.4765C67.9484 80.0631 68.2302 79.742 68.5905 79.5134C68.9531 79.2847 69.3746 79.1704 69.855 79.1704C70.3354 79.1704 70.7558 79.2847 71.1161 79.5134C71.4787 79.742 71.7605 80.0631 71.9615 80.4765C72.1647 80.8899 72.2663 81.3738 72.2663 81.9281C72.2663 82.4778 72.1647 82.9582 71.9615 83.3694C71.7605 83.7805 71.4787 84.1004 71.1161 84.329C70.7558 84.5577 70.3354 84.672 69.855 84.672ZM69.855 83.9376C70.22 83.9376 70.5202 83.844 70.7558 83.6569C70.9914 83.4698 71.1658 83.2239 71.2789 82.919C71.3921 82.6141 71.4487 82.2838 71.4487 81.9281C71.4487 81.5724 71.3921 81.241 71.2789 80.9338C71.1658 80.6266 70.9914 80.3783 70.7558 80.1889C70.5202 79.9995 70.22 79.9048 69.855 79.9048C69.4901 79.9048 69.1898 79.9995 68.9543 80.1889C68.7187 80.3783 68.5443 80.6266 68.4311 80.9338C68.3179 81.241 68.2614 81.5724 68.2614 81.9281C68.2614 82.2838 68.3179 82.6141 68.4311 82.919C68.5443 83.2239 68.7187 83.4698 68.9543 83.6569C69.1898 83.844 69.4901 83.9376 69.855 83.9376Z" fill="#201F1F"/>
<path d="M74.5391 84.5612L72.9177 79.2397H73.7769L74.9271 83.3139H74.9825L76.1189 79.2397H76.9919L78.1145 83.3001H78.1699L79.3201 79.2397H80.1793L78.5579 84.5612H77.7541L76.5901 80.473H76.5069L75.3428 84.5612H74.5391Z" fill="#201F1F"/>
<path d="M83.3104 84.672C82.7976 84.672 82.3553 84.5589 81.9835 84.3325C81.6139 84.1038 81.3287 83.7851 81.1277 83.3763C80.9291 82.9652 80.8298 82.4871 80.8298 81.942C80.8298 81.3969 80.9291 80.9165 81.1277 80.5007C81.3287 80.0827 81.6081 79.757 81.9661 79.5237C82.3265 79.2882 82.7468 79.1704 83.2272 79.1704C83.5044 79.1704 83.7781 79.2166 84.0483 79.3089C84.3186 79.4013 84.5645 79.5515 84.7863 79.7593C85.008 79.9649 85.1847 80.2374 85.3163 80.577C85.448 80.9165 85.5138 81.3345 85.5138 81.8311V82.1776H81.4118V81.4708H84.6823C84.6823 81.1706 84.6223 80.9026 84.5022 80.667C84.3844 80.4315 84.2158 80.2455 83.9963 80.1093C83.7792 79.973 83.5229 79.9048 83.2272 79.9048C82.9016 79.9048 82.6198 79.9857 82.3819 80.1474C82.1463 80.3067 81.965 80.5146 81.838 80.771C81.7109 81.0274 81.6474 81.3022 81.6474 81.5955V82.0667C81.6474 82.4686 81.7167 82.8093 81.8553 83.0887C81.9962 83.3659 82.1913 83.5772 82.4408 83.7227C82.6902 83.866 82.9801 83.9376 83.3104 83.9376C83.5252 83.9376 83.7192 83.9075 83.8924 83.8475C84.0679 83.7851 84.2192 83.6927 84.3463 83.5703C84.4733 83.4456 84.5715 83.2908 84.6408 83.1061L85.4307 83.3278C85.3475 83.5957 85.2078 83.8313 85.0115 84.0346C84.8151 84.2355 84.5726 84.3926 84.2839 84.5057C83.9952 84.6166 83.6707 84.672 83.3104 84.672Z" fill="#201F1F"/>
<path d="M86.7576 84.5612V79.2397H87.5475V80.0434H87.6029C87.6999 79.7801 87.8755 79.5665 88.1295 79.4025C88.3836 79.2385 88.67 79.1565 88.9887 79.1565C89.0488 79.1565 89.1238 79.1577 89.2139 79.16C89.304 79.1623 89.3721 79.1657 89.4183 79.1704V80.0019C89.3906 79.9949 89.3271 79.9845 89.2278 79.9707C89.1308 79.9545 89.028 79.9464 88.9194 79.9464C88.6607 79.9464 88.4298 80.0007 88.2265 80.1093C88.0256 80.2155 87.8662 80.3633 87.7484 80.5527C87.6329 80.7398 87.5752 80.9534 87.5752 81.1936V84.5612H86.7576Z" fill="#201F1F"/>
<path d="M92.4567 84.672C91.944 84.672 91.5017 84.5589 91.1298 84.3325C90.7603 84.1038 90.475 83.7851 90.2741 83.3763C90.0754 82.9652 89.9761 82.4871 89.9761 81.942C89.9761 81.3969 90.0754 80.9165 90.2741 80.5007C90.475 80.0827 90.7545 79.757 91.1125 79.5237C91.4728 79.2882 91.8932 79.1704 92.3736 79.1704C92.6507 79.1704 92.9244 79.2166 93.1947 79.3089C93.4649 79.4013 93.7109 79.5515 93.9326 79.7593C94.1543 79.9649 94.331 80.2374 94.4627 80.577C94.5943 80.9165 94.6602 81.3345 94.6602 81.8311V82.1776H90.5582V81.4708H93.8287C93.8287 81.1706 93.7686 80.9026 93.6485 80.667C93.5307 80.4315 93.3621 80.2455 93.1427 80.1093C92.9256 79.973 92.6692 79.9048 92.3736 79.9048C92.0479 79.9048 91.7661 79.9857 91.5282 80.1474C91.2926 80.3067 91.1113 80.5146 90.9843 80.771C90.8573 81.0274 90.7937 81.3022 90.7937 81.5955V82.0667C90.7937 82.4686 90.863 82.8093 91.0016 83.0887C91.1425 83.3659 91.3377 83.5772 91.5871 83.7227C91.8366 83.866 92.1264 83.9376 92.4567 83.9376C92.6715 83.9376 92.8655 83.9075 93.0388 83.8475C93.2143 83.7851 93.3656 83.6927 93.4926 83.5703C93.6196 83.4456 93.7178 83.2908 93.7871 83.1061L94.577 83.3278C94.4939 83.5957 94.3541 83.8313 94.1578 84.0346C93.9615 84.2355 93.719 84.3926 93.4302 84.5057C93.1415 84.6166 92.817 84.672 92.4567 84.672Z" fill="#201F1F"/>
<path d="M97.9133 84.672C97.4699 84.672 97.0784 84.56 96.7389 84.336C96.3993 84.1096 96.1337 83.7909 95.942 83.3798C95.7503 82.9663 95.6545 82.4778 95.6545 81.9143C95.6545 81.3553 95.7503 80.8703 95.942 80.4592C96.1337 80.048 96.4005 79.7305 96.7423 79.5064C97.0842 79.2824 97.4791 79.1704 97.9272 79.1704C98.2737 79.1704 98.5473 79.2281 98.7483 79.3436C98.9515 79.4568 99.1063 79.5861 99.2125 79.7316C99.3211 79.8748 99.4054 79.9926 99.4654 80.085H99.5347V77.4658H100.352V84.5612H99.5625V83.7435H99.4654C99.4054 83.8405 99.3199 83.963 99.2091 84.1108C99.0982 84.2563 98.94 84.3868 98.7344 84.5023C98.5289 84.6154 98.2552 84.672 97.9133 84.672ZM98.0242 83.9376C98.3522 83.9376 98.6293 83.8521 98.8557 83.6812C99.082 83.5079 99.2541 83.2689 99.3719 82.964C99.4897 82.6568 99.5486 82.3023 99.5486 81.9004C99.5486 81.5031 99.4909 81.1555 99.3754 80.8576C99.2599 80.5573 99.089 80.3241 98.8626 80.1578C98.6363 79.9891 98.3568 79.9048 98.0242 79.9048C97.6777 79.9048 97.389 79.9938 97.1581 80.1716C96.9294 80.3471 96.7573 80.5862 96.6419 80.8888C96.5287 81.189 96.4721 81.5262 96.4721 81.9004C96.4721 82.2792 96.5298 82.6233 96.6453 82.9328C96.7631 83.24 96.9363 83.4849 97.165 83.6673C97.396 83.8475 97.6824 83.9376 98.0242 83.9376Z" fill="#201F1F"/>
<path d="M104.818 84.5612V77.4658H105.636V80.085H105.705C105.765 79.9926 105.848 79.8748 105.954 79.7316C106.063 79.5861 106.218 79.4568 106.419 79.3436C106.622 79.2281 106.897 79.1704 107.243 79.1704C107.691 79.1704 108.086 79.2824 108.428 79.5064C108.77 79.7305 109.037 80.048 109.228 80.4592C109.42 80.8703 109.516 81.3553 109.516 81.9143C109.516 82.4778 109.42 82.9663 109.228 83.3798C109.037 83.7909 108.771 84.1096 108.432 84.336C108.092 84.56 107.701 84.672 107.257 84.672C106.915 84.672 106.642 84.6154 106.436 84.5023C106.231 84.3868 106.072 84.2563 105.961 84.1108C105.851 83.963 105.765 83.8405 105.705 83.7435H105.608V84.5612H104.818ZM105.622 81.9004C105.622 82.3023 105.681 82.6568 105.799 82.964C105.916 83.2689 106.088 83.5079 106.315 83.6812C106.541 83.8521 106.818 83.9376 107.146 83.9376C107.488 83.9376 107.773 83.8475 108.002 83.6673C108.233 83.4849 108.406 83.24 108.522 82.9328C108.64 82.6233 108.698 82.2792 108.698 81.9004C108.698 81.5262 108.641 81.189 108.525 80.8888C108.412 80.5862 108.24 80.3471 108.009 80.1716C107.78 79.9938 107.493 79.9048 107.146 79.9048C106.814 79.9048 106.534 79.9891 106.308 80.1578C106.082 80.3241 105.911 80.5573 105.795 80.8576C105.68 81.1555 105.622 81.5031 105.622 81.9004Z" fill="#201F1F"/>
<path d="M111.103 86.5567C110.964 86.5567 110.841 86.5452 110.732 86.5221C110.624 86.5013 110.548 86.4805 110.507 86.4597L110.715 85.7391C110.913 85.7899 111.089 85.8084 111.241 85.7945C111.394 85.7807 111.529 85.7125 111.647 85.5901C111.767 85.47 111.877 85.2749 111.976 85.0046L112.128 84.5889L110.16 79.2397H111.047L112.516 83.4802H112.572L114.041 79.2397H114.928L112.669 85.3372C112.567 85.6121 112.441 85.8396 112.291 86.0197C112.141 86.2022 111.967 86.3373 111.768 86.4251C111.572 86.5128 111.35 86.5567 111.103 86.5567Z" fill="#201F1F"/>
</svg>
