<svg width="147" height="50" viewBox="0 0 147 50" fill="none" xmlns="http://www.w3.org/2000/svg">
<path fill-rule="evenodd" clip-rule="evenodd" d="M104.072 18.3182L105.115 17.8612C106.698 17.1674 107.895 16.1877 108.701 14.9309C109.509 13.6726 109.966 12.0728 109.966 10.0746C109.966 6.32652 107.985 3.74578 104.932 2.71043L104.926 2.70849C103.332 2.1573 100.743 1.89453 97.8712 1.89453H88.7617V9.55207C88.7617 9.55242 88.7617 9.55287 88.7617 9.55339L88.7624 9.57749C88.7632 9.60189 88.765 9.64235 88.7689 9.69654C88.7767 9.80526 88.7929 9.96717 88.8261 10.1641C88.8932 10.5627 89.0255 11.0792 89.2803 11.5836C89.5329 12.0839 89.8967 12.5553 90.425 12.9041C90.9475 13.249 91.69 13.5133 92.7688 13.5133V14.5133C91.7768 14.5133 90.9814 14.3187 90.3435 14.0066C87.7617 12.7435 87.7617 9.55546 87.7617 9.55546V1.17213C87.7617 1.0985 87.7913 1.0279 87.8438 0.975836C87.8964 0.923777 87.9677 0.894531 88.0421 0.894531H97.8712C100.767 0.894531 103.495 1.15547 105.253 1.7634C108.724 2.9404 110.966 5.91065 110.966 10.0746C110.966 13.9952 109.327 16.7273 106.417 18.3336C106.129 18.4924 105.829 18.6403 105.516 18.7771L112.556 30.4583C112.581 30.5004 112.594 30.5481 112.594 30.5967C112.594 30.6453 112.581 30.693 112.556 30.7352C112.532 30.7773 112.497 30.8124 112.455 30.8369C112.412 30.8613 112.364 30.8744 112.315 30.8747H105.407C105.358 30.8744 105.31 30.8614 105.268 30.8371C105.226 30.8127 105.19 30.7778 105.166 30.7359L98.9618 20.0846H94.6191V30.5971C94.6191 30.6707 94.5896 30.7413 94.537 30.7934C94.4844 30.8454 94.4131 30.8747 94.3388 30.8747H88.0421C87.9677 30.8747 87.8964 30.8454 87.8438 30.7934C87.7913 30.7413 87.7617 30.6707 87.7617 30.5971V19.4711C87.7617 16.9415 89.0653 15.7025 90.3421 15.0957C91.5678 14.5133 92.7688 14.5133 92.7688 14.5133C92.7688 15.5133 92.7693 15.5133 92.7697 15.5133L92.7718 15.5133L92.773 15.5133C92.7733 15.5133 92.7717 15.5133 92.7697 15.5133L92.7456 15.514C92.7206 15.5148 92.6793 15.5166 92.6242 15.5205C92.5136 15.5283 92.3492 15.5444 92.1493 15.5774C91.7447 15.6442 91.2207 15.7759 90.7089 16.0292C90.2009 16.2807 89.7247 16.6418 89.3736 17.1634C89.027 17.6782 88.7617 18.4087 88.7617 19.4711V29.8747H93.6191V19.0846H99.5366L105.822 29.8747H111.037L104.072 18.3182ZM102.508 14.8487L102.499 14.8527C101.31 15.39 99.6034 15.4966 97.6021 15.4966H93.6191V5.724H97.4759C99.1465 5.724 100.851 5.90084 102.052 6.29954L102.06 6.302L102.067 6.30458C102.97 6.61979 103.729 7.13249 104.257 7.87854C104.784 8.6242 105.022 9.52236 105.022 10.5104C105.022 11.4835 104.863 12.3663 104.437 13.1251C104.003 13.8993 103.345 14.4508 102.517 14.8445L102.508 14.8487ZM102.088 13.9414C101.123 14.3773 99.629 14.4966 97.6021 14.4966H94.6191V6.724H97.4759C99.1019 6.724 100.683 6.89889 101.737 7.24866C103.232 7.77053 104.022 8.8587 104.022 10.5104C104.022 12.2509 103.447 13.2947 102.088 13.9414Z" fill="white"/>
<path fill-rule="evenodd" clip-rule="evenodd" d="M72.6425 5.9433H81.6137V1.89453H59.125V5.94608H71.8342V6.94608H58.4054C58.331 6.94608 58.2597 6.91683 58.2071 6.86477C58.1545 6.81272 58.125 6.74211 58.125 6.66849V1.17213C58.125 1.0985 58.1545 1.0279 58.2071 0.975836C58.2597 0.923777 58.331 0.894531 58.4054 0.894531H82.3334C82.4077 0.894531 82.479 0.923777 82.5316 0.975836C82.5842 1.0279 82.6137 1.0985 82.6137 1.17213V6.66571C82.6137 6.73933 82.5842 6.80994 82.5316 6.862C82.479 6.91406 82.4077 6.9433 82.3334 6.9433H73.6425V30.5971C73.6425 30.6707 73.6129 30.7413 73.5604 30.7934C73.5078 30.8454 73.4365 30.8747 73.3621 30.8747H67.1075C67.0331 30.8747 66.9618 30.8454 66.9092 30.7934C66.8567 30.7413 66.8271 30.6707 66.8271 30.5971V11.9039C66.8271 11.9039 66.8271 9.39426 68.6304 7.94608C69.3617 7.3588 70.3895 6.94608 71.8342 6.94608V7.94608C70.7554 7.94608 70.0129 8.21038 69.4904 8.55531C68.9621 8.90405 68.5983 9.37542 68.3457 9.87575C68.0909 10.3802 67.9586 10.8966 67.8915 11.2952C67.8583 11.4922 67.8422 11.6541 67.8343 11.7628C67.8304 11.817 67.8286 11.8575 67.8278 11.8819L67.8271 11.906L67.8271 11.9048V11.9073V29.8747H67.1075C67.2951 29.8747 67.4771 29.9484 67.6128 30.0828C67.7489 30.2175 67.8271 30.4023 67.8271 30.5971V29.8747H72.6425V30.5971C72.6425 30.4022 72.7207 30.2174 72.8568 30.0828C72.9924 29.9484 73.1744 29.8747 73.3621 29.8747H72.6425V5.9433ZM67.8271 11.9083C67.8271 11.9084 67.8271 11.9084 67.8271 11.9083ZM66.8331 11.9039C67.8271 11.9039 67.8271 11.9044 67.8271 11.9048L66.8331 11.9039Z" fill="white"/>
<path fill-rule="evenodd" clip-rule="evenodd" d="M39.7218 18.1546L43.5318 19.2511C46.5877 20.0839 47.9614 20.8306 47.9614 22.4962C47.9614 24.778 46.1895 25.3915 43.1758 25.3915C40.5013 25.3915 36.7943 24.5779 33.8131 22.6547C33.7542 22.6166 33.6955 22.5782 33.6372 22.5393C33.5049 22.4511 33.374 22.3607 33.2449 22.268C33.2416 22.2656 33.2382 22.2632 33.2349 22.2608C33.1888 22.2276 33.1428 22.1941 33.0971 22.1603C33.0483 22.1257 32.9896 22.1076 32.9297 22.1085C32.8697 22.1094 32.8115 22.1293 32.7639 22.1654C32.7162 22.2014 32.6814 22.2516 32.6647 22.3087C32.648 22.3658 32.6502 22.4266 32.671 22.4823L35.7072 30.2105C35.7221 30.2489 35.7455 30.2835 35.7755 30.3118C35.8056 30.3401 35.8416 30.3615 35.881 30.3743C38.1208 31.1064 40.4639 31.4812 42.8225 31.4847C51.6816 31.4847 54.959 26.835 54.959 21.9688C54.9477 17.63 52.9993 14.954 46.7082 13.0247L42.6796 11.7977C39.7106 10.9205 39.1359 10.085 39.1359 8.81361C39.1359 7.2341 40.0218 5.96272 43.6215 5.96272C46.3486 5.96272 49.9538 6.905 52.3666 8.6302C52.6599 8.83994 52.9356 9.06125 53.1899 9.29384H53.3666V2.5844C53.367 2.54384 53.3584 2.50368 53.3414 2.46675C53.3245 2.42982 53.2996 2.39702 53.2684 2.37065C51.5611 0.982683 47.3278 0 44.3308 0C36.2259 0 32.1523 4.03344 32.1523 9.2522C32.1523 13.6382 34.454 16.664 39.7218 18.1546ZM52.3666 2.94821C51.639 2.4639 50.4536 1.9947 49.0365 1.63392C47.4583 1.23211 45.7341 1 44.3308 1C40.4345 1 37.6378 1.96968 35.8351 3.44329C34.0515 4.90134 33.1523 6.92219 33.1523 9.2522C33.1523 11.2621 33.6754 12.8748 34.7321 14.1516C35.7983 15.4401 37.4881 16.4833 39.9941 17.1924L39.9984 17.1936L43.8016 18.2882C45.3253 18.7037 46.5809 19.1333 47.4593 19.7375C47.9165 20.052 48.3042 20.4347 48.5728 20.9174C48.844 21.4047 48.9614 21.9359 48.9614 22.4962C48.9614 23.1957 48.8251 23.8405 48.5087 24.4021C48.1889 24.9696 47.7225 25.3859 47.1705 25.6813C46.1171 26.2449 44.7033 26.3915 43.1758 26.3915C40.6767 26.3915 37.3371 25.7278 34.405 24.1612L36.5126 29.5259C38.5545 30.158 40.6818 30.4814 42.8227 30.4847C47.0828 30.4847 49.8463 29.3684 51.5362 27.8153C53.2205 26.2674 53.9587 24.1759 53.959 21.9699C53.9535 19.96 53.5046 18.4693 52.437 17.2528C51.3399 16.003 49.4861 14.9226 46.4156 13.9809C46.4154 13.9809 46.4158 13.981 46.4156 13.9809L42.3922 12.7556C40.8816 12.309 39.8069 11.829 39.1144 11.1867C38.3388 10.4674 38.1359 9.63941 38.1359 8.81361C38.1359 7.8254 38.4247 6.76636 39.42 6.00253C40.3514 5.28776 41.741 4.96272 43.6215 4.96272C45.2679 4.96272 47.1789 5.27955 48.9852 5.87367C50.1661 6.26208 51.3332 6.7792 52.3666 7.42738V2.94821ZM36.6391 29.8477L36.6379 29.8449C36.6383 29.8458 36.6387 29.8468 36.6391 29.8477Z" fill="white"/>
<path fill-rule="evenodd" clip-rule="evenodd" d="M20.0881 24.2604L22.5692 30.6978C22.5894 30.7495 22.6247 30.7941 22.6707 30.8258C22.7167 30.8574 22.7711 30.8748 22.8271 30.8755H29.6565C29.7011 30.8743 29.7448 30.8626 29.784 30.8413C29.8231 30.82 29.8566 30.7898 29.8815 30.7531C29.9065 30.7165 29.9222 30.6744 29.9275 30.6305C29.9327 30.5866 29.9273 30.5421 29.9116 30.5007L18.3527 1.07576C18.332 1.02411 18.296 0.979829 18.2495 0.948648C18.203 0.917467 18.1481 0.900825 18.092 0.900879H11.8374C11.7812 0.900825 11.7263 0.917467 11.6799 0.948648C11.6334 0.979829 11.5974 1.02411 11.5766 1.07576L0.0177345 30.5007C0.00194429 30.5426 -0.00341473 30.5876 0.00211188 30.6319C0.00763848 30.6762 0.023888 30.7186 0.0494802 30.7554C0.0750725 30.7921 0.109251 30.8223 0.149115 30.8432C0.188979 30.8641 0.233351 30.8752 0.278462 30.8755H6.88915C6.94515 30.8748 6.99964 30.8574 7.04561 30.8258C7.09158 30.7941 7.12692 30.7495 7.14708 30.6978L9.62819 24.2604H20.0881ZM11.2387 23.2604H20.7744L23.324 29.8755H28.5916L17.6025 1.90088H12.3269L1.33774 29.8755H6.39232L8.62819 24.0744V24.0679L8.68663 23.9069L14.7812 6.62593L19.5901 19.4754H18.1481C14.2632 19.4754 12.1913 21.7418 11.2387 23.2604ZM9.62819 24.2438C9.6591 24.1586 9.79975 23.7827 10.0833 23.2604C10.4352 22.6122 11.0071 21.7384 11.8626 20.9149C13.0283 19.7927 14.7205 18.7638 17.0995 18.5266C17.4352 18.4931 17.7846 18.4754 18.1481 18.4754L14.8091 9.55348L9.62819 24.2438ZM18.093 1.90088C18.0933 1.90088 18.0926 1.90088 18.093 1.90088Z" fill="white"/>
<path fill-rule="evenodd" clip-rule="evenodd" d="M130.361 1.06152C127.396 1.06152 124.498 1.93213 122.035 3.56215C119.571 5.19209 117.652 7.50775 116.52 10.2152C115.387 12.9225 115.091 15.9009 115.668 18.7743C116.246 21.6478 117.671 24.2886 119.765 26.3622C121.859 28.436 124.529 29.8494 127.437 30.422C130.344 30.9948 133.358 30.7007 136.097 29.5776C138.835 28.4545 141.174 26.5532 142.819 24.1157C144.464 21.6784 145.341 18.8138 145.341 15.8844C145.341 11.9563 143.765 8.18713 140.957 5.40652C138.148 2.62559 134.337 1.06152 130.361 1.06152ZM130.88 25.4218C130.539 26.5967 130.361 27.8229 130.361 29.0673C130.361 27.8229 130.183 26.5967 129.842 25.4218C129.224 23.2957 128.07 21.3379 126.461 19.7456C124.857 18.1572 122.886 17.016 120.745 16.403C119.553 16.0619 118.309 15.8844 117.047 15.8844C118.309 15.8844 119.553 15.7069 120.745 15.3658C122.886 14.7528 124.857 13.6116 126.461 12.0232C128.07 10.4308 129.224 8.47302 129.842 6.34691C130.183 5.17206 130.361 3.94582 130.361 2.70144C130.361 3.94582 130.539 5.17206 130.88 6.34691C131.498 8.47302 132.652 10.4308 134.26 12.0232C135.865 13.6116 137.836 14.7528 139.977 15.3658C141.168 15.7069 142.412 15.8844 143.675 15.8844C142.412 15.8844 141.168 16.0619 139.977 16.403C137.836 17.016 135.865 18.1572 134.26 19.7456C132.652 21.3379 131.498 23.2957 130.88 25.4218ZM143.675 14.8844V15.8844V16.8844C140.406 16.8844 137.273 18.1703 134.964 20.4562C132.656 22.7417 131.361 25.8394 131.361 29.0673H130.361H129.361C129.361 25.8394 128.066 22.7417 125.758 20.4562C123.449 18.1703 120.316 16.8844 117.047 16.8844V15.8844V14.8844C120.316 14.8844 123.449 13.5984 125.758 11.3126C128.066 9.02707 129.361 5.92935 129.361 2.70144H130.361H131.361C131.361 5.92935 132.656 9.02707 134.964 11.3126C137.273 13.5984 140.406 14.8844 143.675 14.8844ZM121.483 2.72816C124.111 0.989518 127.2 0.0615234 130.361 0.0615234C134.599 0.0615234 138.664 1.72857 141.661 4.69593C144.657 7.66329 146.341 11.6879 146.341 15.8844C146.341 19.0138 145.404 22.073 143.648 24.6751C141.892 27.2771 139.396 29.3052 136.476 30.5028C133.556 31.7004 130.343 32.0137 127.243 31.4032C124.144 30.7927 121.296 29.2857 119.061 27.0728C116.826 24.86 115.305 22.0406 114.688 18.9713C114.071 15.9019 114.388 12.7205 115.597 9.82923C116.807 6.93798 118.855 4.46679 121.483 2.72816Z" fill="white"/>
<path d="M86.9123 40.3458V47.4596C86.912 47.4864 86.901 47.5121 86.8818 47.531C86.8626 47.55 86.8366 47.5608 86.8094 47.5612H86.0601C85.8881 47.5613 85.7188 47.5188 85.5678 47.4377C85.4168 47.3565 85.2888 47.2391 85.1955 47.0964L81.7949 41.9067L81.9115 44.4989V47.4596C81.9112 47.4864 81.9002 47.5121 81.881 47.531C81.8618 47.55 81.8358 47.5608 81.8086 47.5612H80.8178C80.7906 47.5608 80.7646 47.55 80.7454 47.531C80.7262 47.5121 80.7152 47.4864 80.7148 47.4596V40.3458C80.7152 40.3189 80.7262 40.2933 80.7454 40.2743C80.7646 40.2553 80.7906 40.2445 80.8178 40.2441H81.5629C81.7347 40.2442 81.9038 40.2867 82.0548 40.3676C82.2057 40.4485 82.3339 40.5654 82.4275 40.7076L85.8282 45.8891L85.7225 43.3065V40.3458C85.7225 40.3188 85.7333 40.293 85.7527 40.2739C85.772 40.2548 85.7981 40.2441 85.8254 40.2441H86.8163C86.8422 40.2462 86.8665 40.2577 86.8843 40.2765C86.9021 40.2953 86.9121 40.32 86.9123 40.3458Z" fill="white"/>
<path d="M97.0371 47.5613H95.9887C95.9723 47.5611 95.9562 47.5571 95.9417 47.5496C95.9272 47.542 95.9147 47.5312 95.9053 47.5179C95.8959 47.5047 95.8899 47.4894 95.8877 47.4734C95.8854 47.4574 95.8871 47.441 95.8926 47.4258L98.6702 40.3418C98.6821 40.3121 98.703 40.2868 98.73 40.2694C98.7571 40.2519 98.7889 40.2431 98.8212 40.2442H100.135C100.166 40.2445 100.196 40.2539 100.222 40.2713C100.247 40.2887 100.267 40.3132 100.279 40.3418L103.048 47.4258C103.053 47.441 103.055 47.4574 103.053 47.4734C103.051 47.4894 103.045 47.5047 103.035 47.5179C103.026 47.5312 103.013 47.542 102.999 47.5496C102.984 47.5571 102.968 47.5611 102.952 47.5613H101.903C101.882 47.5614 101.862 47.5552 101.845 47.5436C101.827 47.532 101.814 47.5155 101.806 47.4963L99.5677 41.6697C99.5605 41.6501 99.5474 41.6331 99.5301 41.6212C99.5127 41.6092 99.4921 41.6028 99.471 41.6028C99.4498 41.6028 99.4292 41.6092 99.4119 41.6212C99.3946 41.6331 99.3814 41.6501 99.3742 41.6697L97.1359 47.4963C97.1281 47.5157 97.1145 47.5324 97.0968 47.544C97.0792 47.5556 97.0584 47.5617 97.0371 47.5613Z" fill="white"/>
<path d="M110.325 47.3972L108.242 44.7699C109.418 44.5504 110.106 43.7672 110.106 42.5653C110.106 41.1845 109.196 40.2441 107.586 40.2441H104.681C104.64 40.2441 104.601 40.2601 104.572 40.2886C104.544 40.3171 104.527 40.3557 104.527 40.3959C104.527 40.524 104.553 40.6509 104.603 40.7693C104.652 40.8876 104.725 40.9952 104.817 41.0858C104.908 41.1764 105.017 41.2482 105.137 41.2972C105.257 41.3463 105.386 41.3715 105.515 41.3715H107.466C108.439 41.3715 108.905 41.8634 108.905 42.5734C108.905 43.2834 108.449 43.7929 107.466 43.7929H104.681C104.64 43.7933 104.601 43.8096 104.572 43.8382C104.543 43.8669 104.527 43.9057 104.527 43.946V47.4691C104.527 47.496 104.538 47.5219 104.557 47.5409C104.577 47.56 104.603 47.5707 104.63 47.5707H105.621C105.648 47.5703 105.674 47.5595 105.693 47.5405C105.713 47.5215 105.724 47.4959 105.724 47.4691V44.8336H106.867L108.675 47.1628C108.771 47.2875 108.896 47.3883 109.039 47.4574C109.182 47.5265 109.339 47.562 109.498 47.5612H110.25C110.269 47.5602 110.287 47.5541 110.302 47.5436C110.318 47.5331 110.33 47.5187 110.338 47.5018C110.346 47.4849 110.349 47.4662 110.347 47.4478C110.344 47.4294 110.337 47.4119 110.325 47.3972Z" fill="white"/>
<path d="M93.9025 40.2441H89.3052C89.2688 40.2441 89.2339 40.2584 89.2082 40.2838C89.1824 40.3092 89.168 40.3437 89.168 40.3796C89.168 40.6431 89.274 40.8957 89.4626 41.082C89.6512 41.2682 89.9071 41.3729 90.1739 41.3729H93.9025C93.9161 41.373 93.9296 41.3705 93.9421 41.3655C93.9547 41.3605 93.9661 41.353 93.9757 41.3435C93.9853 41.334 93.9929 41.3228 93.998 41.3103C94.0031 41.2979 94.0057 41.2846 94.0055 41.2712V40.3458C94.0055 40.3188 93.9946 40.293 93.9753 40.2739C93.956 40.2548 93.9298 40.2441 93.9025 40.2441ZM93.9025 46.4325H90.4717C90.4445 46.4321 90.4185 46.4213 90.3993 46.4023C90.3801 46.3833 90.3691 46.3577 90.3688 46.3308V44.4962C90.3688 44.4692 90.3796 44.4434 90.3989 44.4243C90.4182 44.4052 90.4444 44.3945 90.4717 44.3945H93.6432C93.6705 44.3945 93.6966 44.3838 93.7159 44.3648C93.7353 44.3457 93.7461 44.3199 93.7461 44.2929V43.3607C93.7461 43.3337 93.7353 43.3079 93.7159 43.2888C93.6966 43.2697 93.6705 43.259 93.6432 43.259H89.3217C89.2808 43.2594 89.2417 43.2757 89.2129 43.3044C89.1841 43.333 89.168 43.3718 89.168 43.4122V47.404C89.168 47.4443 89.1842 47.4829 89.213 47.5113C89.2418 47.5398 89.2809 47.5558 89.3217 47.5558H93.9025C93.9298 47.5558 93.956 47.5451 93.9753 47.526C93.9946 47.507 94.0055 47.4811 94.0055 47.4542V46.5287C94.0044 46.5026 93.993 46.4779 93.9738 46.4599C93.9546 46.4419 93.929 46.4321 93.9025 46.4325Z" fill="white"/>
<path d="M73.3278 38.4244L70.7451 42.209C70.7032 42.2636 70.6839 42.3319 70.6909 42.4C70.698 42.4681 70.7309 42.5311 70.7831 42.5763C70.8352 42.6214 70.9028 42.6454 70.9721 42.6434C71.0414 42.6413 71.1074 42.6135 71.1568 42.5654L73.6984 40.3973C73.713 40.3841 73.7313 40.3753 73.7509 40.3722C73.7706 40.3691 73.7907 40.3718 73.8088 40.3799C73.8269 40.3879 73.8422 40.4011 73.8529 40.4177C73.8635 40.4343 73.8689 40.4536 73.8685 40.4732V47.2876C73.8683 47.3083 73.8617 47.3284 73.8496 47.3453C73.8375 47.3622 73.8205 47.375 73.8008 47.3821C73.7811 47.3891 73.7597 47.3901 73.7394 47.3848C73.7192 47.3796 73.701 47.3683 73.6874 47.3526L66.0023 38.274C65.8796 38.1283 65.7261 38.0108 65.5526 37.9298C65.3791 37.8488 65.1897 37.8063 64.9977 37.8052H64.7301C64.3811 37.8052 64.0463 37.9421 63.7995 38.1858C63.5527 38.4295 63.4141 38.76 63.4141 39.1047V48.7008C63.4141 49.0455 63.5527 49.376 63.7995 49.6197C64.0463 49.8634 64.3811 50.0003 64.7301 50.0003C64.955 50.0003 65.1762 49.9433 65.3725 49.8349C65.5687 49.7265 65.7336 49.5703 65.8513 49.3811L68.4341 45.5965C68.4759 45.5419 68.4953 45.4736 68.4882 45.4055C68.4812 45.3374 68.4483 45.2744 68.3961 45.2292C68.344 45.1841 68.2764 45.1601 68.2071 45.1621C68.1377 45.1642 68.0717 45.192 68.0224 45.2401L65.4808 47.4082C65.4662 47.4214 65.4479 47.4302 65.4282 47.4333C65.4086 47.4364 65.3885 47.4337 65.3704 47.4256C65.3522 47.4176 65.3369 47.4044 65.3263 47.3878C65.3157 47.3712 65.3102 47.3519 65.3106 47.3323V40.5247C65.3108 40.504 65.3174 40.4839 65.3295 40.467C65.3417 40.4501 65.3587 40.4373 65.3784 40.4302C65.3981 40.4231 65.4195 40.4222 65.4397 40.4274C65.46 40.4327 65.4782 40.4439 65.4918 40.4597L73.1769 49.5382C73.3005 49.6827 73.4546 49.7987 73.6283 49.8783C73.802 49.9579 73.9913 49.999 74.1828 49.9989H74.4573C74.6301 49.9989 74.8012 49.9653 74.9609 49.9C75.1206 49.8347 75.2657 49.739 75.3879 49.6183C75.5101 49.4977 75.607 49.3544 75.6732 49.1968C75.7393 49.0391 75.7733 48.8701 75.7733 48.6995V39.1047C75.7733 38.9333 75.739 38.7637 75.6724 38.6055C75.6057 38.4473 75.508 38.3037 75.385 38.1829C75.2619 38.0621 75.1158 37.9666 74.9552 37.9018C74.7946 37.8369 74.6226 37.8041 74.449 37.8052C74.2241 37.8052 74.003 37.8622 73.8067 37.9706C73.6104 38.079 73.4456 38.2352 73.3278 38.4244Z" fill="white"/>
<path d="M0.748047 49.5567V42.2397H1.53796V43.085H1.63496C1.69502 42.9926 1.77817 42.8748 1.88441 42.7316C1.99297 42.5861 2.14771 42.4568 2.34866 42.3436C2.55191 42.2281 2.82676 42.1704 3.17321 42.1704C3.62129 42.1704 4.01625 42.2824 4.35808 42.5064C4.69991 42.7305 4.96668 43.048 5.15839 43.4592C5.35009 43.8703 5.44594 44.3553 5.44594 44.9143C5.44594 45.4778 5.35009 45.9663 5.15839 46.3798C4.96668 46.7909 4.70107 47.1096 4.36154 47.336C4.02202 47.56 3.63053 47.672 3.18707 47.672C2.84524 47.672 2.57154 47.6154 2.36598 47.5023C2.16042 47.3868 2.0022 47.2563 1.89134 47.1108C1.78047 46.963 1.69502 46.8405 1.63496 46.7435H1.56567V49.5567H0.748047ZM1.55182 44.9004C1.55182 45.3023 1.61071 45.6568 1.72851 45.964C1.8463 46.2689 2.01837 46.5079 2.24472 46.6812C2.47107 46.8521 2.74823 46.9376 3.07621 46.9376C3.41804 46.9376 3.70329 46.8475 3.93194 46.6673C4.16291 46.4849 4.33614 46.24 4.45162 45.9328C4.56942 45.6233 4.62831 45.2792 4.62831 44.9004C4.62831 44.5262 4.57057 44.189 4.45509 43.8888C4.34191 43.5862 4.16984 43.3471 3.93887 43.1716C3.71021 42.9938 3.42266 42.9048 3.07621 42.9048C2.74361 42.9048 2.46414 42.9891 2.23779 43.1578C2.01144 43.3241 1.84053 43.5573 1.72504 43.8576C1.60956 44.1555 1.55182 44.5031 1.55182 44.9004Z" fill="white"/>
<path d="M8.85503 47.672C8.37462 47.672 7.9531 47.5577 7.59048 47.329C7.23017 47.1004 6.94839 46.7805 6.74514 46.3694C6.54419 45.9582 6.44372 45.4778 6.44372 44.9281C6.44372 44.3738 6.54419 43.8899 6.74514 43.4765C6.94839 43.0631 7.23017 42.742 7.59048 42.5134C7.9531 42.2847 8.37462 42.1704 8.85503 42.1704C9.33545 42.1704 9.75581 42.2847 10.1161 42.5134C10.4787 42.742 10.7605 43.0631 10.9615 43.4765C11.1647 43.8899 11.2663 44.3738 11.2663 44.9281C11.2663 45.4778 11.1647 45.9582 10.9615 46.3694C10.7605 46.7805 10.4787 47.1004 10.1161 47.329C9.75581 47.5577 9.33545 47.672 8.85503 47.672ZM8.85503 46.9376C9.21996 46.9376 9.52022 46.844 9.75581 46.6569C9.99139 46.4698 10.1658 46.2239 10.2789 45.919C10.3921 45.6141 10.4487 45.2838 10.4487 44.9281C10.4487 44.5724 10.3921 44.241 10.2789 43.9338C10.1658 43.6266 9.99139 43.3783 9.75581 43.1889C9.52022 42.9995 9.21996 42.9048 8.85503 42.9048C8.4901 42.9048 8.18984 42.9995 7.95426 43.1889C7.71867 43.3783 7.54429 43.6266 7.43111 43.9338C7.31794 44.241 7.26135 44.5724 7.26135 44.9281C7.26135 45.2838 7.31794 45.6141 7.43111 45.919C7.54429 46.2239 7.71867 46.4698 7.95426 46.6569C8.18984 46.844 8.4901 46.9376 8.85503 46.9376Z" fill="white"/>
<path d="M13.5391 47.5612L11.9177 42.2397H12.7769L13.9271 46.3139H13.9825L15.1189 42.2397H15.9919L17.1145 46.3001H17.1699L18.3201 42.2397H19.1793L17.5579 47.5612H16.7541L15.5901 43.473H15.5069L14.3428 47.5612H13.5391Z" fill="white"/>
<path d="M22.3104 47.672C21.7976 47.672 21.3553 47.5589 20.9835 47.3325C20.6139 47.1038 20.3287 46.7851 20.1277 46.3763C19.9291 45.9652 19.8298 45.4871 19.8298 44.942C19.8298 44.3969 19.9291 43.9165 20.1277 43.5007C20.3287 43.0827 20.6081 42.757 20.9661 42.5237C21.3265 42.2882 21.7468 42.1704 22.2272 42.1704C22.5044 42.1704 22.7781 42.2166 23.0483 42.3089C23.3186 42.4013 23.5645 42.5515 23.7863 42.7593C24.008 42.9649 24.1847 43.2374 24.3163 43.577C24.448 43.9165 24.5138 44.3345 24.5138 44.8311V45.1776H20.4118V44.4708H23.6823C23.6823 44.1706 23.6223 43.9026 23.5022 43.667C23.3844 43.4315 23.2158 43.2455 22.9963 43.1093C22.7792 42.973 22.5229 42.9048 22.2272 42.9048C21.9016 42.9048 21.6198 42.9857 21.3819 43.1474C21.1463 43.3067 20.965 43.5146 20.838 43.771C20.7109 44.0274 20.6474 44.3022 20.6474 44.5955V45.0667C20.6474 45.4686 20.7167 45.8093 20.8553 46.0887C20.9962 46.3659 21.1913 46.5772 21.4408 46.7227C21.6902 46.866 21.9801 46.9376 22.3104 46.9376C22.5252 46.9376 22.7192 46.9075 22.8924 46.8475C23.0679 46.7851 23.2192 46.6927 23.3463 46.5703C23.4733 46.4456 23.5715 46.2908 23.6408 46.1061L24.4307 46.3278C24.3475 46.5957 24.2078 46.8313 24.0115 47.0346C23.8151 47.2355 23.5726 47.3926 23.2839 47.5057C22.9952 47.6166 22.6707 47.672 22.3104 47.672Z" fill="white"/>
<path d="M25.7576 47.5612V42.2397H26.5475V43.0434H26.6029C26.6999 42.7801 26.8755 42.5665 27.1295 42.4025C27.3836 42.2385 27.67 42.1565 27.9887 42.1565C28.0488 42.1565 28.1238 42.1577 28.2139 42.16C28.304 42.1623 28.3721 42.1657 28.4183 42.1704V43.0019C28.3906 42.9949 28.3271 42.9845 28.2278 42.9707C28.1308 42.9545 28.028 42.9464 27.9194 42.9464C27.6607 42.9464 27.4298 43.0007 27.2265 43.1093C27.0256 43.2155 26.8662 43.3633 26.7484 43.5527C26.6329 43.7398 26.5752 43.9534 26.5752 44.1936V47.5612H25.7576Z" fill="white"/>
<path d="M31.4567 47.672C30.944 47.672 30.5017 47.5589 30.1298 47.3325C29.7603 47.1038 29.475 46.7851 29.2741 46.3763C29.0754 45.9652 28.9761 45.4871 28.9761 44.942C28.9761 44.3969 29.0754 43.9165 29.2741 43.5007C29.475 43.0827 29.7545 42.757 30.1125 42.5237C30.4728 42.2882 30.8932 42.1704 31.3736 42.1704C31.6507 42.1704 31.9244 42.2166 32.1947 42.3089C32.4649 42.4013 32.7109 42.5515 32.9326 42.7593C33.1543 42.9649 33.331 43.2374 33.4627 43.577C33.5943 43.9165 33.6602 44.3345 33.6602 44.8311V45.1776H29.5582V44.4708H32.8287C32.8287 44.1706 32.7686 43.9026 32.6485 43.667C32.5307 43.4315 32.3621 43.2455 32.1427 43.1093C31.9256 42.973 31.6692 42.9048 31.3736 42.9048C31.0479 42.9048 30.7661 42.9857 30.5282 43.1474C30.2926 43.3067 30.1113 43.5146 29.9843 43.771C29.8573 44.0274 29.7937 44.3022 29.7937 44.5955V45.0667C29.7937 45.4686 29.863 45.8093 30.0016 46.0887C30.1425 46.3659 30.3377 46.5772 30.5871 46.7227C30.8366 46.866 31.1264 46.9376 31.4567 46.9376C31.6715 46.9376 31.8655 46.9075 32.0388 46.8475C32.2143 46.7851 32.3656 46.6927 32.4926 46.5703C32.6196 46.4456 32.7178 46.2908 32.7871 46.1061L33.577 46.3278C33.4939 46.5957 33.3541 46.8313 33.1578 47.0346C32.9615 47.2355 32.719 47.3926 32.4302 47.5057C32.1415 47.6166 31.817 47.672 31.4567 47.672Z" fill="white"/>
<path d="M36.9133 47.672C36.4699 47.672 36.0784 47.56 35.7389 47.336C35.3993 47.1096 35.1337 46.7909 34.942 46.3798C34.7503 45.9663 34.6545 45.4778 34.6545 44.9143C34.6545 44.3553 34.7503 43.8703 34.942 43.4592C35.1337 43.048 35.4005 42.7305 35.7423 42.5064C36.0842 42.2824 36.4791 42.1704 36.9272 42.1704C37.2737 42.1704 37.5473 42.2281 37.7483 42.3436C37.9515 42.4568 38.1063 42.5861 38.2125 42.7316C38.3211 42.8748 38.4054 42.9926 38.4654 43.085H38.5347V40.4658H39.3524V47.5612H38.5625V46.7435H38.4654C38.4054 46.8405 38.3199 46.963 38.2091 47.1108C38.0982 47.2563 37.94 47.3868 37.7344 47.5023C37.5289 47.6154 37.2552 47.672 36.9133 47.672ZM37.0242 46.9376C37.3522 46.9376 37.6293 46.8521 37.8557 46.6812C38.082 46.5079 38.2541 46.2689 38.3719 45.964C38.4897 45.6568 38.5486 45.3023 38.5486 44.9004C38.5486 44.5031 38.4909 44.1555 38.3754 43.8576C38.2599 43.5573 38.089 43.3241 37.8626 43.1578C37.6363 42.9891 37.3568 42.9048 37.0242 42.9048C36.6777 42.9048 36.389 42.9938 36.1581 43.1716C35.9294 43.3471 35.7573 43.5862 35.6419 43.8888C35.5287 44.189 35.4721 44.5262 35.4721 44.9004C35.4721 45.2792 35.5298 45.6233 35.6453 45.9328C35.7631 46.24 35.9363 46.4849 36.165 46.6673C36.396 46.8475 36.6824 46.9376 37.0242 46.9376Z" fill="white"/>
<path d="M43.8181 47.5612V40.4658H44.6358V43.085H44.7051C44.7651 42.9926 44.8483 42.8748 44.9545 42.7316C45.063 42.5861 45.2178 42.4568 45.4187 42.3436C45.622 42.2281 45.8968 42.1704 46.2433 42.1704C46.6914 42.1704 47.0863 42.2824 47.4282 42.5064C47.77 42.7305 48.0368 43.048 48.2285 43.4592C48.4202 43.8703 48.516 44.3553 48.516 44.9143C48.516 45.4778 48.4202 45.9663 48.2285 46.3798C48.0368 46.7909 47.7712 47.1096 47.4316 47.336C47.0921 47.56 46.7006 47.672 46.2572 47.672C45.9153 47.672 45.6416 47.6154 45.4361 47.5023C45.2305 47.3868 45.0723 47.2563 44.9614 47.1108C44.8506 46.963 44.7651 46.8405 44.7051 46.7435H44.608V47.5612H43.8181ZM44.6219 44.9004C44.6219 45.3023 44.6808 45.6568 44.7986 45.964C44.9164 46.2689 45.0885 46.5079 45.3148 46.6812C45.5412 46.8521 45.8183 46.9376 46.1463 46.9376C46.4881 46.9376 46.7734 46.8475 47.002 46.6673C47.233 46.4849 47.4062 46.24 47.5217 45.9328C47.6395 45.6233 47.6984 45.2792 47.6984 44.9004C47.6984 44.5262 47.6407 44.189 47.5252 43.8888C47.412 43.5862 47.2399 43.3471 47.009 43.1716C46.7803 42.9938 46.4927 42.9048 46.1463 42.9048C45.8137 42.9048 45.5342 42.9891 45.3079 43.1578C45.0815 43.3241 44.9106 43.5573 44.7951 43.8576C44.6796 44.1555 44.6219 44.5031 44.6219 44.9004Z" fill="white"/>
<path d="M50.1028 49.5567C49.9642 49.5567 49.8406 49.5452 49.7321 49.5221C49.6235 49.5013 49.5485 49.4805 49.5069 49.4597L49.7148 48.7391C49.9134 48.7899 50.0889 48.8084 50.2414 48.7945C50.3938 48.7807 50.5289 48.7125 50.6467 48.5901C50.7668 48.47 50.8765 48.2749 50.9758 48.0046L51.1283 47.5889L49.1604 42.2397H50.0473L51.5163 46.4802H51.5717L53.0407 42.2397H53.9276L51.6687 48.3372C51.5671 48.6121 51.4412 48.8396 51.2911 49.0197C51.141 49.2022 50.9666 49.3373 50.768 49.4251C50.5716 49.5128 50.3499 49.5567 50.1028 49.5567Z" fill="white"/>
</svg>
