<svg width="147" height="51" viewBox="0 0 147 51" fill="none" xmlns="http://www.w3.org/2000/svg">
<path d="M105.516 19.7771C108.987 18.2559 110.966 15.3828 110.966 11.0746C110.966 6.91065 108.724 3.9404 105.253 2.7634C103.495 2.15547 100.767 1.89453 97.8712 1.89453H88.0421C87.9677 1.89453 87.8964 1.92378 87.8438 1.97584C87.7913 2.0279 87.7617 2.0985 87.7617 2.17213V10.5555C87.7617 10.5555 87.7617 15.5133 92.7688 15.5133C92.7688 15.5133 87.7617 15.5133 87.7617 20.4711V31.5971C87.7617 31.6707 87.7913 31.7413 87.8438 31.7934C87.8964 31.8454 87.9677 31.8747 88.0421 31.8747H94.3388C94.4131 31.8747 94.4844 31.8454 94.537 31.7934C94.5896 31.7413 94.6191 31.6707 94.6191 31.5971V21.0846H98.9618L105.166 31.7359C105.19 31.7778 105.226 31.8127 105.268 31.8371C105.31 31.8614 105.358 31.8744 105.407 31.8747H112.315C112.364 31.8744 112.412 31.8613 112.455 31.8369C112.497 31.8124 112.532 31.7773 112.556 31.7352C112.581 31.693 112.594 31.6453 112.594 31.5967C112.594 31.5481 112.581 31.5004 112.556 31.4583L105.516 19.7771ZM102.088 14.9414C101.123 15.3773 99.629 15.4966 97.6021 15.4966H94.6191V7.724H97.4759C99.1019 7.724 100.683 7.89889 101.737 8.24866C103.232 8.77053 104.022 9.8587 104.022 11.5104C104.022 13.2509 103.447 14.2947 102.088 14.9414Z" fill="white"/>
<path d="M58.125 2.17213V7.66849C58.125 7.74211 58.1545 7.81272 58.2071 7.86477C58.2597 7.91683 58.331 7.94608 58.4054 7.94608H71.8342C66.8271 7.94608 66.8271 12.9039 66.8271 12.9039V31.5971C66.8271 31.6707 66.8567 31.7413 66.9092 31.7934C66.9618 31.8454 67.0331 31.8747 67.1075 31.8747H73.3621C73.4365 31.8747 73.5078 31.8454 73.5604 31.7934C73.6129 31.7413 73.6425 31.6707 73.6425 31.5971V7.9433H82.3334C82.4077 7.9433 82.479 7.91406 82.5316 7.862C82.5842 7.80994 82.6137 7.73933 82.6137 7.66571V2.17213C82.6137 2.0985 82.5842 2.0279 82.5316 1.97584C82.479 1.92378 82.4077 1.89453 82.3334 1.89453H58.4054C58.331 1.89453 58.2597 1.92378 58.2071 1.97584C58.1545 2.0279 58.125 2.0985 58.125 2.17213Z" fill="white"/>
<path d="M46.7082 14.0247L42.6796 12.7977C39.7106 11.9205 39.1359 11.085 39.1359 9.81361C39.1359 8.2341 40.0218 6.96272 43.6215 6.96272C46.6802 6.96272 50.8434 8.14804 53.1899 10.2938H53.3666V3.5844C53.367 3.54384 53.3584 3.50368 53.3414 3.46675C53.3245 3.42982 53.2996 3.39702 53.2684 3.37065C51.5611 1.98268 47.3278 1 44.3308 1C36.2259 1 32.1523 5.03344 32.1523 10.2522C32.1523 14.6382 34.454 17.664 39.7218 19.1546L43.5318 20.2511C46.5877 21.0839 47.9614 21.8306 47.9614 23.4962C47.9614 25.778 46.1895 26.3915 43.1758 26.3915C40.2825 26.3915 36.181 25.4394 33.0971 23.1603C33.0483 23.1257 32.9896 23.1076 32.9297 23.1085C32.8697 23.1094 32.8115 23.1293 32.7639 23.1654C32.7162 23.2014 32.6814 23.2516 32.6647 23.3087C32.648 23.3658 32.6502 23.4266 32.671 23.4823L35.7072 31.2105C35.7221 31.2489 35.7455 31.2835 35.7755 31.3118C35.8056 31.3401 35.8416 31.3615 35.881 31.3743C38.1208 32.1064 40.4639 32.4812 42.8225 32.4847C51.6816 32.4847 54.959 27.835 54.959 22.9688C54.9477 18.63 52.9993 15.954 46.7082 14.0247Z" fill="white"/>
<path d="M29.9116 31.5007L18.3527 2.07576C18.332 2.02411 18.296 1.97983 18.2495 1.94865C18.203 1.91747 18.1481 1.90083 18.092 1.90088H11.8374C11.7812 1.90083 11.7263 1.91747 11.6799 1.94865C11.6334 1.97983 11.5974 2.02411 11.5766 2.07576L0.0177345 31.5007C0.00194429 31.5426 -0.00341473 31.5876 0.00211188 31.6319C0.00763848 31.6762 0.023888 31.7186 0.0494802 31.7554C0.0750725 31.7921 0.109251 31.8223 0.149115 31.8432C0.188979 31.8641 0.233351 31.8752 0.278462 31.8755H6.88915C6.94515 31.8748 6.99964 31.8574 7.04561 31.8258C7.09158 31.7941 7.12692 31.7495 7.14708 31.6978L9.62819 25.2604V25.2438L14.8091 10.5535L18.1481 19.4754C11.7953 19.4754 9.75715 24.8884 9.62819 25.2438V25.2604H20.0881L22.5692 31.6978C22.5894 31.7495 22.6247 31.7941 22.6707 31.8258C22.7167 31.8574 22.7711 31.8748 22.8271 31.8755H29.6565C29.7011 31.8743 29.7448 31.8626 29.784 31.8413C29.8231 31.82 29.8566 31.7898 29.8815 31.7531C29.9065 31.7165 29.9222 31.6744 29.9275 31.6305C29.9327 31.5866 29.9273 31.5421 29.9116 31.5007Z" fill="white"/>
<path d="M119.173 5.696C116.938 7.93085 115.409 10.7717 114.781 13.8593C114.152 16.9469 114.451 20.1426 115.64 23.0423C116.829 25.9419 118.855 28.4153 121.461 30.1497C124.068 31.884 127.137 32.8014 130.282 32.7859C133.428 32.7704 136.506 31.8226 139.13 30.0624C141.754 28.3022 143.804 25.8086 145.022 22.8971C146.24 19.9855 146.571 16.7867 145.972 13.7051C145.374 10.6236 143.874 7.79771 141.661 5.58484C138.693 2.61748 134.657 0.962141 130.44 0.982988C126.222 1.00383 122.169 2.69916 119.173 5.696ZM139.683 26.2062C137.211 23.7339 133.848 22.3548 130.334 22.3721C126.82 22.3895 123.444 23.802 120.947 26.2988C123.444 23.802 124.856 20.4253 124.873 16.9116C124.891 13.3979 123.512 10.035 121.039 7.5627C123.512 10.035 126.875 11.4141 130.388 11.3968C133.902 11.3794 137.279 9.96694 139.775 7.4701C137.279 9.96694 135.866 13.3436 135.849 16.8573C135.831 20.371 137.211 23.7339 139.683 26.2062Z" fill="white"/>
<path d="M86.9123 41.3458V48.4596C86.912 48.4864 86.901 48.5121 86.8818 48.531C86.8626 48.55 86.8366 48.5608 86.8094 48.5612H86.0601C85.8881 48.5613 85.7188 48.5188 85.5678 48.4377C85.4168 48.3565 85.2888 48.2391 85.1955 48.0964L81.7949 42.9067L81.9115 45.4989V48.4596C81.9112 48.4864 81.9002 48.5121 81.881 48.531C81.8618 48.55 81.8358 48.5608 81.8086 48.5612H80.8178C80.7906 48.5608 80.7646 48.55 80.7454 48.531C80.7262 48.5121 80.7152 48.4864 80.7148 48.4596V41.3458C80.7152 41.3189 80.7262 41.2933 80.7454 41.2743C80.7646 41.2553 80.7906 41.2445 80.8178 41.2441H81.5629C81.7347 41.2442 81.9038 41.2867 82.0548 41.3676C82.2057 41.4485 82.3339 41.5654 82.4275 41.7076L85.8282 46.8891L85.7225 44.3065V41.3458C85.7225 41.3188 85.7333 41.293 85.7527 41.2739C85.772 41.2548 85.7981 41.2441 85.8254 41.2441H86.8163C86.8422 41.2462 86.8665 41.2577 86.8843 41.2765C86.9021 41.2953 86.9121 41.32 86.9123 41.3458Z" fill="white"/>
<path d="M97.0371 48.5613H95.9887C95.9723 48.5611 95.9562 48.5571 95.9417 48.5496C95.9272 48.542 95.9147 48.5312 95.9053 48.5179C95.8959 48.5047 95.8899 48.4894 95.8877 48.4734C95.8854 48.4574 95.8871 48.441 95.8926 48.4258L98.6702 41.3418C98.6821 41.3121 98.703 41.2868 98.73 41.2694C98.7571 41.2519 98.7889 41.2431 98.8212 41.2442H100.135C100.166 41.2445 100.196 41.2539 100.222 41.2713C100.247 41.2887 100.267 41.3132 100.279 41.3418L103.048 48.4258C103.053 48.441 103.055 48.4574 103.053 48.4734C103.051 48.4894 103.045 48.5047 103.035 48.5179C103.026 48.5312 103.013 48.542 102.999 48.5496C102.984 48.5571 102.968 48.5611 102.952 48.5613H101.903C101.882 48.5614 101.862 48.5552 101.845 48.5436C101.827 48.532 101.814 48.5155 101.806 48.4963L99.5677 42.6697C99.5605 42.6501 99.5474 42.6331 99.5301 42.6212C99.5127 42.6092 99.4921 42.6028 99.471 42.6028C99.4498 42.6028 99.4292 42.6092 99.4119 42.6212C99.3946 42.6331 99.3814 42.6501 99.3742 42.6697L97.1359 48.4963C97.1281 48.5157 97.1145 48.5324 97.0968 48.544C97.0792 48.5556 97.0584 48.5617 97.0371 48.5613Z" fill="white"/>
<path d="M110.325 48.3972L108.242 45.7699C109.418 45.5504 110.106 44.7672 110.106 43.5653C110.106 42.1845 109.196 41.2441 107.586 41.2441H104.681C104.64 41.2441 104.601 41.2601 104.572 41.2886C104.544 41.3171 104.527 41.3557 104.527 41.3959C104.527 41.524 104.553 41.6509 104.603 41.7693C104.652 41.8876 104.725 41.9952 104.817 42.0858C104.908 42.1764 105.017 42.2482 105.137 42.2972C105.257 42.3463 105.386 42.3715 105.515 42.3715H107.466C108.439 42.3715 108.905 42.8634 108.905 43.5734C108.905 44.2834 108.449 44.7929 107.466 44.7929H104.681C104.64 44.7933 104.601 44.8096 104.572 44.8382C104.543 44.8669 104.527 44.9057 104.527 44.946V48.4691C104.527 48.496 104.538 48.5219 104.557 48.5409C104.577 48.56 104.603 48.5707 104.63 48.5707H105.621C105.648 48.5703 105.674 48.5595 105.693 48.5405C105.713 48.5215 105.724 48.4959 105.724 48.4691V45.8336H106.867L108.675 48.1628C108.771 48.2875 108.896 48.3883 109.039 48.4574C109.182 48.5265 109.339 48.562 109.498 48.5612H110.25C110.269 48.5602 110.287 48.5541 110.302 48.5436C110.318 48.5331 110.33 48.5187 110.338 48.5018C110.346 48.4849 110.349 48.4662 110.347 48.4478C110.344 48.4294 110.337 48.4119 110.325 48.3972Z" fill="white"/>
<path d="M93.9025 41.2441H89.3052C89.2688 41.2441 89.2339 41.2584 89.2082 41.2838C89.1824 41.3092 89.168 41.3437 89.168 41.3796C89.168 41.6431 89.274 41.8957 89.4626 42.082C89.6512 42.2682 89.9071 42.3729 90.1739 42.3729H93.9025C93.9161 42.373 93.9296 42.3705 93.9421 42.3655C93.9547 42.3605 93.9661 42.353 93.9757 42.3435C93.9853 42.334 93.9929 42.3228 93.998 42.3103C94.0031 42.2979 94.0057 42.2846 94.0055 42.2712V41.3458C94.0055 41.3188 93.9946 41.293 93.9753 41.2739C93.956 41.2548 93.9298 41.2441 93.9025 41.2441ZM93.9025 47.4325H90.4717C90.4445 47.4321 90.4185 47.4213 90.3993 47.4023C90.3801 47.3833 90.3691 47.3577 90.3688 47.3308V45.4962C90.3688 45.4692 90.3796 45.4434 90.3989 45.4243C90.4182 45.4052 90.4444 45.3945 90.4717 45.3945H93.6432C93.6705 45.3945 93.6966 45.3838 93.7159 45.3648C93.7353 45.3457 93.7461 45.3199 93.7461 45.2929V44.3607C93.7461 44.3337 93.7353 44.3079 93.7159 44.2888C93.6966 44.2697 93.6705 44.259 93.6432 44.259H89.3217C89.2808 44.2594 89.2417 44.2757 89.2129 44.3044C89.1841 44.333 89.168 44.3718 89.168 44.4122V48.404C89.168 48.4443 89.1842 48.4829 89.213 48.5113C89.2418 48.5398 89.2809 48.5558 89.3217 48.5558H93.9025C93.9298 48.5558 93.956 48.5451 93.9753 48.526C93.9946 48.507 94.0055 48.4811 94.0055 48.4542V47.5287C94.0044 47.5026 93.993 47.4779 93.9738 47.4599C93.9546 47.4419 93.929 47.4321 93.9025 47.4325Z" fill="white"/>
<path d="M73.3278 39.4244L70.7451 43.209C70.7032 43.2636 70.6839 43.3319 70.6909 43.4C70.698 43.4681 70.7309 43.5311 70.7831 43.5763C70.8352 43.6214 70.9028 43.6454 70.9721 43.6434C71.0414 43.6413 71.1074 43.6135 71.1568 43.5654L73.6984 41.3973C73.713 41.3841 73.7313 41.3753 73.7509 41.3722C73.7706 41.3691 73.7907 41.3718 73.8088 41.3799C73.8269 41.3879 73.8422 41.4011 73.8529 41.4177C73.8635 41.4343 73.8689 41.4536 73.8685 41.4732V48.2876C73.8683 48.3083 73.8617 48.3284 73.8496 48.3453C73.8375 48.3622 73.8205 48.375 73.8008 48.3821C73.7811 48.3891 73.7597 48.3901 73.7394 48.3848C73.7192 48.3796 73.701 48.3683 73.6874 48.3526L66.0023 39.274C65.8796 39.1283 65.7261 39.0108 65.5526 38.9298C65.3791 38.8488 65.1897 38.8063 64.9977 38.8052H64.7301C64.3811 38.8052 64.0463 38.9421 63.7995 39.1858C63.5527 39.4295 63.4141 39.76 63.4141 40.1047V49.7008C63.4141 50.0455 63.5527 50.376 63.7995 50.6197C64.0463 50.8634 64.3811 51.0003 64.7301 51.0003C64.955 51.0003 65.1762 50.9433 65.3725 50.8349C65.5687 50.7265 65.7336 50.5703 65.8513 50.3811L68.4341 46.5965C68.4759 46.5419 68.4953 46.4736 68.4882 46.4055C68.4812 46.3374 68.4483 46.2744 68.3961 46.2292C68.344 46.1841 68.2764 46.1601 68.2071 46.1621C68.1377 46.1642 68.0717 46.192 68.0224 46.2401L65.4808 48.4082C65.4662 48.4214 65.4479 48.4302 65.4282 48.4333C65.4086 48.4364 65.3885 48.4337 65.3704 48.4256C65.3522 48.4176 65.3369 48.4044 65.3263 48.3878C65.3157 48.3712 65.3102 48.3519 65.3106 48.3323V41.5247C65.3108 41.504 65.3174 41.4839 65.3295 41.467C65.3417 41.4501 65.3587 41.4373 65.3784 41.4302C65.3981 41.4231 65.4195 41.4222 65.4397 41.4274C65.46 41.4327 65.4782 41.4439 65.4918 41.4597L73.1769 50.5382C73.3005 50.6827 73.4546 50.7987 73.6283 50.8783C73.802 50.9579 73.9913 50.999 74.1828 50.9989H74.4573C74.6301 50.9989 74.8012 50.9653 74.9609 50.9C75.1206 50.8347 75.2657 50.739 75.3879 50.6183C75.5101 50.4977 75.607 50.3544 75.6732 50.1968C75.7393 50.0391 75.7733 49.8701 75.7733 49.6995V40.1047C75.7733 39.9333 75.739 39.7637 75.6724 39.6055C75.6057 39.4473 75.508 39.3037 75.385 39.1829C75.2619 39.0621 75.1158 38.9666 74.9552 38.9018C74.7946 38.8369 74.6226 38.8041 74.449 38.8052C74.2241 38.8052 74.003 38.8622 73.8067 38.9706C73.6104 39.079 73.4456 39.2352 73.3278 39.4244Z" fill="white"/>
<path d="M0.748047 50.5567V43.2397H1.53796V44.085H1.63496C1.69502 43.9926 1.77817 43.8748 1.88441 43.7316C1.99297 43.5861 2.14771 43.4568 2.34866 43.3436C2.55191 43.2281 2.82676 43.1704 3.17321 43.1704C3.62129 43.1704 4.01625 43.2824 4.35808 43.5064C4.69991 43.7305 4.96668 44.048 5.15839 44.4592C5.35009 44.8703 5.44594 45.3553 5.44594 45.9143C5.44594 46.4778 5.35009 46.9663 5.15839 47.3798C4.96668 47.7909 4.70107 48.1096 4.36154 48.336C4.02202 48.56 3.63053 48.672 3.18707 48.672C2.84524 48.672 2.57154 48.6154 2.36598 48.5023C2.16042 48.3868 2.0022 48.2563 1.89134 48.1108C1.78047 47.963 1.69502 47.8405 1.63496 47.7435H1.56567V50.5567H0.748047ZM1.55182 45.9004C1.55182 46.3023 1.61071 46.6568 1.72851 46.964C1.8463 47.2689 2.01837 47.5079 2.24472 47.6812C2.47107 47.8521 2.74823 47.9376 3.07621 47.9376C3.41804 47.9376 3.70329 47.8475 3.93194 47.6673C4.16291 47.4849 4.33614 47.24 4.45162 46.9328C4.56942 46.6233 4.62831 46.2792 4.62831 45.9004C4.62831 45.5262 4.57057 45.189 4.45509 44.8888C4.34191 44.5862 4.16984 44.3471 3.93887 44.1716C3.71021 43.9938 3.42266 43.9048 3.07621 43.9048C2.74361 43.9048 2.46414 43.9891 2.23779 44.1578C2.01144 44.3241 1.84053 44.5573 1.72504 44.8576C1.60956 45.1555 1.55182 45.5031 1.55182 45.9004Z" fill="white"/>
<path d="M8.85503 48.672C8.37462 48.672 7.9531 48.5577 7.59048 48.329C7.23017 48.1004 6.94839 47.7805 6.74514 47.3694C6.54419 46.9582 6.44372 46.4778 6.44372 45.9281C6.44372 45.3738 6.54419 44.8899 6.74514 44.4765C6.94839 44.0631 7.23017 43.742 7.59048 43.5134C7.9531 43.2847 8.37462 43.1704 8.85503 43.1704C9.33545 43.1704 9.75581 43.2847 10.1161 43.5134C10.4787 43.742 10.7605 44.0631 10.9615 44.4765C11.1647 44.8899 11.2663 45.3738 11.2663 45.9281C11.2663 46.4778 11.1647 46.9582 10.9615 47.3694C10.7605 47.7805 10.4787 48.1004 10.1161 48.329C9.75581 48.5577 9.33545 48.672 8.85503 48.672ZM8.85503 47.9376C9.21996 47.9376 9.52022 47.844 9.75581 47.6569C9.99139 47.4698 10.1658 47.2239 10.2789 46.919C10.3921 46.6141 10.4487 46.2838 10.4487 45.9281C10.4487 45.5724 10.3921 45.241 10.2789 44.9338C10.1658 44.6266 9.99139 44.3783 9.75581 44.1889C9.52022 43.9995 9.21996 43.9048 8.85503 43.9048C8.4901 43.9048 8.18984 43.9995 7.95426 44.1889C7.71867 44.3783 7.54429 44.6266 7.43111 44.9338C7.31794 45.241 7.26135 45.5724 7.26135 45.9281C7.26135 46.2838 7.31794 46.6141 7.43111 46.919C7.54429 47.2239 7.71867 47.4698 7.95426 47.6569C8.18984 47.844 8.4901 47.9376 8.85503 47.9376Z" fill="white"/>
<path d="M13.5391 48.5612L11.9177 43.2397H12.7769L13.9271 47.3139H13.9825L15.1189 43.2397H15.9919L17.1145 47.3001H17.1699L18.3201 43.2397H19.1793L17.5579 48.5612H16.7541L15.5901 44.473H15.5069L14.3428 48.5612H13.5391Z" fill="white"/>
<path d="M22.3104 48.672C21.7976 48.672 21.3553 48.5589 20.9835 48.3325C20.6139 48.1038 20.3287 47.7851 20.1277 47.3763C19.9291 46.9652 19.8298 46.4871 19.8298 45.942C19.8298 45.3969 19.9291 44.9165 20.1277 44.5007C20.3287 44.0827 20.6081 43.757 20.9661 43.5237C21.3265 43.2882 21.7468 43.1704 22.2272 43.1704C22.5044 43.1704 22.7781 43.2166 23.0483 43.3089C23.3186 43.4013 23.5645 43.5515 23.7863 43.7593C24.008 43.9649 24.1847 44.2374 24.3163 44.577C24.448 44.9165 24.5138 45.3345 24.5138 45.8311V46.1776H20.4118V45.4708H23.6823C23.6823 45.1706 23.6223 44.9026 23.5022 44.667C23.3844 44.4315 23.2158 44.2455 22.9963 44.1093C22.7792 43.973 22.5229 43.9048 22.2272 43.9048C21.9016 43.9048 21.6198 43.9857 21.3819 44.1474C21.1463 44.3067 20.965 44.5146 20.838 44.771C20.7109 45.0274 20.6474 45.3022 20.6474 45.5955V46.0667C20.6474 46.4686 20.7167 46.8093 20.8553 47.0887C20.9962 47.3659 21.1913 47.5772 21.4408 47.7227C21.6902 47.866 21.9801 47.9376 22.3104 47.9376C22.5252 47.9376 22.7192 47.9075 22.8924 47.8475C23.0679 47.7851 23.2192 47.6927 23.3463 47.5703C23.4733 47.4456 23.5715 47.2908 23.6408 47.1061L24.4307 47.3278C24.3475 47.5957 24.2078 47.8313 24.0115 48.0346C23.8151 48.2355 23.5726 48.3926 23.2839 48.5057C22.9952 48.6166 22.6707 48.672 22.3104 48.672Z" fill="white"/>
<path d="M25.7576 48.5612V43.2397H26.5475V44.0434H26.6029C26.6999 43.7801 26.8755 43.5665 27.1295 43.4025C27.3836 43.2385 27.67 43.1565 27.9887 43.1565C28.0488 43.1565 28.1238 43.1577 28.2139 43.16C28.304 43.1623 28.3721 43.1657 28.4183 43.1704V44.0019C28.3906 43.9949 28.3271 43.9845 28.2278 43.9707C28.1308 43.9545 28.028 43.9464 27.9194 43.9464C27.6607 43.9464 27.4298 44.0007 27.2265 44.1093C27.0256 44.2155 26.8662 44.3633 26.7484 44.5527C26.6329 44.7398 26.5752 44.9534 26.5752 45.1936V48.5612H25.7576Z" fill="white"/>
<path d="M31.4567 48.672C30.944 48.672 30.5017 48.5589 30.1298 48.3325C29.7603 48.1038 29.475 47.7851 29.2741 47.3763C29.0754 46.9652 28.9761 46.4871 28.9761 45.942C28.9761 45.3969 29.0754 44.9165 29.2741 44.5007C29.475 44.0827 29.7545 43.757 30.1125 43.5237C30.4728 43.2882 30.8932 43.1704 31.3736 43.1704C31.6507 43.1704 31.9244 43.2166 32.1947 43.3089C32.4649 43.4013 32.7109 43.5515 32.9326 43.7593C33.1543 43.9649 33.331 44.2374 33.4627 44.577C33.5943 44.9165 33.6602 45.3345 33.6602 45.8311V46.1776H29.5582V45.4708H32.8287C32.8287 45.1706 32.7686 44.9026 32.6485 44.667C32.5307 44.4315 32.3621 44.2455 32.1427 44.1093C31.9256 43.973 31.6692 43.9048 31.3736 43.9048C31.0479 43.9048 30.7661 43.9857 30.5282 44.1474C30.2926 44.3067 30.1113 44.5146 29.9843 44.771C29.8573 45.0274 29.7937 45.3022 29.7937 45.5955V46.0667C29.7937 46.4686 29.863 46.8093 30.0016 47.0887C30.1425 47.3659 30.3377 47.5772 30.5871 47.7227C30.8366 47.866 31.1264 47.9376 31.4567 47.9376C31.6715 47.9376 31.8655 47.9075 32.0388 47.8475C32.2143 47.7851 32.3656 47.6927 32.4926 47.5703C32.6196 47.4456 32.7178 47.2908 32.7871 47.1061L33.577 47.3278C33.4939 47.5957 33.3541 47.8313 33.1578 48.0346C32.9615 48.2355 32.719 48.3926 32.4302 48.5057C32.1415 48.6166 31.817 48.672 31.4567 48.672Z" fill="white"/>
<path d="M36.9133 48.672C36.4699 48.672 36.0784 48.56 35.7389 48.336C35.3993 48.1096 35.1337 47.7909 34.942 47.3798C34.7503 46.9663 34.6545 46.4778 34.6545 45.9143C34.6545 45.3553 34.7503 44.8703 34.942 44.4592C35.1337 44.048 35.4005 43.7305 35.7423 43.5064C36.0842 43.2824 36.4791 43.1704 36.9272 43.1704C37.2737 43.1704 37.5473 43.2281 37.7483 43.3436C37.9515 43.4568 38.1063 43.5861 38.2125 43.7316C38.3211 43.8748 38.4054 43.9926 38.4654 44.085H38.5347V41.4658H39.3524V48.5612H38.5625V47.7435H38.4654C38.4054 47.8405 38.3199 47.963 38.2091 48.1108C38.0982 48.2563 37.94 48.3868 37.7344 48.5023C37.5289 48.6154 37.2552 48.672 36.9133 48.672ZM37.0242 47.9376C37.3522 47.9376 37.6293 47.8521 37.8557 47.6812C38.082 47.5079 38.2541 47.2689 38.3719 46.964C38.4897 46.6568 38.5486 46.3023 38.5486 45.9004C38.5486 45.5031 38.4909 45.1555 38.3754 44.8576C38.2599 44.5573 38.089 44.3241 37.8626 44.1578C37.6363 43.9891 37.3568 43.9048 37.0242 43.9048C36.6777 43.9048 36.389 43.9938 36.1581 44.1716C35.9294 44.3471 35.7573 44.5862 35.6419 44.8888C35.5287 45.189 35.4721 45.5262 35.4721 45.9004C35.4721 46.2792 35.5298 46.6233 35.6453 46.9328C35.7631 47.24 35.9363 47.4849 36.165 47.6673C36.396 47.8475 36.6824 47.9376 37.0242 47.9376Z" fill="white"/>
<path d="M43.8181 48.5612V41.4658H44.6358V44.085H44.7051C44.7651 43.9926 44.8483 43.8748 44.9545 43.7316C45.063 43.5861 45.2178 43.4568 45.4187 43.3436C45.622 43.2281 45.8968 43.1704 46.2433 43.1704C46.6914 43.1704 47.0863 43.2824 47.4282 43.5064C47.77 43.7305 48.0368 44.048 48.2285 44.4592C48.4202 44.8703 48.516 45.3553 48.516 45.9143C48.516 46.4778 48.4202 46.9663 48.2285 47.3798C48.0368 47.7909 47.7712 48.1096 47.4316 48.336C47.0921 48.56 46.7006 48.672 46.2572 48.672C45.9153 48.672 45.6416 48.6154 45.4361 48.5023C45.2305 48.3868 45.0723 48.2563 44.9614 48.1108C44.8506 47.963 44.7651 47.8405 44.7051 47.7435H44.608V48.5612H43.8181ZM44.6219 45.9004C44.6219 46.3023 44.6808 46.6568 44.7986 46.964C44.9164 47.2689 45.0885 47.5079 45.3148 47.6812C45.5412 47.8521 45.8183 47.9376 46.1463 47.9376C46.4881 47.9376 46.7734 47.8475 47.002 47.6673C47.233 47.4849 47.4062 47.24 47.5217 46.9328C47.6395 46.6233 47.6984 46.2792 47.6984 45.9004C47.6984 45.5262 47.6407 45.189 47.5252 44.8888C47.412 44.5862 47.2399 44.3471 47.009 44.1716C46.7803 43.9938 46.4927 43.9048 46.1463 43.9048C45.8137 43.9048 45.5342 43.9891 45.3079 44.1578C45.0815 44.3241 44.9106 44.5573 44.7951 44.8576C44.6796 45.1555 44.6219 45.5031 44.6219 45.9004Z" fill="white"/>
<path d="M50.1028 50.5567C49.9642 50.5567 49.8406 50.5452 49.7321 50.5221C49.6235 50.5013 49.5485 50.4805 49.5069 50.4597L49.7148 49.7391C49.9134 49.7899 50.0889 49.8084 50.2414 49.7945C50.3938 49.7807 50.5289 49.7125 50.6467 49.5901C50.7668 49.47 50.8765 49.2749 50.9758 49.0046L51.1283 48.5889L49.1604 43.2397H50.0473L51.5163 47.4802H51.5717L53.0407 43.2397H53.9276L51.6687 49.3372C51.5671 49.6121 51.4412 49.8396 51.2911 50.0197C51.141 50.2022 50.9666 50.3373 50.768 50.4251C50.5716 50.5128 50.3499 50.5567 50.1028 50.5567Z" fill="white"/>
</svg>
