<svg width="269" height="50" viewBox="0 0 269 50" fill="none" xmlns="http://www.w3.org/2000/svg">
<path d="M227.516 18.7771C230.987 17.2559 232.966 14.3828 232.966 10.0746C232.966 5.91065 230.724 2.9404 227.253 1.7634C225.495 1.15547 222.767 0.894531 219.871 0.894531H210.042C209.968 0.894531 209.896 0.923777 209.844 0.975836C209.791 1.0279 209.762 1.0985 209.762 1.17213V9.55546C209.762 9.55546 209.762 14.5133 214.769 14.5133C214.769 14.5133 209.762 14.5133 209.762 19.4711V30.5971C209.762 30.6707 209.791 30.7413 209.844 30.7934C209.896 30.8454 209.968 30.8747 210.042 30.8747H216.339C216.413 30.8747 216.484 30.8454 216.537 30.7934C216.59 30.7413 216.619 30.6707 216.619 30.5971V20.0846H220.962L227.166 30.7359C227.19 30.7778 227.226 30.8127 227.268 30.8371C227.31 30.8614 227.358 30.8744 227.407 30.8747H234.315C234.364 30.8744 234.412 30.8613 234.455 30.8369C234.497 30.8124 234.532 30.7773 234.556 30.7352C234.581 30.693 234.594 30.6453 234.594 30.5967C234.594 30.5481 234.581 30.5004 234.556 30.4583L227.516 18.7771ZM224.088 13.9414C223.123 14.3773 221.629 14.4966 219.602 14.4966H216.619V6.724H219.476C221.102 6.724 222.683 6.89889 223.737 7.24866C225.232 7.77053 226.022 8.8587 226.022 10.5104C226.022 12.2509 225.447 13.2947 224.088 13.9414Z" fill="white"/>
<path d="M180.125 1.17213V6.66849C180.125 6.74211 180.155 6.81272 180.207 6.86477C180.26 6.91683 180.331 6.94608 180.405 6.94608H193.834C188.827 6.94608 188.827 11.9039 188.827 11.9039V30.5971C188.827 30.6707 188.857 30.7413 188.909 30.7934C188.962 30.8454 189.033 30.8747 189.107 30.8747H195.362C195.436 30.8747 195.508 30.8454 195.56 30.7934C195.613 30.7413 195.642 30.6707 195.642 30.5971V6.9433H204.333C204.408 6.9433 204.479 6.91406 204.532 6.862C204.584 6.80994 204.614 6.73933 204.614 6.66571V1.17213C204.614 1.0985 204.584 1.0279 204.532 0.975836C204.479 0.923777 204.408 0.894531 204.333 0.894531H180.405C180.331 0.894531 180.26 0.923777 180.207 0.975836C180.155 1.0279 180.125 1.0985 180.125 1.17213Z" fill="white"/>
<path d="M168.708 13.0247L164.68 11.7977C161.711 10.9205 161.136 10.085 161.136 8.81361C161.136 7.2341 162.022 5.96272 165.622 5.96272C168.68 5.96272 172.843 7.14804 175.19 9.29384H175.367V2.5844C175.367 2.54384 175.358 2.50368 175.341 2.46675C175.324 2.42982 175.3 2.39702 175.268 2.37065C173.561 0.982683 169.328 0 166.331 0C158.226 0 154.152 4.03344 154.152 9.2522C154.152 13.6382 156.454 16.664 161.722 18.1546L165.532 19.2511C168.588 20.0839 169.961 20.8306 169.961 22.4962C169.961 24.778 168.19 25.3915 165.176 25.3915C162.283 25.3915 158.181 24.4394 155.097 22.1603C155.048 22.1257 154.99 22.1076 154.93 22.1085C154.87 22.1094 154.812 22.1293 154.764 22.1654C154.716 22.2014 154.681 22.2516 154.665 22.3087C154.648 22.3658 154.65 22.4266 154.671 22.4823L157.707 30.2105C157.722 30.2489 157.745 30.2835 157.776 30.3118C157.806 30.3401 157.842 30.3615 157.881 30.3743C160.121 31.1064 162.464 31.4812 164.823 31.4847C173.682 31.4847 176.959 26.835 176.959 21.9688C176.948 17.63 174.999 14.954 168.708 13.0247Z" fill="white"/>
<path d="M151.912 30.5007L140.353 1.07576C140.332 1.02411 140.296 0.979829 140.25 0.948648C140.203 0.917467 140.148 0.900825 140.092 0.900879H133.837C133.781 0.900825 133.726 0.917467 133.68 0.948648C133.633 0.979829 133.597 1.02411 133.577 1.07576L122.018 30.5007C122.002 30.5426 121.997 30.5876 122.002 30.6319C122.008 30.6762 122.024 30.7186 122.049 30.7554C122.075 30.7921 122.109 30.8223 122.149 30.8432C122.189 30.8641 122.233 30.8752 122.278 30.8755H128.889C128.945 30.8748 129 30.8574 129.046 30.8258C129.092 30.7941 129.127 30.7495 129.147 30.6978L131.628 24.2604V24.2438L136.809 9.55348L140.148 18.4754C133.795 18.4754 131.757 23.8884 131.628 24.2438V24.2604H142.088L144.569 30.6978C144.589 30.7495 144.625 30.7941 144.671 30.8258C144.717 30.8574 144.771 30.8748 144.827 30.8755H151.657C151.701 30.8743 151.745 30.8626 151.784 30.8413C151.823 30.82 151.857 30.7898 151.882 30.7531C151.906 30.7165 151.922 30.6744 151.927 30.6305C151.933 30.5866 151.927 30.5421 151.912 30.5007Z" fill="white"/>
<path d="M252.361 0.0615234C249.2 0.0615234 246.111 0.989518 243.483 2.72816C240.855 4.46679 238.807 6.93798 237.597 9.82923C236.388 12.7205 236.071 15.9019 236.688 18.9713C237.305 22.0406 238.826 24.86 241.061 27.0728C243.296 29.2857 246.144 30.7927 249.243 31.4032C252.343 32.0137 255.556 31.7004 258.476 30.5028C261.396 29.3052 263.892 27.2771 265.648 24.6751C267.404 22.073 268.341 19.0138 268.341 15.8844C268.341 11.6879 266.657 7.66329 263.661 4.69593C260.664 1.72857 256.599 0.0615234 252.361 0.0615234ZM252.361 29.0673C252.361 25.571 250.958 22.2178 248.461 19.7456C245.965 17.2733 242.578 15.8844 239.047 15.8844C242.578 15.8844 245.965 14.4955 248.461 12.0232C250.958 9.5509 252.361 6.19777 252.361 2.70144C252.361 6.19777 253.764 9.5509 256.26 12.0232C258.757 14.4955 262.144 15.8844 265.675 15.8844C262.144 15.8844 258.757 17.2733 256.26 19.7456C253.764 22.2178 252.361 25.571 252.361 29.0673Z" fill="white"/>
<path d="M208.912 40.3458V47.4596C208.912 47.4864 208.901 47.5121 208.882 47.531C208.863 47.55 208.837 47.5608 208.809 47.5612H208.06C207.888 47.5613 207.719 47.5188 207.568 47.4377C207.417 47.3565 207.289 47.2391 207.196 47.0964L203.795 41.9067L203.912 44.4989V47.4596C203.911 47.4864 203.9 47.5121 203.881 47.531C203.862 47.55 203.836 47.5608 203.809 47.5612H202.818C202.791 47.5608 202.765 47.55 202.745 47.531C202.726 47.5121 202.715 47.4864 202.715 47.4596V40.3458C202.715 40.3189 202.726 40.2933 202.745 40.2743C202.765 40.2553 202.791 40.2445 202.818 40.2441H203.563C203.735 40.2442 203.904 40.2867 204.055 40.3676C204.206 40.4485 204.334 40.5654 204.428 40.7076L207.828 45.8891L207.723 43.3065V40.3458C207.723 40.3188 207.733 40.293 207.753 40.2739C207.772 40.2548 207.798 40.2441 207.825 40.2441H208.816C208.842 40.2462 208.866 40.2577 208.884 40.2765C208.902 40.2953 208.912 40.32 208.912 40.3458Z" fill="white"/>
<path d="M219.037 47.5613H217.989C217.972 47.5611 217.956 47.5571 217.942 47.5496C217.927 47.542 217.915 47.5312 217.905 47.5179C217.896 47.5047 217.89 47.4894 217.888 47.4734C217.885 47.4574 217.887 47.441 217.893 47.4258L220.67 40.3418C220.682 40.3121 220.703 40.2868 220.73 40.2694C220.757 40.2519 220.789 40.2431 220.821 40.2442H222.135C222.166 40.2445 222.196 40.2539 222.222 40.2713C222.247 40.2887 222.267 40.3132 222.279 40.3418L225.048 47.4258C225.053 47.441 225.055 47.4574 225.053 47.4734C225.051 47.4894 225.045 47.5047 225.035 47.5179C225.026 47.5312 225.013 47.542 224.999 47.5496C224.984 47.5571 224.968 47.5611 224.952 47.5613H223.903C223.882 47.5614 223.862 47.5552 223.845 47.5436C223.827 47.532 223.814 47.5155 223.806 47.4963L221.568 41.6697C221.561 41.6501 221.547 41.6331 221.53 41.6212C221.513 41.6092 221.492 41.6028 221.471 41.6028C221.45 41.6028 221.429 41.6092 221.412 41.6212C221.395 41.6331 221.381 41.6501 221.374 41.6697L219.136 47.4963C219.128 47.5157 219.114 47.5324 219.097 47.544C219.079 47.5556 219.058 47.5617 219.037 47.5613Z" fill="white"/>
<path d="M232.325 47.3972L230.242 44.7699C231.418 44.5504 232.106 43.7672 232.106 42.5653C232.106 41.1845 231.196 40.2441 229.586 40.2441H226.681C226.64 40.2441 226.601 40.2601 226.572 40.2886C226.544 40.3171 226.527 40.3557 226.527 40.3959C226.527 40.524 226.553 40.6509 226.603 40.7693C226.652 40.8876 226.725 40.9952 226.817 41.0858C226.908 41.1764 227.017 41.2482 227.137 41.2972C227.257 41.3463 227.386 41.3715 227.515 41.3715H229.466C230.439 41.3715 230.905 41.8634 230.905 42.5734C230.905 43.2834 230.449 43.7929 229.466 43.7929H226.681C226.64 43.7933 226.601 43.8096 226.572 43.8382C226.543 43.8669 226.527 43.9057 226.527 43.946V47.4691C226.527 47.496 226.538 47.5219 226.557 47.5409C226.577 47.56 226.603 47.5707 226.63 47.5707H227.621C227.648 47.5703 227.674 47.5595 227.693 47.5405C227.713 47.5215 227.724 47.4959 227.724 47.4691V44.8336H228.867L230.675 47.1628C230.771 47.2875 230.896 47.3883 231.039 47.4574C231.182 47.5265 231.339 47.562 231.498 47.5612H232.25C232.269 47.5602 232.287 47.5541 232.302 47.5436C232.318 47.5331 232.33 47.5187 232.338 47.5018C232.346 47.4849 232.349 47.4662 232.347 47.4478C232.344 47.4294 232.337 47.4119 232.325 47.3972Z" fill="white"/>
<path d="M215.903 40.2441H211.305C211.269 40.2441 211.234 40.2584 211.208 40.2838C211.182 40.3092 211.168 40.3437 211.168 40.3796C211.168 40.6431 211.274 40.8957 211.463 41.082C211.651 41.2682 211.907 41.3729 212.174 41.3729H215.903C215.916 41.373 215.93 41.3705 215.942 41.3655C215.955 41.3605 215.966 41.353 215.976 41.3435C215.985 41.334 215.993 41.3228 215.998 41.3103C216.003 41.2979 216.006 41.2846 216.005 41.2712V40.3458C216.005 40.3188 215.995 40.293 215.975 40.2739C215.956 40.2548 215.93 40.2441 215.903 40.2441ZM215.903 46.4325H212.472C212.445 46.4321 212.419 46.4213 212.399 46.4023C212.38 46.3833 212.369 46.3577 212.369 46.3308V44.4962C212.369 44.4692 212.38 44.4434 212.399 44.4243C212.418 44.4052 212.444 44.3945 212.472 44.3945H215.643C215.67 44.3945 215.697 44.3838 215.716 44.3648C215.735 44.3457 215.746 44.3199 215.746 44.2929V43.3607C215.746 43.3337 215.735 43.3079 215.716 43.2888C215.697 43.2697 215.67 43.259 215.643 43.259H211.322C211.281 43.2594 211.242 43.2757 211.213 43.3044C211.184 43.333 211.168 43.3718 211.168 43.4122V47.404C211.168 47.4443 211.184 47.4829 211.213 47.5113C211.242 47.5398 211.281 47.5558 211.322 47.5558H215.903C215.93 47.5558 215.956 47.5451 215.975 47.526C215.995 47.507 216.005 47.4811 216.005 47.4542V46.5287C216.004 46.5026 215.993 46.4779 215.974 46.4599C215.955 46.4419 215.929 46.4321 215.903 46.4325Z" fill="white"/>
<path d="M195.328 38.4244L192.745 42.209C192.703 42.2636 192.684 42.3319 192.691 42.4C192.698 42.4681 192.731 42.5311 192.783 42.5763C192.835 42.6214 192.903 42.6454 192.972 42.6434C193.041 42.6413 193.107 42.6135 193.157 42.5654L195.698 40.3973C195.713 40.3841 195.731 40.3753 195.751 40.3722C195.771 40.3691 195.791 40.3718 195.809 40.3799C195.827 40.3879 195.842 40.4011 195.853 40.4177C195.863 40.4343 195.869 40.4536 195.869 40.4732V47.2876C195.868 47.3083 195.862 47.3284 195.85 47.3453C195.838 47.3622 195.82 47.375 195.801 47.3821C195.781 47.3891 195.76 47.3901 195.739 47.3848C195.719 47.3796 195.701 47.3683 195.687 47.3526L188.002 38.274C187.88 38.1283 187.726 38.0108 187.553 37.9298C187.379 37.8488 187.19 37.8063 186.998 37.8052H186.73C186.381 37.8052 186.046 37.9421 185.8 38.1858C185.553 38.4295 185.414 38.76 185.414 39.1047V48.7008C185.414 49.0455 185.553 49.376 185.8 49.6197C186.046 49.8634 186.381 50.0003 186.73 50.0003C186.955 50.0003 187.176 49.9433 187.372 49.8349C187.569 49.7265 187.734 49.5703 187.851 49.3811L190.434 45.5965C190.476 45.5419 190.495 45.4736 190.488 45.4055C190.481 45.3374 190.448 45.2744 190.396 45.2292C190.344 45.1841 190.276 45.1601 190.207 45.1621C190.138 45.1642 190.072 45.192 190.022 45.2401L187.481 47.4082C187.466 47.4214 187.448 47.4302 187.428 47.4333C187.409 47.4364 187.388 47.4337 187.37 47.4256C187.352 47.4176 187.337 47.4044 187.326 47.3878C187.316 47.3712 187.31 47.3519 187.311 47.3323V40.5247C187.311 40.504 187.317 40.4839 187.33 40.467C187.342 40.4501 187.359 40.4373 187.378 40.4302C187.398 40.4231 187.419 40.4222 187.44 40.4274C187.46 40.4327 187.478 40.4439 187.492 40.4597L195.177 49.5382C195.3 49.6827 195.455 49.7987 195.628 49.8783C195.802 49.9579 195.991 49.999 196.183 49.9989H196.457C196.63 49.9989 196.801 49.9653 196.961 49.9C197.121 49.8347 197.266 49.739 197.388 49.6183C197.51 49.4977 197.607 49.3544 197.673 49.1968C197.739 49.0391 197.773 48.8701 197.773 48.6995V39.1047C197.773 38.9333 197.739 38.7637 197.672 38.6055C197.606 38.4473 197.508 38.3037 197.385 38.1829C197.262 38.0621 197.116 37.9666 196.955 37.9018C196.795 37.8369 196.623 37.8041 196.449 37.8052C196.224 37.8052 196.003 37.8622 195.807 37.9706C195.61 38.079 195.446 38.2352 195.328 38.4244Z" fill="white"/>
<path d="M122.748 49.5567V42.2397H123.538V43.085H123.635C123.695 42.9926 123.778 42.8748 123.884 42.7316C123.993 42.5861 124.148 42.4568 124.349 42.3436C124.552 42.2281 124.827 42.1704 125.173 42.1704C125.621 42.1704 126.016 42.2824 126.358 42.5064C126.7 42.7305 126.967 43.048 127.158 43.4592C127.35 43.8703 127.446 44.3553 127.446 44.9143C127.446 45.4778 127.35 45.9663 127.158 46.3798C126.967 46.7909 126.701 47.1096 126.362 47.336C126.022 47.56 125.631 47.672 125.187 47.672C124.845 47.672 124.572 47.6154 124.366 47.5023C124.16 47.3868 124.002 47.2563 123.891 47.1108C123.78 46.963 123.695 46.8405 123.635 46.7435H123.566V49.5567H122.748ZM123.552 44.9004C123.552 45.3023 123.611 45.6568 123.729 45.964C123.846 46.2689 124.018 46.5079 124.245 46.6812C124.471 46.8521 124.748 46.9376 125.076 46.9376C125.418 46.9376 125.703 46.8475 125.932 46.6673C126.163 46.4849 126.336 46.24 126.452 45.9328C126.569 45.6233 126.628 45.2792 126.628 44.9004C126.628 44.5262 126.571 44.189 126.455 43.8888C126.342 43.5862 126.17 43.3471 125.939 43.1716C125.71 42.9938 125.423 42.9048 125.076 42.9048C124.744 42.9048 124.464 42.9891 124.238 43.1578C124.011 43.3241 123.841 43.5573 123.725 43.8576C123.61 44.1555 123.552 44.5031 123.552 44.9004Z" fill="white"/>
<path d="M130.855 47.672C130.375 47.672 129.953 47.5577 129.59 47.329C129.23 47.1004 128.948 46.7805 128.745 46.3694C128.544 45.9582 128.444 45.4778 128.444 44.9281C128.444 44.3738 128.544 43.8899 128.745 43.4765C128.948 43.0631 129.23 42.742 129.59 42.5134C129.953 42.2847 130.375 42.1704 130.855 42.1704C131.335 42.1704 131.756 42.2847 132.116 42.5134C132.479 42.742 132.761 43.0631 132.961 43.4765C133.165 43.8899 133.266 44.3738 133.266 44.9281C133.266 45.4778 133.165 45.9582 132.961 46.3694C132.761 46.7805 132.479 47.1004 132.116 47.329C131.756 47.5577 131.335 47.672 130.855 47.672ZM130.855 46.9376C131.22 46.9376 131.52 46.844 131.756 46.6569C131.991 46.4698 132.166 46.2239 132.279 45.919C132.392 45.6141 132.449 45.2838 132.449 44.9281C132.449 44.5724 132.392 44.241 132.279 43.9338C132.166 43.6266 131.991 43.3783 131.756 43.1889C131.52 42.9995 131.22 42.9048 130.855 42.9048C130.49 42.9048 130.19 42.9995 129.954 43.1889C129.719 43.3783 129.544 43.6266 129.431 43.9338C129.318 44.241 129.261 44.5724 129.261 44.9281C129.261 45.2838 129.318 45.6141 129.431 45.919C129.544 46.2239 129.719 46.4698 129.954 46.6569C130.19 46.844 130.49 46.9376 130.855 46.9376Z" fill="white"/>
<path d="M135.539 47.5612L133.918 42.2397H134.777L135.927 46.3139H135.983L137.119 42.2397H137.992L139.114 46.3001H139.17L140.32 42.2397H141.179L139.558 47.5612H138.754L137.59 43.473H137.507L136.343 47.5612H135.539Z" fill="white"/>
<path d="M144.31 47.672C143.798 47.672 143.355 47.5589 142.983 47.3325C142.614 47.1038 142.329 46.7851 142.128 46.3763C141.929 45.9652 141.83 45.4871 141.83 44.942C141.83 44.3969 141.929 43.9165 142.128 43.5007C142.329 43.0827 142.608 42.757 142.966 42.5237C143.326 42.2882 143.747 42.1704 144.227 42.1704C144.504 42.1704 144.778 42.2166 145.048 42.3089C145.319 42.4013 145.565 42.5515 145.786 42.7593C146.008 42.9649 146.185 43.2374 146.316 43.577C146.448 43.9165 146.514 44.3345 146.514 44.8311V45.1776H142.412V44.4708H145.682C145.682 44.1706 145.622 43.9026 145.502 43.667C145.384 43.4315 145.216 43.2455 144.996 43.1093C144.779 42.973 144.523 42.9048 144.227 42.9048C143.902 42.9048 143.62 42.9857 143.382 43.1474C143.146 43.3067 142.965 43.5146 142.838 43.771C142.711 44.0274 142.647 44.3022 142.647 44.5955V45.0667C142.647 45.4686 142.717 45.8093 142.855 46.0887C142.996 46.3659 143.191 46.5772 143.441 46.7227C143.69 46.866 143.98 46.9376 144.31 46.9376C144.525 46.9376 144.719 46.9075 144.892 46.8475C145.068 46.7851 145.219 46.6927 145.346 46.5703C145.473 46.4456 145.571 46.2908 145.641 46.1061L146.431 46.3278C146.348 46.5957 146.208 46.8313 146.011 47.0346C145.815 47.2355 145.573 47.3926 145.284 47.5057C144.995 47.6166 144.671 47.672 144.31 47.672Z" fill="white"/>
<path d="M147.758 47.5612V42.2397H148.547V43.0434H148.603C148.7 42.7801 148.875 42.5665 149.13 42.4025C149.384 42.2385 149.67 42.1565 149.989 42.1565C150.049 42.1565 150.124 42.1577 150.214 42.16C150.304 42.1623 150.372 42.1657 150.418 42.1704V43.0019C150.391 42.9949 150.327 42.9845 150.228 42.9707C150.131 42.9545 150.028 42.9464 149.919 42.9464C149.661 42.9464 149.43 43.0007 149.227 43.1093C149.026 43.2155 148.866 43.3633 148.748 43.5527C148.633 43.7398 148.575 43.9534 148.575 44.1936V47.5612H147.758Z" fill="white"/>
<path d="M153.457 47.672C152.944 47.672 152.502 47.5589 152.13 47.3325C151.76 47.1038 151.475 46.7851 151.274 46.3763C151.075 45.9652 150.976 45.4871 150.976 44.942C150.976 44.3969 151.075 43.9165 151.274 43.5007C151.475 43.0827 151.754 42.757 152.112 42.5237C152.473 42.2882 152.893 42.1704 153.374 42.1704C153.651 42.1704 153.924 42.2166 154.195 42.3089C154.465 42.4013 154.711 42.5515 154.933 42.7593C155.154 42.9649 155.331 43.2374 155.463 43.577C155.594 43.9165 155.66 44.3345 155.66 44.8311V45.1776H151.558V44.4708H154.829C154.829 44.1706 154.769 43.9026 154.649 43.667C154.531 43.4315 154.362 43.2455 154.143 43.1093C153.926 42.973 153.669 42.9048 153.374 42.9048C153.048 42.9048 152.766 42.9857 152.528 43.1474C152.293 43.3067 152.111 43.5146 151.984 43.771C151.857 44.0274 151.794 44.3022 151.794 44.5955V45.0667C151.794 45.4686 151.863 45.8093 152.002 46.0887C152.143 46.3659 152.338 46.5772 152.587 46.7227C152.837 46.866 153.126 46.9376 153.457 46.9376C153.672 46.9376 153.866 46.9075 154.039 46.8475C154.214 46.7851 154.366 46.6927 154.493 46.5703C154.62 46.4456 154.718 46.2908 154.787 46.1061L155.577 46.3278C155.494 46.5957 155.354 46.8313 155.158 47.0346C154.961 47.2355 154.719 47.3926 154.43 47.5057C154.142 47.6166 153.817 47.672 153.457 47.672Z" fill="white"/>
<path d="M158.913 47.672C158.47 47.672 158.078 47.56 157.739 47.336C157.399 47.1096 157.134 46.7909 156.942 46.3798C156.75 45.9663 156.654 45.4778 156.654 44.9143C156.654 44.3553 156.75 43.8703 156.942 43.4592C157.134 43.048 157.4 42.7305 157.742 42.5064C158.084 42.2824 158.479 42.1704 158.927 42.1704C159.274 42.1704 159.547 42.2281 159.748 42.3436C159.952 42.4568 160.106 42.5861 160.213 42.7316C160.321 42.8748 160.405 42.9926 160.465 43.085H160.535V40.4658H161.352V47.5612H160.562V46.7435H160.465C160.405 46.8405 160.32 46.963 160.209 47.1108C160.098 47.2563 159.94 47.3868 159.734 47.5023C159.529 47.6154 159.255 47.672 158.913 47.672ZM159.024 46.9376C159.352 46.9376 159.629 46.8521 159.856 46.6812C160.082 46.5079 160.254 46.2689 160.372 45.964C160.49 45.6568 160.549 45.3023 160.549 44.9004C160.549 44.5031 160.491 44.1555 160.375 43.8576C160.26 43.5573 160.089 43.3241 159.863 43.1578C159.636 42.9891 159.357 42.9048 159.024 42.9048C158.678 42.9048 158.389 42.9938 158.158 43.1716C157.929 43.3471 157.757 43.5862 157.642 43.8888C157.529 44.189 157.472 44.5262 157.472 44.9004C157.472 45.2792 157.53 45.6233 157.645 45.9328C157.763 46.24 157.936 46.4849 158.165 46.6673C158.396 46.8475 158.682 46.9376 159.024 46.9376Z" fill="white"/>
<path d="M165.818 47.5612V40.4658H166.636V43.085H166.705C166.765 42.9926 166.848 42.8748 166.954 42.7316C167.063 42.5861 167.218 42.4568 167.419 42.3436C167.622 42.2281 167.897 42.1704 168.243 42.1704C168.691 42.1704 169.086 42.2824 169.428 42.5064C169.77 42.7305 170.037 43.048 170.228 43.4592C170.42 43.8703 170.516 44.3553 170.516 44.9143C170.516 45.4778 170.42 45.9663 170.228 46.3798C170.037 46.7909 169.771 47.1096 169.432 47.336C169.092 47.56 168.701 47.672 168.257 47.672C167.915 47.672 167.642 47.6154 167.436 47.5023C167.231 47.3868 167.072 47.2563 166.961 47.1108C166.851 46.963 166.765 46.8405 166.705 46.7435H166.608V47.5612H165.818ZM166.622 44.9004C166.622 45.3023 166.681 45.6568 166.799 45.964C166.916 46.2689 167.088 46.5079 167.315 46.6812C167.541 46.8521 167.818 46.9376 168.146 46.9376C168.488 46.9376 168.773 46.8475 169.002 46.6673C169.233 46.4849 169.406 46.24 169.522 45.9328C169.64 45.6233 169.698 45.2792 169.698 44.9004C169.698 44.5262 169.641 44.189 169.525 43.8888C169.412 43.5862 169.24 43.3471 169.009 43.1716C168.78 42.9938 168.493 42.9048 168.146 42.9048C167.814 42.9048 167.534 42.9891 167.308 43.1578C167.082 43.3241 166.911 43.5573 166.795 43.8576C166.68 44.1555 166.622 44.5031 166.622 44.9004Z" fill="white"/>
<path d="M172.103 49.5567C171.964 49.5567 171.841 49.5452 171.732 49.5221C171.624 49.5013 171.548 49.4805 171.507 49.4597L171.715 48.7391C171.913 48.7899 172.089 48.8084 172.241 48.7945C172.394 48.7807 172.529 48.7125 172.647 48.5901C172.767 48.47 172.877 48.2749 172.976 48.0046L173.128 47.5889L171.16 42.2397H172.047L173.516 46.4802H173.572L175.041 42.2397H175.928L173.669 48.3372C173.567 48.6121 173.441 48.8396 173.291 49.0197C173.141 49.2022 172.967 49.3373 172.768 49.4251C172.572 49.5128 172.35 49.5567 172.103 49.5567Z" fill="white"/>
<path d="M14.1129 32.0001H11.3049V25.0161H2.97695V32.0001H0.168945V15.9921H2.97695V22.5441H11.3049V15.9921H14.1129V32.0001Z" fill="white"/>
<path d="M22.7927 32.2881C21.0327 32.2881 19.5767 31.7281 18.4247 30.6081C17.2887 29.4721 16.7207 28.0001 16.7207 26.1921C16.7207 24.4961 17.2727 23.0641 18.3767 21.8961C19.4967 20.7121 20.9047 20.1201 22.6007 20.1201C24.3127 20.1201 25.6887 20.7121 26.7287 21.8961C27.7847 23.0801 28.3127 24.5921 28.3127 26.4321V27.0321H19.3607C19.4567 27.9441 19.8327 28.7041 20.4887 29.3121C21.1447 29.9201 22.0007 30.2241 23.0567 30.2241C23.6487 30.2241 24.2407 30.1121 24.8327 29.8881C25.4407 29.6641 25.9447 29.3521 26.3447 28.9521L27.4967 30.6081C26.3287 31.7281 24.7607 32.2881 22.7927 32.2881ZM25.8647 25.2561C25.8327 24.4561 25.5367 23.7441 24.9767 23.1201C24.4327 22.4961 23.6407 22.1841 22.6007 22.1841C21.6087 22.1841 20.8327 22.4961 20.2727 23.1201C19.7127 23.7281 19.4007 24.4401 19.3367 25.2561H25.8647Z" fill="white"/>
<path d="M40.4001 32.0001H37.8801V30.7521C36.9841 31.7761 35.7361 32.2881 34.1361 32.2881C33.0801 32.2881 32.1441 31.9521 31.3281 31.2801C30.5121 30.5921 30.1041 29.6481 30.1041 28.4481C30.1041 27.2161 30.5041 26.2801 31.3041 25.6401C32.1201 25.0001 33.0641 24.6801 34.1361 24.6801C35.7841 24.6801 37.0321 25.1761 37.8801 26.1681V24.4401C37.8801 23.7681 37.6321 23.2401 37.1361 22.8561C36.6401 22.4721 35.9841 22.2801 35.1681 22.2801C33.8721 22.2801 32.7281 22.7681 31.7361 23.7441L30.7041 21.9921C32.0161 20.7441 33.6401 20.1201 35.5761 20.1201C37.0001 20.1201 38.1601 20.4561 39.0561 21.1281C39.9521 21.8001 40.4001 22.8641 40.4001 24.3201V32.0001ZM35.1201 30.5601C36.3841 30.5601 37.3041 30.1601 37.8801 29.3601V27.6081C37.3041 26.8081 36.3841 26.4081 35.1201 26.4081C34.4001 26.4081 33.8081 26.6001 33.3441 26.9841C32.8801 27.3681 32.6481 27.8721 32.6481 28.4961C32.6481 29.1201 32.8801 29.6241 33.3441 30.0081C33.8081 30.3761 34.4001 30.5601 35.1201 30.5601Z" fill="white"/>
<path d="M54.3473 32.0001H51.8273V30.4161C50.8673 31.6641 49.6273 32.2881 48.1073 32.2881C46.5873 32.2881 45.3473 31.7441 44.3873 30.6561C43.4273 29.5681 42.9473 28.0881 42.9473 26.2161C42.9473 24.3601 43.4273 22.8801 44.3873 21.7761C45.3473 20.6721 46.5873 20.1201 48.1073 20.1201C49.6273 20.1201 50.8673 20.7521 51.8273 22.0161V15.9921H54.3473V32.0001ZM48.8273 30.0561C49.4193 30.0561 49.9953 29.9121 50.5553 29.6241C51.1153 29.3361 51.5393 28.9681 51.8273 28.5201V23.9121C51.5393 23.4641 51.1153 23.0961 50.5553 22.8081C49.9953 22.5041 49.4193 22.3521 48.8273 22.3521C47.8353 22.3521 47.0433 22.7121 46.4513 23.4321C45.8593 24.1521 45.5633 25.0801 45.5633 26.2161C45.5633 27.3521 45.8593 28.2801 46.4513 29.0001C47.0433 29.7041 47.8353 30.0561 48.8273 30.0561Z" fill="white"/>
<path d="M60.1326 32.0001H57.6126V15.9921H60.1326V32.0001Z" fill="white"/>
<path d="M64.6496 18.9921C64.2336 18.9921 63.8656 18.8401 63.5456 18.5361C63.2416 18.2321 63.0896 17.8641 63.0896 17.4321C63.0896 17.0001 63.2416 16.6321 63.5456 16.3281C63.8656 16.0241 64.2336 15.8721 64.6496 15.8721C65.0816 15.8721 65.4496 16.0241 65.7536 16.3281C66.0576 16.6321 66.2096 17.0001 66.2096 17.4321C66.2096 17.8641 66.0576 18.2321 65.7536 18.5361C65.4496 18.8401 65.0816 18.9921 64.6496 18.9921ZM65.9216 32.0001H63.4016V20.4081H65.9216V32.0001Z" fill="white"/>
<path d="M79.5347 32.0001H77.0147V24.7521C77.0147 23.1521 76.2387 22.3521 74.6867 22.3521C74.0787 22.3521 73.5107 22.5041 72.9827 22.8081C72.4547 23.1121 72.0307 23.4801 71.7107 23.9121V32.0001H69.1907V20.4081H71.7107V21.9921C72.1427 21.4801 72.7187 21.0401 73.4387 20.6721C74.1587 20.3041 74.9427 20.1201 75.7907 20.1201C77.0227 20.1201 77.9507 20.4401 78.5747 21.0801C79.2147 21.7201 79.5347 22.6401 79.5347 23.8401V32.0001Z" fill="white"/>
<path d="M88.1599 32.2881C86.3999 32.2881 84.9439 31.7281 83.7919 30.6081C82.6559 29.4721 82.0879 28.0001 82.0879 26.1921C82.0879 24.4961 82.6399 23.0641 83.7439 21.8961C84.8639 20.7121 86.2719 20.1201 87.9679 20.1201C89.6799 20.1201 91.0559 20.7121 92.0959 21.8961C93.1519 23.0801 93.6799 24.5921 93.6799 26.4321V27.0321H84.7279C84.8239 27.9441 85.1999 28.7041 85.8559 29.3121C86.5119 29.9201 87.3679 30.2241 88.4239 30.2241C89.0159 30.2241 89.6079 30.1121 90.1999 29.8881C90.8079 29.6641 91.3119 29.3521 91.7119 28.9521L92.8639 30.6081C91.6959 31.7281 90.1279 32.2881 88.1599 32.2881ZM91.2319 25.2561C91.1999 24.4561 90.9039 23.7441 90.3439 23.1201C89.7999 22.4961 89.0079 22.1841 87.9679 22.1841C86.9759 22.1841 86.1999 22.4961 85.6399 23.1201C85.0799 23.7281 84.7679 24.4401 84.7039 25.2561H91.2319Z" fill="white"/>
</svg>
