<svg width="197" height="69" viewBox="0 0 197 69" fill="none" xmlns="http://www.w3.org/2000/svg">
<path d="M155.516 29.7771C158.987 28.2559 160.966 25.3828 160.966 21.0746C160.966 16.9107 158.724 13.9404 155.253 12.7634C153.495 12.1555 150.767 11.8945 147.871 11.8945H138.042C137.968 11.8945 137.896 11.9238 137.844 11.9758C137.791 12.0279 137.762 12.0985 137.762 12.1721V20.5555C137.762 20.5555 137.762 25.5133 142.769 25.5133C142.769 25.5133 137.762 25.5133 137.762 30.4711V41.5971C137.762 41.6707 137.791 41.7413 137.844 41.7934C137.896 41.8454 137.968 41.8747 138.042 41.8747H144.339C144.413 41.8747 144.484 41.8454 144.537 41.7934C144.59 41.7413 144.619 41.6707 144.619 41.5971V31.0846H148.962L155.166 41.7359C155.19 41.7778 155.226 41.8127 155.268 41.8371C155.31 41.8614 155.358 41.8744 155.407 41.8747H162.315C162.364 41.8744 162.412 41.8613 162.455 41.8369C162.497 41.8124 162.532 41.7773 162.556 41.7352C162.581 41.693 162.594 41.6453 162.594 41.5967C162.594 41.5481 162.581 41.5004 162.556 41.4583L155.516 29.7771ZM152.088 24.9414C151.123 25.3773 149.629 25.4966 147.602 25.4966H144.619V17.724H147.476C149.102 17.724 150.683 17.8989 151.737 18.2487C153.232 18.7705 154.022 19.8587 154.022 21.5104C154.022 23.2509 153.447 24.2947 152.088 24.9414Z" fill="white"/>
<path d="M108.125 12.1721V17.6685C108.125 17.7421 108.155 17.8127 108.207 17.8648C108.26 17.9168 108.331 17.9461 108.405 17.9461H121.834C116.827 17.9461 116.827 22.9039 116.827 22.9039V41.5971C116.827 41.6707 116.857 41.7413 116.909 41.7934C116.962 41.8454 117.033 41.8747 117.107 41.8747H123.362C123.436 41.8747 123.508 41.8454 123.56 41.7934C123.613 41.7413 123.642 41.6707 123.642 41.5971V17.9433H132.333C132.408 17.9433 132.479 17.9141 132.532 17.862C132.584 17.8099 132.614 17.7393 132.614 17.6657V12.1721C132.614 12.0985 132.584 12.0279 132.532 11.9758C132.479 11.9238 132.408 11.8945 132.333 11.8945H108.405C108.331 11.8945 108.26 11.9238 108.207 11.9758C108.155 12.0279 108.125 12.0985 108.125 12.1721Z" fill="white"/>
<path d="M96.7082 24.0247L92.6796 22.7977C89.7106 21.9205 89.1359 21.085 89.1359 19.8136C89.1359 18.2341 90.0218 16.9627 93.6215 16.9627C96.6802 16.9627 100.843 18.148 103.19 20.2938H103.367V13.5844C103.367 13.5438 103.358 13.5037 103.341 13.4667C103.324 13.4298 103.3 13.397 103.268 13.3707C101.561 11.9827 97.3278 11 94.3308 11C86.2259 11 82.1523 15.0334 82.1523 20.2522C82.1523 24.6382 84.454 27.664 89.7218 29.1546L93.5318 30.2511C96.5877 31.0839 97.9614 31.8306 97.9614 33.4962C97.9614 35.778 96.1895 36.3915 93.1758 36.3915C90.2825 36.3915 86.181 35.4394 83.0971 33.1603C83.0483 33.1257 82.9896 33.1076 82.9297 33.1085C82.8697 33.1094 82.8115 33.1293 82.7639 33.1654C82.7162 33.2014 82.6814 33.2516 82.6647 33.3087C82.648 33.3658 82.6502 33.4266 82.671 33.4823L85.7072 41.2105C85.7221 41.2489 85.7455 41.2835 85.7755 41.3118C85.8056 41.3401 85.8416 41.3615 85.881 41.3743C88.1208 42.1064 90.4639 42.4812 92.8225 42.4847C101.682 42.4847 104.959 37.835 104.959 32.9688C104.948 28.63 102.999 25.954 96.7082 24.0247Z" fill="white"/>
<path d="M79.9116 41.5007L68.3527 12.0758C68.332 12.0241 68.296 11.9798 68.2495 11.9486C68.203 11.9175 68.1481 11.9008 68.092 11.9009H61.8374C61.7812 11.9008 61.7263 11.9175 61.6799 11.9486C61.6334 11.9798 61.5974 12.0241 61.5766 12.0758L50.0177 41.5007C50.0019 41.5426 49.9966 41.5876 50.0021 41.6319C50.0076 41.6762 50.0239 41.7186 50.0495 41.7554C50.0751 41.7921 50.1093 41.8223 50.1491 41.8432C50.189 41.8641 50.2334 41.8752 50.2785 41.8755H56.8892C56.9451 41.8748 56.9996 41.8574 57.0456 41.8258C57.0916 41.7941 57.1269 41.7495 57.1471 41.6978L59.6282 35.2604V35.2438L64.8091 20.5535L68.1481 29.4754C61.7953 29.4754 59.7571 34.8884 59.6282 35.2438V35.2604H70.0881L72.5692 41.6978C72.5894 41.7495 72.6247 41.7941 72.6707 41.8258C72.7167 41.8574 72.7711 41.8748 72.8271 41.8755H79.6565C79.7011 41.8743 79.7448 41.8626 79.784 41.8413C79.8231 41.82 79.8566 41.7898 79.8815 41.7531C79.9065 41.7165 79.9222 41.6744 79.9275 41.6305C79.9327 41.5866 79.9273 41.5421 79.9116 41.5007Z" fill="white"/>
<path d="M180.361 11.0615C177.2 11.0615 174.111 11.9895 171.483 13.7282C168.855 15.4668 166.807 17.938 165.597 20.8292C164.388 23.7205 164.071 26.9019 164.688 29.9713C165.305 33.0406 166.826 35.86 169.061 38.0728C171.296 40.2857 174.144 41.7927 177.243 42.4032C180.343 43.0137 183.556 42.7004 186.476 41.5028C189.396 40.3052 191.892 38.2771 193.648 35.6751C195.404 33.073 196.341 30.0138 196.341 26.8844C196.341 22.6879 194.657 18.6633 191.661 15.6959C188.664 12.7286 184.599 11.0615 180.361 11.0615ZM180.361 40.0673C180.361 36.571 178.958 33.2178 176.461 30.7456C173.965 28.2733 170.578 26.8844 167.047 26.8844C170.578 26.8844 173.965 25.4955 176.461 23.0232C178.958 20.5509 180.361 17.1978 180.361 13.7014C180.361 17.1978 181.764 20.5509 184.26 23.0232C186.757 25.4955 190.144 26.8844 193.675 26.8844C190.144 26.8844 186.757 28.2733 184.26 30.7456C181.764 33.2178 180.361 36.571 180.361 40.0673Z" fill="white"/>
<path d="M136.912 51.3458V58.4596C136.912 58.4864 136.901 58.5121 136.882 58.531C136.863 58.55 136.837 58.5608 136.809 58.5612H136.06C135.888 58.5613 135.719 58.5188 135.568 58.4377C135.417 58.3565 135.289 58.2391 135.196 58.0964L131.795 52.9067L131.912 55.4989V58.4596C131.911 58.4864 131.9 58.5121 131.881 58.531C131.862 58.55 131.836 58.5608 131.809 58.5612H130.818C130.791 58.5608 130.765 58.55 130.745 58.531C130.726 58.5121 130.715 58.4864 130.715 58.4596V51.3458C130.715 51.3189 130.726 51.2933 130.745 51.2743C130.765 51.2553 130.791 51.2445 130.818 51.2441H131.563C131.735 51.2442 131.904 51.2867 132.055 51.3676C132.206 51.4485 132.334 51.5654 132.428 51.7076L135.828 56.8891L135.723 54.3065V51.3458C135.723 51.3188 135.733 51.293 135.753 51.2739C135.772 51.2548 135.798 51.2441 135.825 51.2441H136.816C136.842 51.2462 136.866 51.2577 136.884 51.2765C136.902 51.2953 136.912 51.32 136.912 51.3458Z" fill="white"/>
<path d="M147.037 58.5613H145.989C145.972 58.5611 145.956 58.5571 145.942 58.5496C145.927 58.542 145.915 58.5312 145.905 58.5179C145.896 58.5047 145.89 58.4894 145.888 58.4734C145.885 58.4574 145.887 58.441 145.893 58.4258L148.67 51.3418C148.682 51.3121 148.703 51.2868 148.73 51.2694C148.757 51.2519 148.789 51.2431 148.821 51.2442H150.135C150.166 51.2445 150.196 51.2539 150.222 51.2713C150.247 51.2887 150.267 51.3132 150.279 51.3418L153.048 58.4258C153.053 58.441 153.055 58.4574 153.053 58.4734C153.051 58.4894 153.045 58.5047 153.035 58.5179C153.026 58.5312 153.013 58.542 152.999 58.5496C152.984 58.5571 152.968 58.5611 152.952 58.5613H151.903C151.882 58.5614 151.862 58.5552 151.845 58.5436C151.827 58.532 151.814 58.5155 151.806 58.4963L149.568 52.6697C149.561 52.6501 149.547 52.6331 149.53 52.6212C149.513 52.6092 149.492 52.6028 149.471 52.6028C149.45 52.6028 149.429 52.6092 149.412 52.6212C149.395 52.6331 149.381 52.6501 149.374 52.6697L147.136 58.4963C147.128 58.5157 147.114 58.5324 147.097 58.544C147.079 58.5556 147.058 58.5617 147.037 58.5613Z" fill="white"/>
<path d="M160.325 58.3972L158.242 55.7699C159.418 55.5504 160.106 54.7672 160.106 53.5653C160.106 52.1845 159.196 51.2441 157.586 51.2441H154.681C154.64 51.2441 154.601 51.2601 154.572 51.2886C154.544 51.3171 154.527 51.3557 154.527 51.3959C154.527 51.524 154.553 51.6509 154.603 51.7693C154.652 51.8876 154.725 51.9952 154.817 52.0858C154.908 52.1764 155.017 52.2482 155.137 52.2972C155.257 52.3463 155.386 52.3715 155.515 52.3715H157.466C158.439 52.3715 158.905 52.8634 158.905 53.5734C158.905 54.2834 158.449 54.7929 157.466 54.7929H154.681C154.64 54.7933 154.601 54.8096 154.572 54.8382C154.543 54.8669 154.527 54.9057 154.527 54.946V58.4691C154.527 58.496 154.538 58.5219 154.557 58.5409C154.577 58.56 154.603 58.5707 154.63 58.5707H155.621C155.648 58.5703 155.674 58.5595 155.693 58.5405C155.713 58.5215 155.724 58.4959 155.724 58.4691V55.8336H156.867L158.675 58.1628C158.771 58.2875 158.896 58.3883 159.039 58.4574C159.182 58.5265 159.339 58.562 159.498 58.5612H160.25C160.269 58.5602 160.287 58.5541 160.302 58.5436C160.318 58.5331 160.33 58.5187 160.338 58.5018C160.346 58.4849 160.349 58.4662 160.347 58.4478C160.344 58.4294 160.337 58.4119 160.325 58.3972Z" fill="white"/>
<path d="M143.903 51.2441H139.305C139.269 51.2441 139.234 51.2584 139.208 51.2838C139.182 51.3092 139.168 51.3437 139.168 51.3796C139.168 51.6431 139.274 51.8957 139.463 52.082C139.651 52.2682 139.907 52.3729 140.174 52.3729H143.903C143.916 52.373 143.93 52.3705 143.942 52.3655C143.955 52.3605 143.966 52.353 143.976 52.3435C143.985 52.334 143.993 52.3228 143.998 52.3103C144.003 52.2979 144.006 52.2846 144.005 52.2712V51.3458C144.005 51.3188 143.995 51.293 143.975 51.2739C143.956 51.2548 143.93 51.2441 143.903 51.2441ZM143.903 57.4325H140.472C140.445 57.4321 140.419 57.4213 140.399 57.4023C140.38 57.3833 140.369 57.3577 140.369 57.3308V55.4962C140.369 55.4692 140.38 55.4434 140.399 55.4243C140.418 55.4052 140.444 55.3945 140.472 55.3945H143.643C143.67 55.3945 143.697 55.3838 143.716 55.3648C143.735 55.3457 143.746 55.3199 143.746 55.2929V54.3607C143.746 54.3337 143.735 54.3079 143.716 54.2888C143.697 54.2697 143.67 54.259 143.643 54.259H139.322C139.281 54.2594 139.242 54.2757 139.213 54.3044C139.184 54.333 139.168 54.3718 139.168 54.4122V58.404C139.168 58.4443 139.184 58.4829 139.213 58.5113C139.242 58.5398 139.281 58.5558 139.322 58.5558H143.903C143.93 58.5558 143.956 58.5451 143.975 58.526C143.995 58.507 144.005 58.4811 144.005 58.4542V57.5287C144.004 57.5026 143.993 57.4779 143.974 57.4599C143.955 57.4419 143.929 57.4321 143.903 57.4325Z" fill="white"/>
<path d="M123.328 49.4244L120.745 53.209C120.703 53.2636 120.684 53.3319 120.691 53.4C120.698 53.4681 120.731 53.5311 120.783 53.5763C120.835 53.6214 120.903 53.6454 120.972 53.6434C121.041 53.6413 121.107 53.6135 121.157 53.5654L123.698 51.3973C123.713 51.3841 123.731 51.3753 123.751 51.3722C123.771 51.3691 123.791 51.3718 123.809 51.3799C123.827 51.3879 123.842 51.4011 123.853 51.4177C123.863 51.4343 123.869 51.4536 123.869 51.4732V58.2876C123.868 58.3083 123.862 58.3284 123.85 58.3453C123.838 58.3622 123.82 58.375 123.801 58.3821C123.781 58.3891 123.76 58.3901 123.739 58.3848C123.719 58.3796 123.701 58.3683 123.687 58.3526L116.002 49.274C115.88 49.1283 115.726 49.0108 115.553 48.9298C115.379 48.8488 115.19 48.8063 114.998 48.8052H114.73C114.381 48.8052 114.046 48.9421 113.8 49.1858C113.553 49.4295 113.414 49.76 113.414 50.1047V59.7008C113.414 60.0455 113.553 60.376 113.8 60.6197C114.046 60.8634 114.381 61.0003 114.73 61.0003C114.955 61.0003 115.176 60.9433 115.372 60.8349C115.569 60.7265 115.734 60.5703 115.851 60.3811L118.434 56.5965C118.476 56.5419 118.495 56.4736 118.488 56.4055C118.481 56.3374 118.448 56.2744 118.396 56.2292C118.344 56.1841 118.276 56.1601 118.207 56.1621C118.138 56.1642 118.072 56.192 118.022 56.2401L115.481 58.4082C115.466 58.4214 115.448 58.4302 115.428 58.4333C115.409 58.4364 115.388 58.4337 115.37 58.4256C115.352 58.4176 115.337 58.4044 115.326 58.3878C115.316 58.3712 115.31 58.3519 115.311 58.3323V51.5247C115.311 51.504 115.317 51.4839 115.33 51.467C115.342 51.4501 115.359 51.4373 115.378 51.4302C115.398 51.4231 115.419 51.4222 115.44 51.4274C115.46 51.4327 115.478 51.4439 115.492 51.4597L123.177 60.5382C123.3 60.6827 123.455 60.7987 123.628 60.8783C123.802 60.9579 123.991 60.999 124.183 60.9989H124.457C124.63 60.9989 124.801 60.9653 124.961 60.9C125.121 60.8347 125.266 60.739 125.388 60.6183C125.51 60.4977 125.607 60.3544 125.673 60.1968C125.739 60.0391 125.773 59.8701 125.773 59.6995V50.1047C125.773 49.9333 125.739 49.7637 125.672 49.6055C125.606 49.4473 125.508 49.3037 125.385 49.1829C125.262 49.0621 125.116 48.9666 124.955 48.9018C124.795 48.8369 124.623 48.8041 124.449 48.8052C124.224 48.8052 124.003 48.8622 123.807 48.9706C123.61 49.079 123.446 49.2352 123.328 49.4244Z" fill="white"/>
<path d="M50.748 60.5567V53.2397H51.538V54.085H51.635C51.695 53.9926 51.7782 53.8748 51.8844 53.7316C51.993 53.5861 52.1477 53.4568 52.3487 53.3436C52.5519 53.2281 52.8268 53.1704 53.1732 53.1704C53.6213 53.1704 54.0162 53.2824 54.3581 53.5064C54.6999 53.7305 54.9667 54.048 55.1584 54.4592C55.3501 54.8703 55.4459 55.3553 55.4459 55.9143C55.4459 56.4778 55.3501 56.9663 55.1584 57.3798C54.9667 57.7909 54.7011 58.1096 54.3615 58.336C54.022 58.56 53.6305 58.672 53.1871 58.672C52.8452 58.672 52.5715 58.6154 52.366 58.5023C52.1604 58.3868 52.0022 58.2563 51.8913 58.1108C51.7805 57.963 51.695 57.8405 51.635 57.7435H51.5657V60.5567H50.748ZM51.5518 55.9004C51.5518 56.3023 51.6107 56.6568 51.7285 56.964C51.8463 57.2689 52.0184 57.5079 52.2447 57.6812C52.4711 57.8521 52.7482 57.9376 53.0762 57.9376C53.418 57.9376 53.7033 57.8475 53.9319 57.6673C54.1629 57.4849 54.3361 57.24 54.4516 56.9328C54.5694 56.6233 54.6283 56.2792 54.6283 55.9004C54.6283 55.5262 54.5706 55.189 54.4551 54.8888C54.3419 54.5862 54.1698 54.3471 53.9389 54.1716C53.7102 53.9938 53.4227 53.9048 53.0762 53.9048C52.7436 53.9048 52.4641 53.9891 52.2378 54.1578C52.0114 54.3241 51.8405 54.5573 51.725 54.8576C51.6096 55.1555 51.5518 55.5031 51.5518 55.9004Z" fill="white"/>
<path d="M58.855 58.672C58.3746 58.672 57.9531 58.5577 57.5905 58.329C57.2302 58.1004 56.9484 57.7805 56.7451 57.3694C56.5442 56.9582 56.4437 56.4778 56.4437 55.9281C56.4437 55.3738 56.5442 54.8899 56.7451 54.4765C56.9484 54.0631 57.2302 53.742 57.5905 53.5134C57.9531 53.2847 58.3746 53.1704 58.855 53.1704C59.3354 53.1704 59.7558 53.2847 60.1161 53.5134C60.4787 53.742 60.7605 54.0631 60.9615 54.4765C61.1647 54.8899 61.2663 55.3738 61.2663 55.9281C61.2663 56.4778 61.1647 56.9582 60.9615 57.3694C60.7605 57.7805 60.4787 58.1004 60.1161 58.329C59.7558 58.5577 59.3354 58.672 58.855 58.672ZM58.855 57.9376C59.22 57.9376 59.5202 57.844 59.7558 57.6569C59.9914 57.4698 60.1658 57.2239 60.2789 56.919C60.3921 56.6141 60.4487 56.2838 60.4487 55.9281C60.4487 55.5724 60.3921 55.241 60.2789 54.9338C60.1658 54.6266 59.9914 54.3783 59.7558 54.1889C59.5202 53.9995 59.22 53.9048 58.855 53.9048C58.4901 53.9048 58.1898 53.9995 57.9543 54.1889C57.7187 54.3783 57.5443 54.6266 57.4311 54.9338C57.3179 55.241 57.2614 55.5724 57.2614 55.9281C57.2614 56.2838 57.3179 56.6141 57.4311 56.919C57.5443 57.2239 57.7187 57.4698 57.9543 57.6569C58.1898 57.844 58.4901 57.9376 58.855 57.9376Z" fill="white"/>
<path d="M63.5391 58.5612L61.9177 53.2397H62.7769L63.9271 57.3139H63.9825L65.1189 53.2397H65.9919L67.1145 57.3001H67.1699L68.3201 53.2397H69.1793L67.5579 58.5612H66.7541L65.5901 54.473H65.5069L64.3428 58.5612H63.5391Z" fill="white"/>
<path d="M72.3104 58.672C71.7976 58.672 71.3553 58.5589 70.9835 58.3325C70.6139 58.1038 70.3287 57.7851 70.1277 57.3763C69.9291 56.9652 69.8298 56.4871 69.8298 55.942C69.8298 55.3969 69.9291 54.9165 70.1277 54.5007C70.3287 54.0827 70.6081 53.757 70.9661 53.5237C71.3265 53.2882 71.7468 53.1704 72.2272 53.1704C72.5044 53.1704 72.7781 53.2166 73.0483 53.3089C73.3186 53.4013 73.5645 53.5515 73.7863 53.7593C74.008 53.9649 74.1847 54.2374 74.3163 54.577C74.448 54.9165 74.5138 55.3345 74.5138 55.8311V56.1776H70.4118V55.4708H73.6823C73.6823 55.1706 73.6223 54.9026 73.5022 54.667C73.3844 54.4315 73.2158 54.2455 72.9963 54.1093C72.7792 53.973 72.5229 53.9048 72.2272 53.9048C71.9016 53.9048 71.6198 53.9857 71.3819 54.1474C71.1463 54.3067 70.965 54.5146 70.838 54.771C70.7109 55.0274 70.6474 55.3022 70.6474 55.5955V56.0667C70.6474 56.4686 70.7167 56.8093 70.8553 57.0887C70.9962 57.3659 71.1913 57.5772 71.4408 57.7227C71.6902 57.866 71.9801 57.9376 72.3104 57.9376C72.5252 57.9376 72.7192 57.9075 72.8924 57.8475C73.0679 57.7851 73.2192 57.6927 73.3463 57.5703C73.4733 57.4456 73.5715 57.2908 73.6408 57.1061L74.4307 57.3278C74.3475 57.5957 74.2078 57.8313 74.0115 58.0346C73.8151 58.2355 73.5726 58.3926 73.2839 58.5057C72.9952 58.6166 72.6707 58.672 72.3104 58.672Z" fill="white"/>
<path d="M75.7576 58.5612V53.2397H76.5475V54.0434H76.6029C76.6999 53.7801 76.8755 53.5665 77.1295 53.4025C77.3836 53.2385 77.67 53.1565 77.9887 53.1565C78.0488 53.1565 78.1238 53.1577 78.2139 53.16C78.304 53.1623 78.3721 53.1657 78.4183 53.1704V54.0019C78.3906 53.9949 78.3271 53.9845 78.2278 53.9707C78.1308 53.9545 78.028 53.9464 77.9194 53.9464C77.6607 53.9464 77.4298 54.0007 77.2265 54.1093C77.0256 54.2155 76.8662 54.3633 76.7484 54.5527C76.6329 54.7398 76.5752 54.9534 76.5752 55.1936V58.5612H75.7576Z" fill="white"/>
<path d="M81.4567 58.672C80.944 58.672 80.5017 58.5589 80.1298 58.3325C79.7603 58.1038 79.475 57.7851 79.2741 57.3763C79.0754 56.9652 78.9761 56.4871 78.9761 55.942C78.9761 55.3969 79.0754 54.9165 79.2741 54.5007C79.475 54.0827 79.7545 53.757 80.1125 53.5237C80.4728 53.2882 80.8932 53.1704 81.3736 53.1704C81.6507 53.1704 81.9244 53.2166 82.1947 53.3089C82.4649 53.4013 82.7109 53.5515 82.9326 53.7593C83.1543 53.9649 83.331 54.2374 83.4627 54.577C83.5943 54.9165 83.6602 55.3345 83.6602 55.8311V56.1776H79.5582V55.4708H82.8287C82.8287 55.1706 82.7686 54.9026 82.6485 54.667C82.5307 54.4315 82.3621 54.2455 82.1427 54.1093C81.9256 53.973 81.6692 53.9048 81.3736 53.9048C81.0479 53.9048 80.7661 53.9857 80.5282 54.1474C80.2926 54.3067 80.1113 54.5146 79.9843 54.771C79.8573 55.0274 79.7937 55.3022 79.7937 55.5955V56.0667C79.7937 56.4686 79.863 56.8093 80.0016 57.0887C80.1425 57.3659 80.3377 57.5772 80.5871 57.7227C80.8366 57.866 81.1264 57.9376 81.4567 57.9376C81.6715 57.9376 81.8655 57.9075 82.0388 57.8475C82.2143 57.7851 82.3656 57.6927 82.4926 57.5703C82.6196 57.4456 82.7178 57.2908 82.7871 57.1061L83.577 57.3278C83.4939 57.5957 83.3541 57.8313 83.1578 58.0346C82.9615 58.2355 82.719 58.3926 82.4302 58.5057C82.1415 58.6166 81.817 58.672 81.4567 58.672Z" fill="white"/>
<path d="M86.9133 58.672C86.4699 58.672 86.0784 58.56 85.7389 58.336C85.3993 58.1096 85.1337 57.7909 84.942 57.3798C84.7503 56.9663 84.6545 56.4778 84.6545 55.9143C84.6545 55.3553 84.7503 54.8703 84.942 54.4592C85.1337 54.048 85.4005 53.7305 85.7423 53.5064C86.0842 53.2824 86.4791 53.1704 86.9272 53.1704C87.2737 53.1704 87.5473 53.2281 87.7483 53.3436C87.9515 53.4568 88.1063 53.5861 88.2125 53.7316C88.3211 53.8748 88.4054 53.9926 88.4654 54.085H88.5347V51.4658H89.3524V58.5612H88.5625V57.7435H88.4654C88.4054 57.8405 88.3199 57.963 88.2091 58.1108C88.0982 58.2563 87.94 58.3868 87.7344 58.5023C87.5289 58.6154 87.2552 58.672 86.9133 58.672ZM87.0242 57.9376C87.3522 57.9376 87.6293 57.8521 87.8557 57.6812C88.082 57.5079 88.2541 57.2689 88.3719 56.964C88.4897 56.6568 88.5486 56.3023 88.5486 55.9004C88.5486 55.5031 88.4909 55.1555 88.3754 54.8576C88.2599 54.5573 88.089 54.3241 87.8626 54.1578C87.6363 53.9891 87.3568 53.9048 87.0242 53.9048C86.6777 53.9048 86.389 53.9938 86.1581 54.1716C85.9294 54.3471 85.7573 54.5862 85.6419 54.8888C85.5287 55.189 85.4721 55.5262 85.4721 55.9004C85.4721 56.2792 85.5298 56.6233 85.6453 56.9328C85.7631 57.24 85.9363 57.4849 86.165 57.6673C86.396 57.8475 86.6824 57.9376 87.0242 57.9376Z" fill="white"/>
<path d="M93.8181 58.5612V51.4658H94.6358V54.085H94.7051C94.7651 53.9926 94.8483 53.8748 94.9545 53.7316C95.063 53.5861 95.2178 53.4568 95.4187 53.3436C95.622 53.2281 95.8968 53.1704 96.2433 53.1704C96.6914 53.1704 97.0863 53.2824 97.4282 53.5064C97.77 53.7305 98.0368 54.048 98.2285 54.4592C98.4202 54.8703 98.516 55.3553 98.516 55.9143C98.516 56.4778 98.4202 56.9663 98.2285 57.3798C98.0368 57.7909 97.7712 58.1096 97.4316 58.336C97.0921 58.56 96.7006 58.672 96.2572 58.672C95.9153 58.672 95.6416 58.6154 95.4361 58.5023C95.2305 58.3868 95.0723 58.2563 94.9614 58.1108C94.8506 57.963 94.7651 57.8405 94.7051 57.7435H94.608V58.5612H93.8181ZM94.6219 55.9004C94.6219 56.3023 94.6808 56.6568 94.7986 56.964C94.9164 57.2689 95.0885 57.5079 95.3148 57.6812C95.5412 57.8521 95.8183 57.9376 96.1463 57.9376C96.4881 57.9376 96.7734 57.8475 97.002 57.6673C97.233 57.4849 97.4062 57.24 97.5217 56.9328C97.6395 56.6233 97.6984 56.2792 97.6984 55.9004C97.6984 55.5262 97.6407 55.189 97.5252 54.8888C97.412 54.5862 97.2399 54.3471 97.009 54.1716C96.7803 53.9938 96.4927 53.9048 96.1463 53.9048C95.8137 53.9048 95.5342 53.9891 95.3079 54.1578C95.0815 54.3241 94.9106 54.5573 94.7951 54.8576C94.6796 55.1555 94.6219 55.5031 94.6219 55.9004Z" fill="white"/>
<path d="M100.103 60.5567C99.9642 60.5567 99.8406 60.5452 99.7321 60.5221C99.6235 60.5013 99.5485 60.4805 99.5069 60.4597L99.7148 59.7391C99.9134 59.7899 100.089 59.8084 100.241 59.7945C100.394 59.7807 100.529 59.7125 100.647 59.5901C100.767 59.47 100.877 59.2749 100.976 59.0046L101.128 58.5889L99.1604 53.2397H100.047L101.516 57.4802H101.572L103.041 53.2397H103.928L101.669 59.3372C101.567 59.6121 101.441 59.8396 101.291 60.0197C101.141 60.2022 100.967 60.3373 100.768 60.4251C100.572 60.5128 100.35 60.5567 100.103 60.5567Z" fill="white"/>
<path d="M4.19864 3.4C3.52622 4.07241 3.06634 4.92716 2.87714 5.85616C2.68795 6.78516 2.77794 7.74667 3.13574 8.61912C3.49354 9.49157 4.10307 10.2358 4.88726 10.7576C5.67146 11.2794 6.59508 11.5554 7.54135 11.5508C8.48762 11.5461 9.41402 11.2609 10.2034 10.7313C10.9928 10.2017 11.6097 9.45145 11.9762 8.57542C12.3426 7.6994 12.4421 6.73695 12.2621 5.80977C12.0821 4.8826 11.6306 4.03235 10.9648 3.36655C10.072 2.47374 8.85756 1.97568 7.58865 1.98195C6.31975 1.98822 5.10032 2.49831 4.19864 3.4ZM10.3697 9.57107C9.62586 8.82722 8.61404 8.41226 7.55684 8.41748C6.49964 8.42271 5.48367 8.84769 4.73242 9.59894C5.48367 8.84769 5.90865 7.83172 5.91388 6.77452C5.9191 5.71732 5.50414 4.7055 4.76029 3.96165C5.50414 4.7055 6.51597 5.12046 7.57316 5.11524C8.63036 5.11001 9.64633 4.68503 10.3976 3.93378C9.64633 4.68503 9.22135 5.701 9.21612 6.7582C9.2109 7.8154 9.62586 8.82722 10.3697 9.57107Z" fill="white"/>
<path d="M8.44991 43.3499C6.77867 45.0211 5.63568 47.1455 5.16545 49.4545C4.69523 51.7634 4.91889 54.1532 5.80817 56.3215C6.69744 58.4899 8.21239 60.3395 10.1614 61.6365C12.1105 62.9335 14.406 63.6195 16.7579 63.6079C19.1098 63.5962 21.4122 62.8875 23.3742 61.5712C25.3362 60.2549 26.8695 58.3902 27.7802 56.2129C28.691 54.0357 28.9383 51.6436 28.4909 49.3392C28.0434 47.0348 26.9214 44.9216 25.2666 43.2668C23.0476 41.0478 20.0292 39.8099 16.8755 39.8255C13.7217 39.8411 10.691 41.1088 8.44991 43.3499ZM23.7875 58.6875C21.9388 56.8387 19.424 55.8074 16.7964 55.8204C14.1688 55.8334 11.6437 56.8896 9.77658 58.7568C11.6437 56.8896 12.7 54.3645 12.713 51.737C12.726 49.1094 11.6946 46.5946 9.84584 44.7458C11.6946 46.5946 14.2094 47.626 16.837 47.613C19.4645 47.6 21.9896 46.5437 23.8568 44.6766C21.9896 46.5437 20.9334 49.0688 20.9204 51.6964C20.9074 54.324 21.9388 56.8387 23.7875 58.6875Z" fill="white"/>
</svg>
