<svg width="65" height="64" viewBox="0 0 65 64" fill="none" xmlns="http://www.w3.org/2000/svg">
<path fill-rule="evenodd" clip-rule="evenodd" d="M48.2415 0.539922C44.6707 3.30044 42.4599 5.22019 39.437 8.18521C36.017 11.5395 33.558 14.3233 30.9487 17.7946C24.7287 26.0695 20.9199 34.6094 19.6935 43.03C19.4614 44.624 19.2275 47.7017 19.2788 48.4873L19.3179 49.087L19.542 48.1275C21.3987 40.176 25.3455 30.5602 29.5602 23.7198C30.9583 21.4507 33.4413 17.8428 33.6048 17.8428C33.6274 17.8428 33.1711 18.6389 32.5909 19.6119C26.0875 30.5193 21.3904 42.0703 20.3273 49.7711C20.1984 50.7044 20.2048 50.848 20.387 51.1259C20.8871 51.8888 21.3269 51.8078 23.4906 50.5549C26.1341 49.0241 28.149 47.3674 29.0177 46.0099C29.5737 45.1415 33.2093 36.9338 39.6614 21.9807C40.373 20.3316 41.3183 18.1457 41.7622 17.1232C43.1773 13.8638 48.9216 0.522172 49.0307 0.241754C49.1783 -0.137853 49.0607 -0.0934766 48.2415 0.539922ZM29.6992 0.827777C27.2233 1.02999 24.1173 1.70873 21.8316 2.5471C20.2865 3.11394 17.5693 4.44478 16.1975 5.30667C8.66405 10.0399 3.55561 17.8707 2.26821 26.6584C2.00562 28.4516 1.91909 31.6783 2.08399 33.5323C2.43275 37.4538 3.32926 40.6541 5.0972 44.2894C6.91747 48.0325 9.7425 51.6063 12.9571 54.2326C14.7628 55.7079 15.4258 56.164 15.5267 56.0007C15.651 55.7999 16.6578 52.3824 16.6032 52.3468C16.5781 52.3305 16.0372 51.9005 15.4012 51.3914C14.0333 50.2961 12.3871 48.6046 11.2182 47.093C4.58654 38.5176 3.90077 26.5696 9.50991 17.3304C12.234 12.8434 15.9932 9.40751 20.6381 7.15913C24.5256 5.2774 27.8628 4.51567 32.2195 4.51567C34.7437 4.51567 36.4563 4.71285 38.6731 5.25857L40.146 5.62115L41.2464 4.62565C41.8517 4.07801 42.5588 3.43813 42.8179 3.20365L43.2891 2.77739L41.9849 2.33793C38.016 1.00073 33.8509 0.488829 29.6992 0.827777ZM48.2559 5.4657C48.1001 5.71758 46.8617 8.66808 46.8644 8.7807C46.8661 8.85039 47.1468 9.09626 47.4882 9.32715C49.2871 10.5438 51.8949 13.0508 53.328 14.941C58.6163 21.9164 60.1083 30.9293 57.3583 39.2857C55.4986 44.9367 51.7737 49.7705 46.6813 53.1414C45.163 54.1464 42.319 55.515 40.5447 56.0945C35.03 57.8958 29.072 57.8557 23.5561 55.9805C22.7847 55.7183 22.1296 55.5037 22.1004 55.5037C22.0714 55.5037 21.6588 56.2121 21.1836 57.0778C20.6359 58.0756 20.3615 58.6936 20.434 58.7661C20.6299 58.9618 23.5693 59.9413 25.0394 60.3008C27.7828 60.9717 28.7704 61.0798 32.1595 61.0804C35.4324 61.0809 36.2203 61.0069 38.7003 60.4655C47.6391 58.5142 55.3639 52.4603 59.3411 44.2894C61.6463 39.5535 62.6117 35.0429 62.4217 29.8967C62.2552 25.3868 61.4046 21.9293 59.4711 17.9028C57.2841 13.3488 54.1345 9.5398 50.1074 6.57898C48.7735 5.59836 48.3364 5.33557 48.2559 5.4657ZM18.0268 52.4153C17.9252 52.7617 17.5398 54.0427 17.1699 55.2622C16.8001 56.4816 16.4975 57.6205 16.4975 57.7931C16.4975 58.2536 16.9799 58.8964 17.4201 59.0226C17.7108 59.106 17.9012 59.0791 18.2442 58.9065C18.6582 58.6983 18.7972 58.4629 20.1653 55.6536C21.5568 52.7965 21.6221 52.6302 21.3191 52.7151C20.411 52.9696 19.1721 52.6602 18.6092 52.0382C18.4834 51.8993 18.3424 51.7856 18.2958 51.7856C18.2493 51.7856 18.1282 52.0689 18.0268 52.4153ZM16.1045 58.4609C16.071 58.5166 15.8486 59.2154 15.6104 60.0138C15.2302 61.2884 15.1774 61.6224 15.1774 62.7524C15.1774 63.4602 15.2242 64.0214 15.2816 63.9994C15.6105 63.8731 17.197 61.7518 17.7673 60.6757C18.1301 59.9911 18.4067 59.4106 18.3819 59.3858C18.3571 59.361 18.1642 59.4008 17.9534 59.4742C17.7427 59.5476 17.4598 59.5789 17.3249 59.5436C17.118 59.4895 17.0243 59.6028 16.7262 60.2666C16.4645 60.8494 16.3919 61.1557 16.4467 61.4468C16.5061 61.7638 16.4733 61.8651 16.2773 61.9699C16.0887 62.0707 15.9919 62.0577 15.8457 61.9117C15.5976 61.6636 15.6076 61.4303 15.8749 61.2377C15.9944 61.1514 16.2355 60.6917 16.4107 60.216L16.729 59.3511L16.4473 58.8555C16.2923 58.5829 16.1381 58.4053 16.1045 58.4609Z" fill="white"/>
</svg>
