<svg width="168" height="100" viewBox="0 0 168 100" fill="none" xmlns="http://www.w3.org/2000/svg">
<path d="M84.0732 40.4385V59.599C84.0732 59.745 83.9631 59.891 83.7797 59.891H81.7623C80.8452 59.891 79.9649 59.4166 79.4514 58.6501L70.3544 44.672L70.6479 51.6428V59.6355C70.6479 59.7815 70.5378 59.9275 70.3544 59.9275H67.7134C67.5666 59.9275 67.4199 59.818 67.4199 59.6355V40.4385C67.4199 40.2925 67.53 40.1465 67.7134 40.1465H69.6942C70.6112 40.1465 71.4915 40.6209 72.0051 41.3874L81.102 55.329L80.8086 48.3582V40.4385C80.8086 40.2925 80.9186 40.1465 81.102 40.1465H83.7431C83.9631 40.1465 84.0732 40.256 84.0732 40.4385Z" fill="white"/>
<path d="M111.144 59.8545H108.356C108.173 59.8545 108.026 59.672 108.099 59.4896L115.509 40.402C115.582 40.256 115.729 40.1465 115.876 40.1465H119.397C119.581 40.1465 119.727 40.256 119.764 40.402L127.21 59.4896C127.284 59.672 127.137 59.8545 126.954 59.8545H124.166C124.056 59.8545 123.946 59.7815 123.909 59.672L117.93 43.9786C117.857 43.7596 117.49 43.7596 117.416 43.9786L111.437 59.672C111.364 59.7815 111.254 59.8545 111.144 59.8545Z" fill="white"/>
<path d="M146.651 59.4166L141.075 52.3363C144.23 51.7523 146.064 49.6355 146.064 46.3874C146.064 42.6647 143.643 40.1465 139.315 40.1465H131.538C131.318 40.1465 131.135 40.329 131.135 40.5479C131.135 42.0078 132.309 43.1757 133.776 43.1757H139.021C141.626 43.1757 142.873 44.4895 142.873 46.4239C142.873 48.3582 141.662 49.672 139.021 49.672H131.612C131.392 49.672 131.208 49.8545 131.208 50.0735V59.5625C131.208 59.7085 131.318 59.8545 131.502 59.8545H134.143C134.289 59.8545 134.436 59.745 134.436 59.5625V52.5187H137.481L142.323 58.7961C142.836 59.4896 143.643 59.8545 144.523 59.8545H146.541C146.688 59.8545 146.798 59.599 146.651 59.4166Z" fill="white"/>
<path d="M102.78 40.1465H90.4918C90.2717 40.1465 90.125 40.2925 90.125 40.5114C90.125 41.9713 91.3355 43.1757 92.8027 43.1757H102.78C102.927 43.1757 103.073 43.0662 103.073 42.8837V40.402C103.037 40.256 102.927 40.1465 102.78 40.1465ZM102.78 56.8253H93.6097C93.463 56.8253 93.3163 56.7158 93.3163 56.5333V51.6063C93.3163 51.4604 93.4263 51.3144 93.6097 51.3144H102.083C102.23 51.3144 102.377 51.2049 102.377 51.0224V48.5406C102.377 48.3947 102.266 48.2487 102.083 48.2487H90.5285C90.3084 48.2487 90.125 48.4312 90.125 48.6501V59.4166C90.125 59.6355 90.3084 59.818 90.5285 59.818H102.78C102.927 59.818 103.073 59.7085 103.073 59.5261V57.0443C103.037 56.9348 102.927 56.8253 102.78 56.8253Z" fill="white"/>
<path d="M47.7592 35.255L40.8632 45.4375C40.3863 46.1309 41.3033 46.9703 41.9636 46.3864L48.7496 40.5105C48.933 40.3645 49.1898 40.474 49.1898 40.7295V59.0871C49.1898 59.3426 48.8597 59.4521 48.7129 59.2696L28.1715 34.817C27.5112 34.0141 26.5575 33.5762 25.4937 33.5762H24.7601C22.8527 33.5762 21.2754 35.1455 21.2754 37.0798V62.9192C21.2754 64.8535 22.8527 66.4229 24.7968 66.4229C26.0073 66.4229 27.1444 65.8024 27.8046 64.744L34.7007 54.5616C35.1776 53.8681 34.2605 53.0287 33.6003 53.6127L26.8143 59.4521C26.6308 59.5981 26.3741 59.4886 26.3741 59.2331V40.9119C26.3741 40.6565 26.7042 40.547 26.8509 40.7295L47.3924 65.182C48.0527 65.9849 49.0431 66.4229 50.0701 66.4229H50.8038C52.7479 66.4229 54.3252 64.8535 54.3252 62.9192V37.0798C54.2885 35.1455 52.7112 33.5762 50.7671 33.5762C49.5566 33.5762 48.4195 34.1966 47.7592 35.255Z" fill="white"/>
</svg>
