<svg width="168" height="100" viewBox="0 0 168 100" fill="none" xmlns="http://www.w3.org/2000/svg">
<path d="M53.8384 59.8138C53.8184 59.8151 53.7983 59.8123 53.7795 59.8055C53.7607 59.7987 53.7435 59.788 53.7291 59.7743C53.7147 59.7605 53.7034 59.7439 53.6959 59.7255C53.6884 59.7072 53.6849 59.6875 53.6856 59.6677V39.1699C53.6849 39.1501 53.6884 39.1304 53.6959 39.112C53.7034 39.0937 53.7147 39.0771 53.7291 39.0633C53.7435 39.0495 53.7607 39.0389 53.7795 39.0321C53.7983 39.0253 53.8184 39.0224 53.8384 39.0238H62.6255C66.0907 39.0238 68.5153 41.6496 68.5153 45.1052C68.5153 48.5608 66.0907 51.1913 62.6255 51.1913H55.9432C55.9235 51.19 55.9036 51.1928 55.885 51.1996C55.8664 51.2065 55.8495 51.2172 55.8354 51.2311C55.8215 51.2449 55.8106 51.2616 55.8036 51.28C55.7967 51.2983 55.7938 51.3179 55.7953 51.3375V59.6677C55.7959 59.6871 55.7926 59.7063 55.7854 59.7244C55.7782 59.7424 55.7673 59.7587 55.7534 59.7725C55.7396 59.7862 55.723 59.7969 55.7047 59.804C55.6864 59.8111 55.6669 59.8145 55.6473 59.8138H53.8384ZM55.9432 40.7916C55.9233 40.7909 55.9033 40.7944 55.8847 40.8017C55.8661 40.8092 55.8493 40.8203 55.8353 40.8346C55.8214 40.8488 55.8106 40.8657 55.8037 40.8843C55.7968 40.9029 55.7939 40.9227 55.7953 40.9424V49.2491C55.7939 49.2688 55.7968 49.2886 55.8037 49.3072C55.8106 49.3259 55.8214 49.3428 55.8353 49.357C55.8493 49.3712 55.8661 49.3824 55.8847 49.3898C55.9033 49.3972 55.9233 49.4007 55.9432 49.4H62.3439C64.8544 49.4 66.4391 47.2125 66.4391 45.0864C66.4391 42.9602 64.8544 40.7727 62.3439 40.7727L55.9432 40.7916Z" fill="white"/>
<path d="M76.2041 44.5635C80.2994 44.5635 82.8863 46.3361 82.8863 49.8811V56.0522C82.8863 57.589 83.2729 58.0322 84.5282 58.0322H84.8576C84.8776 58.0309 84.8976 58.0337 84.9165 58.0405C84.9353 58.0473 84.9525 58.0579 84.9669 58.0717C84.9812 58.0855 84.9926 58.1021 85.0001 58.1205C85.0075 58.1388 85.011 58.1585 85.0103 58.1783V59.6539C85.011 59.6737 85.0075 59.6934 85.0001 59.7118C84.9926 59.7302 84.9812 59.7467 84.9669 59.7606C84.9525 59.7743 84.9353 59.7849 84.9165 59.7918C84.8976 59.7985 84.8776 59.8014 84.8576 59.8001H84.5282C82.4663 59.8001 81.631 59.2391 81.1203 58.0322C81.1158 58.0034 81.1026 57.9766 81.0825 57.9554C81.0625 57.934 81.0363 57.9191 81.0076 57.9125C80.9789 57.9059 80.9488 57.9079 80.9213 57.9184C80.8938 57.9287 80.87 57.9471 80.853 57.9709C80.4044 58.4141 78.9677 60.0074 75.2591 60.0971C71.3118 60.0971 69.1592 58.2349 69.1592 55.5478C69.1592 52.8606 71.3118 51.1211 75.5598 51.1211H79.2971C80.2516 51.1211 80.791 51.1211 80.791 49.8811C80.791 48.3443 80.4331 46.3361 76.2185 46.3361C73.2258 46.3361 71.8512 47.5759 71.8512 49.9095C71.8526 49.929 71.8497 49.9487 71.8428 49.967C71.8359 49.9853 71.825 50.0021 71.811 50.0159C71.7969 50.0298 71.7801 50.0405 71.7615 50.0473C71.7429 50.0542 71.723 50.057 71.7032 50.0556H69.9086C69.8887 50.057 69.8689 50.0542 69.8503 50.0473C69.8317 50.0405 69.8148 50.0298 69.8008 50.0159C69.7868 50.0021 69.7759 49.9853 69.769 49.967C69.7621 49.9487 69.7592 49.929 69.7606 49.9095C69.7463 46.3077 72.6148 44.5635 76.2041 44.5635ZM80.7623 53.0209C80.7638 53.0014 80.7609 52.9817 80.754 52.9634C80.7471 52.945 80.7362 52.9283 80.7222 52.9144C80.7081 52.9006 80.6913 52.8899 80.6727 52.883C80.6541 52.8761 80.6342 52.8734 80.6144 52.8748H75.6505C71.8321 52.8748 71.2259 54.2325 71.2259 55.5289C71.2259 56.8253 72.3619 58.3056 75.2304 58.3056C79.1491 58.3056 80.7051 55.7976 80.7623 53.7281V53.0209Z" fill="white"/>
<path d="M100.632 58.7816V59.2247C100.632 63.4676 97.9398 65.985 93.5442 65.985C89.7783 65.985 87.177 64.0097 86.862 61.7044C86.8613 61.6846 86.8648 61.6649 86.8723 61.6465C86.8797 61.6282 86.8911 61.6116 86.9055 61.5978C86.9199 61.584 86.9371 61.5734 86.9559 61.5666C86.9747 61.5597 86.9948 61.5569 87.0147 61.5583H88.7473C88.7934 61.5578 88.8385 61.5716 88.8763 61.5978C88.9139 61.624 88.9424 61.6613 88.9574 61.7044C89.258 62.8547 90.8093 64.2172 93.5302 64.2172C97.4771 64.2172 98.4656 61.794 98.527 59.2247V58.0697C98.5208 58.0414 98.506 58.0156 98.4858 57.9952C98.4648 57.9749 98.4383 57.9609 98.4096 57.955C98.3808 57.949 98.3512 57.9513 98.324 57.9616C98.296 57.9719 98.2727 57.9898 98.2548 58.0131C97.6295 58.7533 96.1309 60.1392 93.2005 60.1392C88.986 60.1392 86.084 56.9807 86.084 52.3701C86.084 47.7595 88.838 44.6057 93.2005 44.6057C94.1469 44.5881 95.0872 44.7685 95.9582 45.1349C96.8293 45.5013 97.6116 46.0455 98.2548 46.7318C98.2719 46.7574 98.2952 46.7773 98.324 46.7888C98.352 46.8004 98.3831 46.803 98.4134 46.7962C98.443 46.7895 98.4702 46.7738 98.4904 46.7513C98.5107 46.7288 98.5239 46.7006 98.527 46.6706L98.8233 45.0488C98.8521 44.9592 98.8855 44.898 98.9757 44.898H100.47C100.49 44.8973 100.51 44.9007 100.529 44.9081C100.547 44.9155 100.564 44.9267 100.578 44.9409C100.592 44.9551 100.603 44.9721 100.61 44.9907C100.616 45.0092 100.619 45.029 100.617 45.0488L100.632 58.7816ZM93.5154 58.3667C96.8565 58.3667 98.5418 55.9152 98.5418 52.3701C98.5418 48.825 96.8666 46.3782 93.5154 46.3782C90.1649 46.3782 88.1937 48.8297 88.1937 52.3701C88.1937 55.9106 90.1649 58.3667 93.5154 58.3667Z" fill="white"/>
<path d="M110.799 60.0922C106.107 60.0922 103.387 56.9336 103.387 52.3231C103.387 47.7125 106.107 44.5586 110.799 44.5586C115.491 44.5586 118.217 47.7172 118.217 52.3231C118.217 56.9289 115.462 60.0922 110.799 60.0922ZM110.799 46.3312C107.482 46.3312 105.477 48.7826 105.477 52.3231C105.477 55.8635 107.482 58.3197 110.799 58.3197C114.117 58.3197 116.121 55.8682 116.121 52.3231C116.121 48.7779 114.117 46.3359 110.799 46.3359V46.3312Z" fill="white"/>
<path d="M134.988 59.6683C134.99 59.6879 134.987 59.7075 134.98 59.7258C134.973 59.7443 134.962 59.7609 134.948 59.7748C134.934 59.7886 134.917 59.7993 134.899 59.8062C134.88 59.8131 134.86 59.8158 134.84 59.8145H133.346C133.255 59.8145 133.227 59.7579 133.193 59.6683L132.898 58.0419C132.891 58.0123 132.876 57.9853 132.853 57.9649C132.831 57.9446 132.803 57.9319 132.772 57.9287C132.741 57.9256 132.711 57.9321 132.685 57.9474C132.658 57.9626 132.637 57.9859 132.625 58.0136C132.42 58.3106 130.955 60.1115 127.576 60.1115C122.907 60.1115 120.459 56.9529 120.459 52.3423C120.459 47.7318 123.06 44.5779 127.576 44.5779C130.893 44.5779 132.349 46.3505 132.625 46.7323C132.716 46.8785 132.898 46.8218 132.898 46.704V39.1611C132.896 39.1416 132.899 39.122 132.906 39.1036C132.912 39.0852 132.923 39.0686 132.937 39.0547C132.952 39.0408 132.968 39.0301 132.987 39.0233C133.006 39.0164 133.026 39.0136 133.045 39.015H134.84C134.86 39.0136 134.88 39.0164 134.899 39.0233C134.917 39.0301 134.934 39.0408 134.948 39.0547C134.962 39.0686 134.973 39.0852 134.98 39.1036C134.987 39.122 134.99 39.1416 134.988 39.1611V59.6683ZM127.871 58.3389C131.212 58.3389 132.898 55.8875 132.898 52.3423C132.898 48.7972 131.222 46.3505 127.871 46.3505C124.521 46.3505 122.549 48.8019 122.549 52.3423C122.549 55.8828 124.526 58.3389 127.871 58.3389Z" fill="white"/>
<path d="M145.199 44.5068C149.293 44.5068 151.881 46.2794 151.881 49.8246V55.9956C151.881 57.5325 152.267 57.9756 153.522 57.9756H153.851C153.872 57.9742 153.891 57.977 153.91 57.9839C153.928 57.9907 153.945 58.0015 153.959 58.0153C153.973 58.0291 153.984 58.0458 153.991 58.0642C153.998 58.0825 154.001 58.1022 154 58.1218V59.6209C154.001 59.6406 153.998 59.6605 153.991 59.6791C153.984 59.6976 153.973 59.7146 153.959 59.7288C153.945 59.743 153.929 59.7542 153.91 59.7616C153.892 59.769 153.872 59.7724 153.851 59.7717H153.522C151.461 59.7717 150.625 59.2107 150.114 57.9991C150.11 57.9704 150.097 57.9436 150.076 57.9223C150.056 57.9009 150.03 57.8861 150.002 57.8795C149.973 57.8729 149.943 57.8749 149.915 57.8854C149.888 57.8957 149.864 57.9141 149.847 57.9378C149.398 58.381 147.962 59.9744 144.253 60.064C140.306 60.064 138.153 58.2066 138.153 55.5147C138.153 52.8229 140.306 51.088 144.554 51.088H148.292C149.246 51.088 149.785 51.088 149.785 49.8481C149.785 48.3113 149.427 46.303 145.213 46.303C142.22 46.303 140.845 47.5429 140.845 49.8764C140.847 49.896 140.844 49.9157 140.837 49.934C140.83 49.9523 140.819 49.9691 140.805 49.9829C140.791 49.9967 140.774 50.0075 140.756 50.0143C140.737 50.0211 140.717 50.024 140.697 50.0226H138.903C138.883 50.024 138.863 50.0211 138.845 50.0143C138.826 50.0075 138.809 49.9967 138.795 49.9829C138.781 49.9691 138.77 49.9523 138.763 49.934C138.756 49.9157 138.753 49.896 138.754 49.8764C138.731 46.2512 141.599 44.5068 145.199 44.5068ZM149.771 52.9926C149.772 52.973 149.769 52.9534 149.762 52.935C149.755 52.9167 149.744 52.9 149.73 52.8862C149.716 52.8723 149.7 52.8615 149.681 52.8547C149.663 52.8479 149.642 52.845 149.623 52.8464H144.659C140.84 52.8464 140.234 54.2042 140.234 55.5006C140.234 56.797 141.37 58.2773 144.239 58.2773C148.158 58.2773 149.713 55.7693 149.771 53.6997V52.9926Z" fill="white"/>
<path d="M23.5533 33.0029L33.1045 42.4367C30.5714 44.9388 27.1357 46.3444 23.5533 46.3444C19.9708 46.3444 16.5351 44.9388 14.002 42.4367L23.5533 33.0029Z" fill="white"/>
<path d="M47.4129 42.4339L37.8615 51.8677C35.3284 49.3657 33.9053 45.9722 33.9053 42.4339C33.9053 38.8955 35.3284 35.502 37.8615 33L47.4129 42.4339Z" fill="white"/>
<path d="M37.859 65.9997L28.3076 56.5658C30.8408 54.0638 34.2765 52.6582 37.859 52.6582C41.4414 52.6582 44.8771 54.0638 47.4102 56.5658L37.859 65.9997Z" fill="white"/>
<path d="M14 56.5599L23.5513 47.126C26.0845 49.628 27.5076 53.0214 27.5076 56.5599C27.5076 60.0982 26.0845 63.4917 23.5513 65.9937L14 56.5599Z" fill="white"/>
</svg>
