<svg width="52" height="52" viewBox="0 0 52 52" fill="none" xmlns="http://www.w3.org/2000/svg">
<path d="M0 4C0 1.79086 1.79086 0 4 0H48C50.2091 0 52 1.79086 52 4V48C52 50.2091 50.2091 52 48 52H4C1.79086 52 0 50.2091 0 48V4Z" fill="#CFF9EA"/>
<path d="M36.7952 22.3865H17.5518L12.2959 35.9996H32.048C32.4406 35.9996 36.7952 22.3865 36.7952 22.3865Z" fill="#0C422A"/>
<path d="M21.223 22.387L23.3684 16.2646C23.8194 14.9773 25.4236 14.5462 26.4593 15.4338C28.0648 16.8099 28.9915 18.8169 28.9978 20.9314L29.0022 22.387H40.2957C40.2957 22.387 35.3789 36 35.5484 36H15.7964L21.0523 22.387H21.223Z" fill="#19D992"/>
</svg>
