<svg width="52" height="52" viewBox="0 0 52 52" fill="none" xmlns="http://www.w3.org/2000/svg">
<rect width="52" height="52" rx="4" fill="#E8E0FF"/>
<path d="M32.7201 12C30.2504 12 28.2401 14.0103 28.2401 16.48C28.2401 18.9497 30.2504 20.96 32.7201 20.96C35.1898 20.96 37.2001 18.9497 37.2001 16.48C37.2001 14.0103 35.1898 12 32.7201 12ZM24.0401 12.56C22.032 12.56 20.4001 14.1919 20.4001 16.2C20.4001 18.2081 22.032 19.84 24.0401 19.84C26.0482 19.84 27.6801 18.2081 27.6801 16.2C27.6801 14.1919 26.0482 12.56 24.0401 12.56ZM17.0401 13.68C15.4957 13.68 14.2401 14.9356 14.2401 16.48C14.2401 18.0244 15.4957 19.28 17.0401 19.28C18.5845 19.28 19.8401 18.0244 19.8401 16.48C19.8401 14.9356 18.5845 13.68 17.0401 13.68ZM17.0401 20.4C14.8789 20.4 13.1201 22.1587 13.1201 24.32V31.04C13.1201 31.3506 13.3717 31.6 13.6801 31.6H19.2801V34.4C19.2801 34.7106 19.5317 34.96 19.8401 34.96H25.4401V39.44C25.4401 39.7506 25.6917 40 26.0001 40H38.3201C38.6307 40 38.8801 39.7506 38.8801 39.44V29.36C38.8801 25.6544 35.8657 22.64 32.1601 22.64C30.7951 22.64 29.4892 23.0425 28.4042 23.7862C27.6561 22.0887 25.9651 20.96 24.0401 20.96C22.6751 20.96 21.4239 21.5244 20.5226 22.5087C19.8686 21.24 18.5407 20.4 17.0401 20.4Z" fill="#6038D0"/>
<path d="M32.7193 12C30.2496 12 28.2393 14.0103 28.2393 16.48C28.2393 18.9497 30.2496 20.96 32.7193 20.96C35.1889 20.96 37.1993 18.9497 37.1993 16.48C37.1993 14.0103 35.1889 12 32.7193 12ZM24.0393 12.56C22.0311 12.56 20.3993 14.1919 20.3993 16.2C20.3993 18.2081 22.0311 19.84 24.0393 19.84C26.0474 19.84 27.6793 18.2081 27.6793 16.2C27.6793 14.1919 26.0474 12.56 24.0393 12.56ZM17.0393 13.68C15.4949 13.68 14.2393 14.9356 14.2393 16.48C14.2393 18.0244 15.4949 19.28 17.0393 19.28C18.5836 19.28 19.8393 18.0244 19.8393 16.48C19.8393 14.9356 18.5836 13.68 17.0393 13.68Z" fill="#6038D0"/>
</svg>
