<svg width="52" height="52" viewBox="0 0 52 52" fill="none" xmlns="http://www.w3.org/2000/svg">
<path d="M0 4C0 1.79086 1.79086 0 4 0H48C50.2091 0 52 1.79086 52 4V48C52 50.2091 50.2091 52 48 52H4C1.79086 52 0 50.2091 0 48V4Z" fill="#DAF8FF"/>
<path d="M40 16.375C40 17.3599 39.218 18.2672 37.9 19C36.3086 19.8805 33.9406 20.5039 31.2117 20.6898C31.0148 20.5969 30.807 20.5039 30.5992 20.4164C28.4391 19.5141 25.5734 19 22.5 19C22.0461 19 21.6031 19.0109 21.1602 19.0328L21.1 19C19.782 18.2672 19 17.3599 19 16.375C19 13.9589 23.6539 12 29.5 12C35.2969 12 40 13.9589 40 16.375ZM20.7883 20.8102C21.3461 20.7719 21.9148 20.75 22.5 20.75C25.9016 20.75 28.9203 21.4227 30.8398 22.4672C32.1961 23.2055 33 24.1242 33 25.125C33 25.2945 32.9617 25.557 32.8852 25.7648C32.6336 26.4867 31.9117 27.1484 30.9711 27.7117C30.9656 27.7117 30.9547 27.7172 30.9492 27.7227C30.9328 27.7336 30.9164 27.7391 30.9 27.75C28.9859 28.8109 25.9344 29.5 22.5 29.5C19.2406 29.5 16.3236 28.882 14.3975 27.9086C14.2952 27.8539 14.1957 27.7555 14.0995 27.75C12.7809 27.0172 12 26.1094 12 25.125C12 23.2219 14.922 21.5977 19 21.0016C19.5742 20.9141 20.1703 20.8484 20.7883 20.8102ZM33.432 22.2047C34.9797 21.9641 36.3961 21.5812 37.5992 21.0836C38.4906 20.7117 39.3164 20.2523 40 19.6891V21.625C40 22.6805 39.0977 23.6539 37.6047 24.4086C36.8008 24.8133 35.8328 25.1523 34.7391 25.4148C34.7445 25.3219 34.75 25.2234 34.75 25.125C34.75 23.9273 34.1703 22.943 33.432 22.2047ZM33 30.375C33 31.3594 32.218 32.2672 30.9 33C30.8016 33.0055 30.7031 33.1039 30.6047 33.1586C28.6742 34.132 25.7594 34.75 22.5 34.75C19.0656 34.75 16.0152 34.0609 14.0995 33C12.7809 32.2672 12 31.3594 12 30.375V28.4391C12.6809 29.0023 13.5105 29.4617 14.4024 29.8336C16.5631 30.7359 19.4266 31.25 22.5 31.25C25.5734 31.25 28.4391 30.7359 30.5992 29.8336C31.0258 29.6586 31.4359 29.4563 31.8242 29.2375C32.1578 29.0516 32.4695 28.8438 32.7648 28.625C32.8469 28.5648 32.9234 28.4992 33 28.4391V30.375ZM34.75 27.2086C35.7398 26.9352 36.7461 26.6891 37.5992 26.3336C38.4906 25.9617 39.3164 25.5023 40 24.9391V26.875C40 27.4492 39.7266 28.0234 39.1852 28.5648C38.2938 29.4563 36.7242 30.1891 34.7391 30.6648C34.7445 30.5719 34.75 30.4734 34.75 30.375V27.2086ZM22.5 36.5C25.5734 36.5 28.4391 35.9859 30.5992 35.0836C31.4906 34.7117 32.3164 34.2523 33 33.6891V35.625C33 38.0422 28.2969 40 22.5 40C16.7009 40 12 38.0422 12 35.625V33.6891C12.6809 34.2523 13.5105 34.7117 14.4024 35.0836C16.5631 35.9859 19.4266 36.5 22.5 36.5Z" fill="#51BAD1"/>
</svg>
