<svg width="290" height="290" viewBox="0 0 290 290" fill="none" xmlns="http://www.w3.org/2000/svg">
<path fill-rule="evenodd" clip-rule="evenodd" d="M130.666 127.473C130.393 127.479 130.126 127.521 129.872 127.596L129.305 125.678C129.729 125.553 130.173 125.483 130.627 125.474L132.653 125.434L132.692 127.434L130.666 127.473ZM128.521 128.436C128.341 128.631 128.185 128.851 128.06 129.093L127.109 130.929L125.333 130.009L126.284 128.173C126.493 127.77 126.752 127.403 127.053 127.078L128.521 128.436ZM140.799 127.276L136.746 127.355L136.707 125.356L140.76 125.277L140.799 127.276ZM125.208 134.6L123.306 138.271L121.53 137.351L123.432 133.68L125.208 134.6ZM148.906 127.119L144.852 127.198L144.813 125.198L148.867 125.119L148.906 127.119ZM121.405 141.943L119.503 145.614L117.727 144.694L119.629 141.023L121.405 141.943ZM157.012 126.961L152.959 127.04L152.92 125.04L156.973 124.962L157.012 126.961ZM117.602 149.285L115.7 152.956L113.925 152.037L115.826 148.365L117.602 149.285ZM165.119 126.804L161.066 126.883L161.027 124.883L165.08 124.804L165.119 126.804ZM113.799 156.628L111.898 160.299L110.122 159.379L112.023 155.708L113.799 156.628ZM173.226 126.646L169.172 126.725L169.133 124.725L173.187 124.647L173.226 126.646ZM109.996 163.97L108.095 167.642L106.319 166.722L108.22 163.051L109.996 163.97ZM181.332 126.489L177.279 126.567L177.24 124.568L181.293 124.489L181.332 126.489ZM106.193 171.313L104.292 174.984L102.516 174.064L104.417 170.393L106.193 171.313ZM189.439 126.331L185.386 126.41L185.347 124.41L189.4 124.331L189.439 126.331ZM102.39 178.656L101.44 180.491L99.6637 179.571L100.614 177.736L102.39 178.656ZM195.519 126.213L193.492 126.252L193.453 124.253L195.48 124.213L195.519 126.213Z" fill="#BFBFBF"/>
<path fill-rule="evenodd" clip-rule="evenodd" d="M232.167 72.2097L237.5 70L236.747 75.7242L234.854 74.2713L195.535 125.517L194.741 124.909L234.06 73.6626L232.167 72.2097ZM100.253 180.527L58.7239 185.749L58.5991 184.757L100.128 179.535L100.253 180.527Z" fill="white"/>
<path d="M235.978 81.2103L237.582 69.9271L226.28 74.6839L235.978 81.2103Z" fill="white"/>
<path d="M181.016 168.561C190.336 155.844 194.51 140.076 192.704 124.413C190.897 108.75 183.243 94.3464 171.273 84.0841C159.303 73.8218 143.899 68.4577 128.144 69.0647C112.389 69.6718 97.4438 76.2054 86.2988 87.3583C75.1539 98.5112 68.631 113.461 68.0352 129.217C67.4394 144.972 72.8146 160.372 83.0854 172.335C93.3562 184.298 107.765 191.941 123.43 193.736C139.094 195.532 154.859 191.346 167.57 182.017H167.56C167.849 182.402 168.157 182.768 168.503 183.124L205.56 220.18C207.364 221.986 209.813 223.002 212.366 223.002C214.919 223.003 217.368 221.99 219.174 220.185C220.98 218.38 221.995 215.932 221.996 213.379C221.997 210.826 220.984 208.377 219.179 206.571L182.123 169.514C181.779 169.166 181.409 168.844 181.016 168.552V168.561ZM183.499 131.563C183.499 138.515 182.13 145.399 179.469 151.821C176.809 158.244 172.91 164.08 167.994 168.995C163.078 173.911 157.243 177.81 150.82 180.471C144.397 183.131 137.513 184.5 130.562 184.5C123.61 184.5 116.726 183.131 110.303 180.471C103.881 177.81 98.0448 173.911 93.1291 168.995C88.2134 164.08 84.3141 158.244 81.6537 151.821C78.9934 145.399 77.6241 138.515 77.6241 131.563C77.6241 117.523 83.2014 104.058 93.1292 94.1305C103.057 84.2028 116.522 78.6255 130.562 78.6255C144.602 78.6255 158.066 84.2028 167.994 94.1305C177.922 104.058 183.499 117.523 183.499 131.563Z" fill="#6038D0"/>
<path d="M142.788 108.102C137.701 105.164 131.752 104.082 125.956 105.039C120.16 105.996 114.875 108.933 111.002 113.35C107.129 117.766 104.907 123.389 104.714 129.261C104.522 135.132 106.372 140.888 109.948 145.549C113.524 150.209 118.606 153.486 124.327 154.82C130.048 156.154 136.054 155.463 141.323 152.864C146.591 150.266 150.796 145.921 153.221 140.571C155.645 135.22 156.139 129.194 154.619 123.52L130.092 130.091L142.788 108.102Z" fill="#19D992"/>
<path d="M154.617 123.519C153.754 120.298 152.265 117.279 150.235 114.634C148.206 111.988 145.674 109.768 142.787 108.101L130.091 130.091L154.617 123.519Z" fill="#6038D0"/>
</svg>
