<svg width="290" height="290" viewBox="0 0 290 290" fill="none" xmlns="http://www.w3.org/2000/svg">
<path fill-rule="evenodd" clip-rule="evenodd" d="M257.705 62.1517L186.162 67.9279L182.703 80.8386L163.679 82.3746L149.999 133.429L221.542 127.653L225.001 114.742L244.025 113.206L257.705 62.1517Z" fill="white"/>
<path fill-rule="evenodd" clip-rule="evenodd" d="M257.705 62.1517L186.162 67.9279L182.703 80.8386L163.679 82.3746L149.999 133.429L221.542 127.653L225.001 114.742L244.025 113.206L257.705 62.1517Z" fill="#6038D0"/>
<path fill-rule="evenodd" clip-rule="evenodd" d="M131.002 205.152L163.517 82.8715L164.483 83.1285L131.968 205.409L131.002 205.152Z" fill="white"/>
<path fill-rule="evenodd" clip-rule="evenodd" d="M253.999 158.412C260.563 161.102 263.949 164.302 264.377 167.723C264.804 171.143 262.31 175.079 256.61 179.301C250.985 183.468 242.551 187.675 231.891 191.667C210.587 199.646 180.606 206.692 147.007 210.891C113.408 215.09 82.6153 215.64 60.0024 213.149C48.6879 211.903 39.4779 209.901 33.0004 207.247C26.4368 204.557 23.0506 201.357 22.6231 197.936C22.1956 194.515 24.69 190.58 30.3898 186.358C36.0147 182.191 44.4489 177.984 55.1087 173.991C76.4131 166.012 106.394 158.967 139.993 154.768C173.592 150.569 204.384 150.019 226.997 152.51C238.312 153.756 247.522 155.758 253.999 158.412ZM139.869 153.776C207.175 145.364 263.364 151.553 265.369 167.599C267.374 183.645 214.437 203.471 147.131 211.883C79.8244 220.295 23.6362 214.106 21.6308 198.06C19.6255 182.014 72.5625 162.187 139.869 153.776Z" fill="white"/>
<path d="M101.53 214.358C101.53 221.324 95.8826 226.971 88.9165 226.971C81.9504 226.971 76.3033 221.324 76.3033 214.358C76.3033 207.392 81.9504 201.744 88.9165 201.744C95.8826 201.744 101.53 207.392 101.53 214.358Z" fill="#19D992"/>
<path fill-rule="evenodd" clip-rule="evenodd" d="M81.5356 214.357C81.5356 218.434 84.8406 221.739 88.9175 221.739C92.9944 221.739 96.2994 218.434 96.2994 214.357H97.3021C97.3021 218.988 93.5482 222.742 88.9175 222.742C84.2869 222.742 80.533 218.988 80.533 214.357H81.5356Z" fill="#201F1F"/>
<path d="M98.411 163.772C98.411 170.738 92.7639 176.385 85.7978 176.385C78.8318 176.385 73.1847 170.738 73.1847 163.772C73.1847 156.806 78.8318 151.159 85.7978 151.159C92.7639 151.159 98.411 156.806 98.411 163.772Z" fill="#19D992"/>
<path fill-rule="evenodd" clip-rule="evenodd" d="M78.415 163.772C78.415 167.849 81.72 171.154 85.7969 171.154C89.8738 171.154 93.1788 167.849 93.1788 163.772H94.1814C94.1814 168.403 90.4276 172.156 85.7969 172.156C81.1662 172.156 77.4123 168.403 77.4123 163.772H78.415Z" fill="#201F1F"/>
<path d="M233.226 151.613C233.226 158.579 227.579 164.226 220.613 164.226C213.647 164.226 208 158.579 208 151.613C208 144.647 213.647 139 220.613 139C227.579 139 233.226 144.647 233.226 151.613Z" fill="#19D992"/>
<path fill-rule="evenodd" clip-rule="evenodd" d="M213.23 151.613C213.23 155.69 216.535 158.995 220.612 158.995C224.689 158.995 227.994 155.69 227.994 151.613H228.997C228.997 156.244 225.243 159.998 220.612 159.998C215.982 159.998 212.228 156.244 212.228 151.613H213.23Z" fill="#201F1F"/>
<path d="M197.226 205.613C197.226 212.579 191.579 218.226 184.613 218.226C177.647 218.226 172 212.579 172 205.613C172 198.647 177.647 193 184.613 193C191.579 193 197.226 198.647 197.226 205.613Z" fill="#19D992"/>
<path fill-rule="evenodd" clip-rule="evenodd" d="M177.23 205.613C177.23 209.69 180.535 212.995 184.612 212.995C188.689 212.995 191.994 209.69 191.994 205.613H192.997C192.997 210.244 189.243 213.998 184.612 213.998C179.982 213.998 176.228 210.244 176.228 205.613H177.23Z" fill="#201F1F"/>
<path d="M221.226 200.613C221.226 207.579 215.579 213.226 208.613 213.226C201.647 213.226 196 207.579 196 200.613C196 193.647 201.647 188 208.613 188C215.579 188 221.226 193.647 221.226 200.613Z" fill="#19D992"/>
<path fill-rule="evenodd" clip-rule="evenodd" d="M201.23 200.613C201.23 204.69 204.535 207.995 208.612 207.995C212.689 207.995 215.994 204.69 215.994 200.613H216.997C216.997 205.244 213.243 208.998 208.612 208.998C203.982 208.998 200.228 205.244 200.228 200.613H201.23Z" fill="#201F1F"/>
</svg>
