<svg width="290" height="290" viewBox="0 0 290 290" fill="none" xmlns="http://www.w3.org/2000/svg">
<path d="M141.636 59.3182C141.636 69.9873 132.987 78.6364 122.318 78.6364C111.649 78.6364 103 69.9873 103 59.3182C103 48.649 111.649 40 122.318 40C132.987 40 141.636 48.649 141.636 59.3182Z" fill="#6038D0"/>
<path d="M113.045 59.3182C118.812 57.6943 120.985 55.6579 122.318 50.0455C123.576 55.2693 125.472 57.4202 131.691 59.4186C125.864 60.639 123.797 62.5592 122.418 68.6913C120.848 62.2862 118.647 60.2981 113.045 59.3182Z" fill="white"/>
<path d="M106.091 135.045C106.091 145.715 97.4419 154.364 86.7727 154.364C76.1036 154.364 67.4546 145.715 67.4546 135.045C67.4546 124.376 76.1036 115.727 86.7727 115.727C97.4419 115.727 106.091 124.376 106.091 135.045Z" fill="#19D992"/>
<path d="M77.4999 135.045C83.2665 133.422 85.4394 131.385 86.7726 125.773C88.0304 130.997 89.9262 133.147 96.1458 135.146C90.3186 136.366 88.2517 138.286 86.873 144.419C85.3025 138.013 83.102 136.025 77.4999 135.045Z" fill="white"/>
<path d="M186.455 90.2273C186.455 100.896 177.806 109.545 167.137 109.545C156.467 109.545 147.818 100.896 147.818 90.2273C147.818 79.5581 156.467 70.9091 167.137 70.9091C177.806 70.9091 186.455 79.5581 186.455 90.2273Z" fill="#19D992"/>
<path d="M157.864 90.2273C163.63 88.6034 165.803 86.567 167.136 80.9545C168.394 86.1784 170.29 88.3293 176.51 90.3277C170.682 91.5481 168.615 93.4683 167.237 99.6004C165.666 93.1953 163.466 91.2072 157.864 90.2273Z" fill="white"/>
<path fill-rule="evenodd" clip-rule="evenodd" d="M208.497 77.0909L94.6387 117.67V140.179L64.3637 150.969V239.981L178.222 199.402V176.892L208.497 166.102V77.0909Z" fill="#ADD5E5"/>
<path fill-rule="evenodd" clip-rule="evenodd" d="M208.497 77.0909L94.6387 117.67V140.179L64.3637 150.969V239.981L178.222 199.402V176.892L208.497 166.102V77.0909Z" fill="#201F1F"/>
<path fill-rule="evenodd" clip-rule="evenodd" d="M95.6386 140.885L65.3637 151.675V238.563L177.222 198.697V176.187L207.497 165.397V78.5089L95.6386 118.375V140.885ZM94.6387 117.67V140.179L64.3637 150.969V239.981L178.222 199.402V176.892L208.497 166.102V77.0909L94.6387 117.67Z" fill="white"/>
<path fill-rule="evenodd" clip-rule="evenodd" d="M261.278 127.317C248.037 125.447 229.687 125.431 208.134 127.289L208.048 126.293C229.637 124.432 248.071 124.442 261.418 126.327C268.088 127.269 273.519 128.683 277.445 130.586C281.36 132.483 283.873 134.914 284.511 137.935C284.984 140.173 284.383 142.535 282.901 144.951C281.42 147.365 279.039 149.87 275.875 152.43C269.547 157.551 260 162.96 247.97 168.346C223.904 179.12 189.801 189.84 151.363 197.963C112.925 206.085 77.4003 210.078 51.0326 209.961C37.853 209.903 26.9337 208.818 19.0744 206.696C15.1456 205.634 11.9543 204.307 9.62356 202.699C7.29029 201.088 5.7858 199.172 5.31286 196.934C4.7121 194.091 5.84098 191.054 8.31721 187.943C10.7975 184.827 14.6837 181.566 19.7633 178.235C29.9268 171.571 44.9711 164.564 63.42 157.862L63.7615 158.802C45.3457 165.492 30.3828 172.467 20.3116 179.071C15.2739 182.374 11.4859 185.568 9.09958 188.566C6.70921 191.569 5.77906 194.303 6.29125 196.727C6.69474 198.636 7.99223 200.358 10.1915 201.876C12.3934 203.395 15.4652 204.685 19.3352 205.73C27.0734 207.82 37.8941 208.903 51.0371 208.961C77.3147 209.077 112.766 205.097 151.156 196.984C189.546 188.872 223.577 178.17 247.562 167.433C259.558 162.063 269.015 156.694 275.246 151.653C278.362 149.131 280.65 146.709 282.049 144.428C283.446 142.151 283.936 140.051 283.533 138.142C282.988 135.566 280.811 133.328 277.009 131.485C273.216 129.648 267.901 128.253 261.278 127.317Z" fill="white"/>
</svg>
