<svg width="290" height="290" viewBox="0 0 290 290" fill="none" xmlns="http://www.w3.org/2000/svg">
<path d="M167.859 144.327L154.914 140.462C154.019 137.337 152.788 134.318 151.243 131.459L157.58 119.595C157.818 119.147 157.905 118.635 157.828 118.134C157.752 117.632 157.516 117.169 157.155 116.813L147.919 107.539C147.563 107.178 147.1 106.942 146.599 106.865C146.097 106.789 145.585 106.876 145.137 107.114L133.351 113.412C130.463 111.792 127.404 110.496 124.231 109.548L120.367 96.7572C120.203 96.2858 119.895 95.8785 119.485 95.5938C119.075 95.3091 118.586 95.1617 118.087 95.1729H105.026C104.524 95.1752 104.036 95.3376 103.633 95.6365C103.23 95.9353 102.932 96.355 102.784 96.8345L98.9201 109.587C95.7205 110.529 92.6359 111.826 89.7231 113.451L78.1302 107.191C77.6824 106.953 77.1699 106.866 76.6687 106.943C76.1675 107.019 75.7043 107.255 75.3479 107.616L65.9577 116.774C65.5971 117.131 65.3609 117.594 65.2844 118.095C65.2078 118.596 65.2949 119.109 65.5327 119.557L71.7928 131.149C70.17 134.05 68.874 137.121 67.9285 140.308L55.1377 144.172C54.6582 144.32 54.2385 144.617 53.9397 145.02C53.6408 145.424 53.4784 145.912 53.4761 146.413V159.475C53.4784 159.976 53.6408 160.464 53.9397 160.867C54.2385 161.271 54.6582 161.568 55.1377 161.716L68.0058 165.58C68.9616 168.713 70.2574 171.733 71.8701 174.584L65.5327 186.718C65.2949 187.166 65.2078 187.678 65.2844 188.179C65.3609 188.681 65.5971 189.144 65.9577 189.5L75.1934 198.736C75.5497 199.096 76.0129 199.333 76.5141 199.409C77.0153 199.486 77.5279 199.399 77.9757 199.161L89.9163 192.785C92.741 194.309 95.7205 195.527 98.8042 196.417L102.668 209.44C102.817 209.919 103.114 210.339 103.517 210.638C103.92 210.937 104.408 211.099 104.91 211.102H117.971C118.473 211.099 118.961 210.937 119.364 210.638C119.767 210.339 120.064 209.919 120.212 209.44L124.077 196.379C127.134 195.483 130.087 194.266 132.887 192.746L144.905 199.161C145.353 199.399 145.865 199.486 146.367 199.409C146.868 199.333 147.331 199.096 147.687 198.736L156.923 189.5C157.284 189.144 157.52 188.681 157.596 188.179C157.673 187.678 157.586 187.166 157.348 186.718L150.933 174.739C152.469 171.928 153.7 168.961 154.604 165.889L167.627 162.025C168.107 161.877 168.526 161.58 168.825 161.177C169.124 160.774 169.286 160.286 169.289 159.784V146.607C169.312 146.126 169.187 145.65 168.931 145.242C168.676 144.835 168.301 144.515 167.859 144.327ZM111.556 174.391C107.353 174.391 103.244 173.144 99.7485 170.809C96.2533 168.474 93.5292 165.154 91.9206 161.271C90.3119 157.387 89.891 153.114 90.7111 148.991C91.5312 144.868 93.5554 141.081 96.5278 138.109C99.5001 135.136 103.287 133.112 107.41 132.292C111.533 131.472 115.806 131.893 119.69 133.501C123.573 135.11 126.893 137.834 129.228 141.329C131.563 144.824 132.81 148.934 132.81 153.137C132.81 158.774 130.571 164.18 126.585 168.166C122.599 172.152 117.193 174.391 111.556 174.391Z" fill="#6038D0"/>
<path d="M228.05 122.916L220.745 117.8C220.835 115.656 220.692 113.509 220.32 111.396L226.759 105.284C227.002 105.053 227.163 104.75 227.219 104.42C227.276 104.09 227.224 103.751 227.072 103.452L223.218 95.7201C223.07 95.42 222.829 95.1756 222.531 95.0233C222.233 94.871 221.893 94.8188 221.563 94.8746L212.869 96.3666C211.397 94.7502 209.751 93.3017 207.961 92.0474L208.203 83.2306C208.199 82.9013 208.09 82.5818 207.893 82.3182C207.695 82.0546 207.42 81.8604 207.105 81.7635L198.923 79.0444C198.608 78.9414 198.269 78.9415 197.954 79.0448C197.639 79.1481 197.366 79.3492 197.173 79.6187L192.098 86.8023C189.897 86.7268 187.695 86.8965 185.532 87.3083L179.574 80.9734C179.342 80.7313 179.04 80.57 178.71 80.5136C178.38 80.4573 178.04 80.5088 177.742 80.6605L169.953 84.4425C169.653 84.5907 169.409 84.8316 169.257 85.1297C169.104 85.4277 169.052 85.7669 169.108 86.0969L170.616 94.662C168.996 96.1411 167.544 97.7954 166.289 99.5945L157.472 99.3523C157.141 99.3452 156.816 99.444 156.545 99.6343C156.274 99.8246 156.07 100.096 155.964 100.41L153.245 108.592C153.142 108.907 153.143 109.246 153.246 109.561C153.349 109.876 153.55 110.149 153.82 110.342L161.076 115.441C161.022 117.603 161.205 119.764 161.622 121.886L155.126 128.167C154.884 128.398 154.723 128.701 154.666 129.031C154.61 129.361 154.662 129.7 154.813 129.999L158.676 137.707C158.824 138.007 159.065 138.251 159.363 138.404C159.661 138.556 160 138.608 160.33 138.552L169.137 137.044C170.589 138.587 172.202 139.97 173.949 141.17L173.658 150.132C173.651 150.463 173.75 150.788 173.94 151.059C174.131 151.33 174.402 151.533 174.716 151.639L182.898 154.358C183.213 154.461 183.552 154.461 183.867 154.358C184.182 154.255 184.455 154.054 184.648 153.784L189.788 146.407C191.889 146.483 193.993 146.335 196.063 145.966L202.256 152.486C202.487 152.728 202.79 152.889 203.119 152.946C203.449 153.002 203.789 152.95 204.087 152.799L211.795 148.936C212.095 148.788 212.339 148.547 212.492 148.249C212.644 147.951 212.696 147.612 212.64 147.282L211.116 138.442C212.663 137.001 214.051 135.399 215.258 133.663L224.22 133.954C224.551 133.961 224.876 133.862 225.147 133.672C225.418 133.481 225.621 133.21 225.727 132.896L228.471 124.641C228.585 124.345 228.606 124.021 228.531 123.712C228.455 123.404 228.287 123.126 228.05 122.916ZM186.522 130.027C183.889 129.152 181.575 127.516 179.871 125.325C178.168 123.134 177.153 120.488 176.954 117.72C176.754 114.953 177.38 112.188 178.752 109.777C180.124 107.365 182.181 105.414 184.661 104.171C187.142 102.928 189.936 102.448 192.689 102.793C195.442 103.137 198.032 104.29 200.129 106.107C202.227 107.923 203.739 110.32 204.475 112.996C205.21 115.671 205.135 118.505 204.26 121.138C203.087 124.669 200.559 127.589 197.232 129.256C193.906 130.923 190.053 131.2 186.522 130.027Z" fill="#19D992"/>
<path fill-rule="evenodd" clip-rule="evenodd" d="M223.603 112.362L134.652 144.064V161.65L111 170.079V239.619L199.951 207.917V190.331L223.603 181.902V112.362Z" fill="#ADD5E5"/>
<path fill-rule="evenodd" clip-rule="evenodd" d="M223.603 112.362L134.652 144.064V161.65L111 170.079V239.619L199.951 207.917V190.331L223.603 181.902V112.362Z" fill="#201F1F"/>
<path fill-rule="evenodd" clip-rule="evenodd" d="M135.652 162.355L112 170.784V238.201L198.951 207.212V189.626L222.603 181.197V113.78L135.652 144.77V162.355ZM134.652 144.064V161.65L111 170.079V239.619L199.951 207.917V190.331L223.603 181.902V112.362L134.652 144.064Z" fill="white"/>
<path fill-rule="evenodd" clip-rule="evenodd" d="M138.249 60.6588C138.182 56.2674 139.618 52.722 142.462 50.2656ZM142.462 50.2656C145.317 47.7994 149.657 46.375 155.499 46.375ZM141.808 49.5088C144.904 46.8349 149.508 45.375 155.499 45.375C161.492 45.375 166.098 46.8349 169.194 49.5088C172.302 52.1926 173.824 56.0431 173.749 60.6747C173.679 65.2122 172.209 68.3306 169.166 71.3742C167.675 72.8659 166.63 73.9185 165.933 75.3121C165.242 76.6937 164.876 78.455 164.874 81.3752C164.874 81.6514 164.65 81.8751 164.374 81.875C164.098 81.8749 163.874 81.6509 163.874 81.3747C163.876 78.3783 164.25 76.4417 165.039 74.8649C165.814 73.3138 166.973 72.1544 168.42 70.7056L168.458 70.6675C171.331 67.7946 172.684 64.9192 172.75 60.6589C172.82 56.2676 171.385 52.722 168.541 50.2657C165.685 47.7995 161.343 46.375 155.499 46.375M141.808 49.5088C138.701 52.1925 137.178 56.0429 137.25 60.6744ZM142.541 70.6673C142.541 70.6673 142.54 70.6672 142.541 70.6673L142.575 70.7013C144.027 72.1519 145.188 73.3122 145.965 74.8649C146.753 76.442 147.126 78.3788 147.124 81.3752C147.124 81.6514 146.9 81.8751 146.624 81.875C146.348 81.8749 146.124 81.6509 146.124 81.3747C146.126 78.4545 145.761 76.6934 145.07 75.3121C144.373 73.9188 143.327 72.8662 141.834 71.3746C138.79 68.3306 137.323 65.2117 137.25 60.6744M142.541 70.6673C139.668 67.7947 138.318 64.9193 138.249 60.6588ZM146.124 90.25C146.124 89.9739 146.348 89.75 146.624 89.75H164.374C164.651 89.75 164.874 89.9739 164.874 90.25C164.874 90.5261 164.651 90.75 164.374 90.75H146.624C146.348 90.75 146.124 90.5261 146.124 90.25ZM149.083 99.125C149.083 98.8489 149.307 98.625 149.583 98.625H161.416C161.692 98.625 161.916 98.8489 161.916 99.125C161.916 99.4011 161.692 99.625 161.416 99.625H149.583C149.307 99.625 149.083 99.4011 149.083 99.125Z" fill="white"/>
</svg>
