<svg width="168" height="100" viewBox="0 0 168 100" fill="none" xmlns="http://www.w3.org/2000/svg">
<path d="M104.158 48.7559C102.952 48.7559 101.747 48.975 100.871 49.5227C99.9947 49.9609 99.3375 50.6182 98.7897 51.385V49.194H96.1606L94.627 62.011H97.4752L98.242 56.0955C98.3515 55.1096 98.6802 54.3427 99.0088 53.5759C99.447 52.8091 99.9947 52.2614 100.542 51.8232C101.2 51.385 101.857 51.1659 102.624 51.1659C103.391 51.1659 104.048 51.385 104.377 51.8232C104.705 52.2614 104.924 52.8091 104.815 53.4664L103.829 61.9014H106.787L107.882 52.4804C107.992 51.2754 107.663 50.3991 107.006 49.7418C106.348 49.0845 105.363 48.7559 104.158 48.7559Z" fill="white"/>
<path d="M123.987 60.1487L126.725 38.1299H123.877L122.343 50.9468C121.905 50.3991 121.467 49.9609 120.81 49.6323C119.933 49.0845 118.838 48.7559 117.633 48.7559C116.428 48.7559 115.442 48.8654 114.566 49.3036C113.689 49.6323 112.922 50.18 112.156 50.9468C111.498 51.6041 110.951 52.3709 110.622 53.2473C110.293 54.1237 110.074 55 110.074 55.8764C109.965 57.0814 110.184 58.0673 110.732 59.0533C111.279 60.0392 111.937 60.806 112.922 61.4633C113.908 62.011 115.004 62.3397 116.209 62.3397C117.304 62.4492 118.181 62.2301 119.167 61.6824C119.933 61.2442 120.591 60.6965 121.138 60.1487C121.029 61.1346 121.796 62.1206 122.891 62.1206H123.001H123.877L123.987 60.1487ZM121.577 56.6432C121.358 57.3005 121.029 57.8483 120.591 58.2864C120.153 58.7246 119.605 59.1628 119.057 59.3819C118.509 59.601 117.852 59.7105 117.195 59.7105C116.318 59.7105 115.661 59.4914 115.004 59.0533C114.347 58.7246 113.908 58.1769 113.58 57.5196C113.251 56.8623 113.142 56.0955 113.142 55.2191C113.251 54.3428 113.47 53.5759 113.908 52.8091C114.347 52.1518 114.894 51.6041 115.661 51.2755C116.428 50.9468 117.195 50.7277 118.071 50.8373C118.728 50.8373 119.386 50.9468 119.933 51.2755C120.481 51.6041 120.919 51.9327 121.358 52.4805C121.686 52.9187 121.905 53.4664 122.015 54.1237L121.577 56.6432Z" fill="white"/>
<path d="M92.1056 51.8229C91.6674 51.0561 91.2292 50.3988 90.6815 49.9606C90.1337 49.5224 89.4765 49.1938 88.8192 48.9747C88.1619 48.7556 87.3951 48.6461 86.6282 48.6461C85.4232 48.6461 84.3278 48.8652 83.3419 49.3033C82.4655 49.7415 81.6987 50.2893 81.0414 50.9465C80.3841 51.6038 79.9459 52.3707 79.6173 53.247C79.2886 54.1234 79.1791 54.8902 79.1791 55.7666C79.1791 56.2048 79.1791 56.643 79.2886 56.9716L74.359 58.5052C74.359 58.3957 74.4686 58.2862 74.4686 58.1766C74.7972 57.4098 75.0163 56.643 75.1259 55.8761C75.2354 54.5616 75.0163 53.4661 74.5781 52.6993C74.1399 51.8229 73.4827 51.1656 72.7158 50.7275C71.949 50.1797 71.0726 49.7415 70.1963 49.4129C69.4294 49.0843 68.6626 48.6461 68.0053 48.3174C67.3481 47.8792 66.8003 47.4411 66.3621 47.0029C65.924 46.5647 65.8144 45.9074 65.8144 45.3597C65.8144 45.031 65.924 44.7024 66.143 44.2642C66.2526 43.9356 66.5812 43.6069 66.9099 43.2783C67.2385 42.9496 67.6767 42.7306 68.2244 42.5115C68.7722 42.2924 69.3199 42.2924 70.0867 42.2924C70.9631 42.2924 71.8395 42.5115 72.8254 42.8401C73.7018 43.1687 74.5781 43.6069 75.2354 44.0451L76.6595 41.8542C76.1118 41.416 75.564 41.0874 74.9068 40.7587C74.2495 40.4301 73.4827 40.211 72.7158 39.9919C71.949 39.7728 71.0726 39.6633 70.0867 39.5537C68.6626 39.6633 67.5672 39.8823 66.4717 40.3205C65.3762 40.7587 64.6094 41.416 63.9521 42.2924C63.2948 43.1687 62.9662 44.1547 62.8566 45.3597C62.7471 46.236 62.8567 47.1124 63.1853 47.7697C63.5139 48.427 63.9521 49.0843 64.4998 49.5224C65.0476 49.9606 65.7049 50.3988 66.3621 50.837C67.0194 51.1656 67.6767 51.4943 68.334 51.8229C68.9913 52.1516 69.6485 52.4802 70.3058 52.9184C70.8535 53.3566 71.4013 53.7947 71.7299 54.2329C72.0586 54.7807 72.2777 55.3284 72.2777 55.9857C72.1681 56.7525 71.949 57.3002 71.5108 57.9575C71.0726 58.5052 70.5249 58.9434 69.8676 59.2721C69.2103 59.6007 68.4435 59.7103 67.5672 59.7103C66.9099 59.7103 66.143 59.4912 65.4858 59.2721C64.8285 59.053 64.0617 58.7243 63.5139 58.3957C62.8567 58.0671 62.3089 57.6289 61.8707 57.3002L60.2275 59.6007C60.8848 60.1484 61.5421 60.5866 62.3089 61.0248C63.0757 61.463 63.8426 61.6821 64.7189 62.0107C65.5953 62.2298 66.4717 62.4489 67.4576 62.4489C68.5531 62.4489 69.539 62.3394 70.3058 62.1203H70.4154L80.0555 59.053C80.165 59.1625 80.165 59.3816 80.2745 59.4912C80.8223 60.4771 81.6987 61.2439 82.6846 61.6821C83.6705 62.2298 84.8755 62.4489 86.1901 62.4489C86.9569 62.4489 87.6142 62.3394 88.381 62.1203C89.1478 61.9012 89.8051 61.6821 90.3528 61.2439L89.2574 59.053C88.8192 59.2721 88.381 59.4912 87.9428 59.7103C87.5046 59.9294 86.9569 59.9294 86.4092 59.9294C85.7519 59.9294 84.9851 59.8198 84.4373 59.4912C83.78 59.1625 83.3419 58.7243 82.9037 58.0671L93.201 54.7807C92.7629 53.5757 92.5438 52.5897 92.1056 51.8229ZM82.0273 55.438C82.0273 54.6711 82.2464 53.9043 82.575 53.247C82.9037 52.5897 83.4514 52.042 84.1087 51.6038C84.766 51.1656 85.5328 50.9465 86.5187 50.9465C87.3951 50.9465 88.0523 51.1656 88.6001 51.7134C89.1478 52.1516 89.586 52.8088 89.8051 53.5757L82.1368 56.0952C82.1368 55.8761 82.0273 55.657 82.0273 55.438Z" fill="white"/>
<path d="M123.766 62.0112C124.204 62.0112 124.752 61.9016 125.19 61.6825L130.01 59.7107C130.558 60.4775 131.215 61.1348 132.091 61.573C133.077 62.1207 134.282 62.3398 135.597 62.3398C136.363 62.3398 137.021 62.2303 137.788 62.0112C138.554 61.7921 139.212 61.573 139.759 61.1348L138.664 58.9439C138.226 59.1629 137.788 59.382 137.349 59.6011C136.911 59.8202 136.363 59.8202 135.816 59.8202C135.158 59.8202 134.392 59.7107 133.844 59.382C133.406 59.163 133.077 58.9439 132.748 58.6152L142.608 54.6715C142.389 53.5761 142.169 52.5902 141.731 51.8233C141.293 51.0565 140.855 50.3992 140.307 49.961C139.759 49.5229 139.102 49.1942 138.445 48.9751C137.788 48.756 137.021 48.6465 136.254 48.6465C135.049 48.6465 133.953 48.8656 132.968 49.3038C132.091 49.7419 131.324 50.2897 130.667 50.947C130.01 51.6042 129.572 52.3711 129.243 53.2474C128.914 54.1238 128.805 54.8906 128.805 55.767C128.805 56.5338 128.914 57.3007 129.133 57.9579L123.985 60.1489L123.766 62.0112ZM131.763 55.4384C131.763 54.6715 131.982 53.9047 132.31 53.2474C132.639 52.5902 133.187 52.0424 133.844 51.6042C134.501 51.1661 135.268 50.947 136.254 50.947C137.13 50.947 137.788 51.1661 138.335 51.7138C138.883 52.2615 139.321 52.9188 139.54 53.6856L131.872 56.8625C131.872 56.4243 131.763 55.9861 131.763 55.4384Z" fill="white"/>
<path d="M152.029 49.0847C151.263 49.4133 150.605 49.7419 149.948 50.2897C149.291 50.8374 148.743 51.4947 148.305 52.2615L148.524 49.1942H146.004L144.471 62.0112H147.319L148.086 56.2052C148.195 55.3288 148.524 54.562 148.962 53.9047C149.51 53.2474 150.058 52.5902 150.934 52.152C151.701 51.7138 152.577 51.4947 153.563 51.6042L154.001 48.6465C153.344 48.6465 152.796 48.8656 152.029 49.0847Z" fill="white"/>
<path fill-rule="evenodd" clip-rule="evenodd" d="M32.5134 31.9952C22.5071 31.9952 14.3287 40.1736 14.3287 50.1799C14.3287 60.1862 22.5071 68.3646 32.5134 68.3646C42.5197 68.3646 50.6981 60.1862 50.6981 50.1799C50.6981 40.1736 42.5197 31.9952 32.5134 31.9952ZM13.6714 50.1799C13.6714 39.8106 22.1441 31.3379 32.5134 31.3379C42.8827 31.3379 51.3554 39.8106 51.3554 50.1799C51.3554 60.5492 42.8827 69.0219 32.5134 69.0219C22.1441 69.0219 13.6714 60.5492 13.6714 50.1799Z" fill="white"/>
<path d="M30.7614 63.5448L30.4328 63.3257L34.8147 56.4242C35.9101 54.562 35.4719 52.1519 33.6097 51.0565L31.3092 49.5228C29.3373 48.2083 28.6801 45.6887 29.8851 43.6073L33.8287 36.8154L34.1574 37.0345L30.2137 43.8264C29.1182 45.6887 29.666 47.9892 31.5283 49.0846L33.8287 50.6183C35.8006 51.9328 36.4579 54.562 35.1433 56.6433L30.7614 63.5448Z" fill="white"/>
<path d="M31.5281 63.873C31.1994 63.873 30.8708 63.7635 30.5421 63.5444C29.6658 62.9967 29.3371 61.7917 29.9944 60.9153L33.4999 55.438C34.1572 54.452 33.8285 53.0279 32.8426 52.3707L30.5421 50.837C27.8035 49.0843 26.9271 45.4692 28.5703 42.621L31.6376 37.3628C31.8567 36.9246 32.2949 36.596 32.8426 36.4864C33.3904 36.3769 33.8285 36.3769 34.2667 36.7055C34.7049 36.9246 35.0336 37.3628 35.1431 37.9105C35.2526 38.4583 35.1431 38.8964 34.924 39.3346L31.8567 44.5929C31.1994 45.6883 31.5281 47.0029 32.6235 47.6602L34.924 49.1938C37.6627 50.9466 38.539 54.6711 36.7863 57.5193L33.2808 62.9967C32.7331 63.5444 32.1853 63.873 31.5281 63.873ZM33.1713 36.9246C33.0617 36.9246 32.9522 36.9246 32.8426 36.9246C32.514 37.0342 32.1853 37.2532 31.9662 37.5819L28.8989 42.8401C27.3653 45.4692 28.1321 48.7556 30.6517 50.3988L32.9522 51.9325C34.1572 52.6993 34.5954 54.3425 33.719 55.6571L30.2135 61.1344C29.7753 61.7917 29.9944 62.7776 30.6517 63.2158C31.309 63.654 32.2949 63.4349 32.7331 62.7776L36.129 57.3003C37.7722 54.6711 37.0054 51.2752 34.3763 49.5225L32.0758 47.9888C30.8708 47.222 30.4326 45.5788 31.1994 44.3738L34.2667 39.1155C34.7049 38.4583 34.4858 37.4723 33.719 37.1437C33.719 37.0341 33.3904 36.9246 33.1713 36.9246Z" fill="white"/>
</svg>
