<svg width="177" height="98" viewBox="0 0 177 98" fill="none" xmlns="http://www.w3.org/2000/svg">
<path d="M3.01778 96.6197C2.19475 96.6197 1.46317 96.3437 0.823032 95.7916C0.274344 95.1474 0 94.4113 0 93.5831C0 93.215 0.0914479 92.893 0.274344 92.6169L31.5495 4.27888C31.8239 3.26667 32.4183 2.30047 33.3328 1.38028C34.3387 0.460093 35.6647 0 37.3108 0H62.4132C64.1507 0 65.4767 0.460093 66.3912 1.38028C67.3057 2.30047 67.9001 3.26667 68.1744 4.27888L99.5868 92.6169C99.6783 92.893 99.724 93.215 99.724 93.5831C99.724 94.4113 99.4039 95.1474 98.7638 95.7916C98.2151 96.3437 97.5292 96.6197 96.7062 96.6197H75.5817C74.0271 96.6197 72.884 96.2516 72.1524 95.5155C71.4209 94.7793 70.9179 94.0892 70.6435 93.4451L66.3912 81.8507H33.3328L29.0804 93.4451C28.8061 94.0892 28.3031 94.7793 27.5716 95.5155C26.9314 96.2516 25.7883 96.6197 24.1423 96.6197H3.01778ZM39.6427 58.5239H60.0813L49.7934 27.4676L39.6427 58.5239Z" fill="#595959"/>
<path d="M129.539 98C124.509 98 119.982 97.0338 115.958 95.1014C112.026 93.169 108.917 90.5925 106.631 87.3718C104.436 84.0592 103.339 80.3784 103.339 76.3296C103.339 69.7042 105.991 64.5052 111.295 60.7324C116.69 56.8676 123.869 54.1991 132.831 52.7268L148.605 50.2423V49.2761C148.605 46.4235 148.148 44.307 147.234 42.9268C146.411 41.4545 144.627 40.7183 141.884 40.7183C139.964 40.7183 138.409 41.0864 137.22 41.8225C136.031 42.5587 134.934 43.6169 133.928 44.9972C133.014 46.0094 131.825 46.5155 130.362 46.5155H111.02C110.014 46.5155 109.237 46.2394 108.688 45.6873C108.14 45.1352 107.911 44.3991 108.003 43.4789C108.094 41.8225 108.78 39.8901 110.06 37.6817C111.34 35.3812 113.307 33.1728 115.958 31.0563C118.702 28.8479 122.223 27.0535 126.521 25.6732C130.819 24.2009 135.986 23.4648 142.021 23.4648C148.148 23.4648 153.406 24.1549 157.796 25.5352C162.185 26.9155 165.798 28.8479 168.633 31.3324C171.467 33.8169 173.571 36.8535 174.942 40.4423C176.314 43.939 177 47.8498 177 52.1747V93.031C177 94.0432 176.634 94.9174 175.903 95.6535C175.262 96.2977 174.439 96.6197 173.434 96.6197H153.406C152.492 96.6197 151.669 96.2977 150.937 95.6535C150.206 94.9174 149.84 94.0432 149.84 93.031V88.6141C148.651 90.4545 147.051 92.0648 145.039 93.4451C143.119 94.8254 140.832 95.9296 138.18 96.7577C135.62 97.5859 132.739 98 129.539 98ZM137.494 79.9183C139.781 79.9183 141.747 79.4582 143.393 78.538C145.13 77.5258 146.502 76.0075 147.508 73.9831C148.514 71.9587 149.017 69.4282 149.017 66.3915V65.4254L139.141 67.3577C135.757 68.0019 133.379 68.9681 132.008 70.2563C130.636 71.4526 129.95 72.7869 129.95 74.2592C129.95 75.3634 130.27 76.3296 130.91 77.1578C131.55 77.9859 132.419 78.6761 133.516 79.2282C134.705 79.6883 136.031 79.9183 137.494 79.9183Z" fill="#595959"/>
</svg>
