<svg width="170" height="98" viewBox="0 0 170 98" fill="none" xmlns="http://www.w3.org/2000/svg">
<path d="M25.0353 96.7715H0L32.5176 0H63.5294L96.0471 96.7715H71.0118L48.3765 24.3819H47.6235L25.0353 96.7715ZM21.6941 58.6866H74.0235V76.4532H21.6941V58.6866Z" fill="#595959"/>
<path d="M126.8 98C122.188 98 118.094 97.2282 114.518 95.6847C110.973 94.1096 108.165 91.747 106.094 88.5969C104.055 85.4153 103.035 81.4304 103.035 76.6423C103.035 72.6101 103.741 69.208 105.153 66.4359C106.565 63.6638 108.51 61.4114 110.988 59.6789C113.467 57.9463 116.322 56.639 119.553 55.757C122.784 54.8435 126.235 54.2292 129.906 53.9142C134.016 53.5362 137.325 53.1424 139.835 52.7329C142.345 52.2919 144.165 51.6776 145.294 50.8901C146.455 50.071 147.035 48.9212 147.035 47.4407V47.2044C147.035 44.7789 146.204 42.9045 144.541 41.5815C142.878 40.2584 140.635 39.5969 137.812 39.5969C134.769 39.5969 132.322 40.2584 130.471 41.5815C128.62 42.9045 127.443 44.7316 126.941 47.0627L105.718 46.3067C106.345 41.8965 107.961 37.9589 110.565 34.4937C113.2 30.9971 116.808 28.2565 121.388 26.2719C126 24.2559 131.537 23.2478 138 23.2478C142.612 23.2478 146.863 23.7991 150.753 24.9016C154.643 25.9727 158.031 27.5477 160.918 29.6268C163.804 31.6744 166.031 34.1945 167.6 37.1871C169.2 40.1797 170 43.5976 170 47.4407V96.7715H148.353V86.6596H147.788C146.502 89.1167 144.855 91.1958 142.847 92.8968C140.871 94.5979 138.533 95.8737 135.835 96.7242C133.169 97.5747 130.157 98 126.8 98ZM133.906 82.8795C136.384 82.8795 138.612 82.3755 140.588 81.3674C142.596 80.3594 144.196 78.9733 145.388 77.2093C146.58 75.4137 147.176 73.3346 147.176 70.972V64.0733C146.518 64.4198 145.718 64.7348 144.776 65.0183C143.867 65.3018 142.863 65.5696 141.765 65.8216C140.667 66.0736 139.537 66.2941 138.376 66.4831C137.216 66.6721 136.102 66.8454 135.035 67.0029C132.871 67.3494 131.02 67.8849 129.482 68.6095C127.976 69.334 126.816 70.279 126 71.4445C125.216 72.5786 124.824 73.9332 124.824 75.5082C124.824 77.9023 125.671 79.7294 127.365 80.9894C129.09 82.2494 131.271 82.8795 133.906 82.8795Z" fill="#595959"/>
</svg>
